<?xml version="1.0" encoding="UTF-8"?>
<svg id="Ebene_1" data-name="Ebene 1" xmlns="http://www.w3.org/2000/svg" version="1.1" viewBox="0 0 1080 1080">
  <defs>
    <style>
      .cls-1 {
        fill: #777e54;
        stroke-width: 0px;
      }
    </style>
  </defs>
  <path class="cls-1" d="M478.5,398.2c11.4-18.2,20.6-35.2,31.9-50.5,19.6-26.4,45.7-43.3,78.7-49,45.7-7.8,76.6,17.7,81.8,63.8,8,72-11.9,116.1-46.6,173.9-40.3,67.1-93.1,139.2-140.9,175.3-14.9,11.2-54.6-36-98.2-88.1-61.3-73.3-97.9-172.4-80.9-245.5,10.6-45.6,54.4-63.5,93.3-55.5,32.3,6.7,54.8,28.1,70.9,56.4,3.4,5.9,6.3,12,10,19.1Z"/>
</svg>