<?xml version="1.0" encoding="UTF-8"?>
<svg id="Ebene_1" data-name="Ebene 1" xmlns="http://www.w3.org/2000/svg" version="1.1" viewBox="0 0 1080 1080">
  <defs>
    <style>
      .cls-1 {
        fill: #010e55;
        stroke-width: 0px;
      }
    </style>
  </defs>
  <path class="cls-1" d="M621,469.6c-14.7-13.4-34-11.6-50-1.6-9.3,5.8-17.5,13.9-24.1,22.7-3.8,5.1-6.5,10.1-8.7,15.5-6.6-14.1-23.7-25.5-36.9-30.3-19.2-6.9-40.2-2.6-52.3,14.4-12.6,17.6-13.3,41.2-4.1,60.3,9.2,19.2,26.6,33.8,42.9,46.6,9.6,7.5,19.4,15.1,29.1,22.4,5.4,4,10.5,8.4,15.8,12.5,1.4,4.3,5.8,7.8,10.7,7.8,2.5,1.1,5.6-.3,6.8-2.6,17.4-14.6,35.1-29,51-45.5,16.2-16.9,32.2-36.8,37.9-59.9,5.2-21.4-1.5-47.3-18.2-62.4ZM619.2,530.8c-6.1,18.7-20.1,34.4-33.8,48.1-14,14-29.4,26.5-44.5,39.2-7.6-8.7-17.7-15.9-26.7-22.8-14.9-11.4-30.4-22.6-42.9-36.7-10.5-11.8-18.2-26.9-14.9-43.1,3.3-16.5,14.4-28.4,32-27.2,9.2.6,18.3,4.3,26,9,8.1,5,13.5,12.1,20.5,18.2-.3,1.1-.7,2.3-1,3.5-.6,2.1,2.2,3.1,3.3,1.4.9-1.3,1.9-2.6,2.8-3.9.3-.2.5-.4.6-.8,4-5,8.9-9.8,13.2-14.1,5.7-5.8,11.4-11.7,18.1-16.4,10.5-7.4,25-14.7,36.3-5,14.1,12.5,16.6,33.8,11,50.5Z"/>
</svg>