<svg xmlns="http://www.w3.org/2000/svg" xmlns:xlink="http://www.w3.org/1999/xlink" width="1080" zoomAndPan="magnify" viewBox="0 0 810 809.999993" height="1080" preserveAspectRatio="xMidYMid meet" version="1.0"><defs><clipPath id="025c028d7d"><path d="M 284 270 L 534 270 L 534 556.769531 L 284 556.769531 Z M 284 270 " clip-rule="nonzero"/></clipPath></defs><path fill="#f08faf" d="M 510.203125 297.433594 C 566.984375 351.1875 475.425781 498.136719 410.222656 550.8125 C 367.214844 503.683594 242.984375 381.664062 309.628906 298.195312 C 345.550781 253.210938 395.113281 283.820312 415.257812 342.417969 C 434.394531 285.640625 476.140625 265.183594 510.203125 297.433594 Z M 510.203125 297.433594 " fill-opacity="1" fill-rule="nonzero"/><g clip-path="url(#025c028d7d)"><path fill="#d74e41" d="M 410.222656 556.660156 C 408.632812 556.660156 407.046875 556.015625 405.898438 554.75 C 402.917969 551.484375 399.484375 547.792969 395.851562 543.882812 C 370.65625 516.777344 332.574219 475.8125 308.011719 431.089844 C 277.734375 375.953125 276.738281 330.011719 305.058594 294.546875 C 323.578125 271.351562 343.261719 269.214844 356.503906 271.507812 C 379.6875 275.515625 401.378906 296.113281 415.210938 326.484375 C 427.0625 300.140625 444.558594 282.644531 464.492188 277.691406 C 481.535156 273.457031 499.195312 278.960938 514.226562 293.191406 C 528.125 306.347656 534.691406 325.039062 533.757812 348.738281 C 532.523438 380.121094 517.609375 420.570312 491.757812 462.632812 C 468.964844 499.722656 439.859375 534.386719 413.898438 555.355469 C 412.820312 556.230469 411.523438 556.660156 410.222656 556.660156 Z M 348.445312 282.5 C 336.113281 282.5 324.378906 289.097656 314.203125 301.84375 C 255.347656 375.558594 356.03125 483.871094 404.421875 535.929688 C 406.625 538.300781 408.757812 540.59375 410.761719 542.761719 C 434.648438 522.328125 460.890625 490.523438 481.785156 456.519531 C 506.605469 416.140625 520.910156 377.699219 522.066406 348.285156 C 522.859375 328.097656 517.511719 312.417969 506.175781 301.6875 C 493.972656 290.132812 480.535156 285.757812 467.3125 289.046875 C 447.96875 293.855469 431.015625 313.992188 420.800781 344.292969 C 420 346.667969 417.78125 348.269531 415.277344 348.273438 C 415.269531 348.273438 415.265625 348.273438 415.257812 348.273438 C 412.757812 348.273438 410.539062 346.691406 409.726562 344.328125 C 398.230469 310.90625 376.558594 286.847656 354.515625 283.039062 C 352.476562 282.671875 350.453125 282.5 348.445312 282.5 Z M 348.445312 282.5 " fill-opacity="1" fill-rule="nonzero"/></g></svg>