<?xml version="1.0" encoding="UTF-8"?>
<svg xmlns="http://www.w3.org/2000/svg" version="1.1" xmlns:xlink="http://www.w3.org/1999/xlink" viewBox="0 0 595.3 841.9">
  <defs>
    <style>
      .cls-1 {
        clip-path: url(#clippath-11);
      }

      .cls-2 {
        fill: #cd5b1c;
      }

      .cls-2, .cls-3, .cls-4, .cls-5, .cls-6, .cls-7, .cls-8, .cls-9, .cls-10, .cls-11, .cls-12 {
        stroke-width: 0px;
      }

      .cls-3 {
        fill: #b2c853;
      }

      .cls-4 {
        fill: #313280;
      }

      .cls-5 {
        fill: #f7ea3a;
      }

      .cls-6 {
        fill: #c20e1a;
      }

      .cls-13 {
        clip-path: url(#clippath-2);
      }

      .cls-14 {
        clip-path: url(#clippath-13);
      }

      .cls-15 {
        isolation: isolate;
      }

      .cls-16 {
        clip-path: url(#clippath-6);
      }

      .cls-7 {
        fill: none;
      }

      .cls-17 {
        clip-path: url(#clippath-7);
      }

      .cls-18 {
        clip-path: url(#clippath-1);
      }

      .cls-8 {
        fill: #222221;
      }

      .cls-19 {
        clip-path: url(#clippath-4);
      }

      .cls-20 {
        clip-path: url(#clippath-12);
      }

      .cls-9 {
        fill: #a2c037;
        mix-blend-mode: multiply;
        opacity: .8;
      }

      .cls-21 {
        clip-path: url(#clippath-9);
      }

      .cls-22 {
        clip-path: url(#clippath);
      }

      .cls-23 {
        clip-path: url(#clippath-3);
      }

      .cls-24 {
        clip-path: url(#clippath-8);
      }

      .cls-10 {
        fill: #fff;
      }

      .cls-11 {
        fill: #009de0;
      }

      .cls-25 {
        clip-path: url(#clippath-14);
      }

      .cls-26 {
        clip-path: url(#clippath-5);
      }

      .cls-27 {
        clip-path: url(#clippath-10);
      }

      .cls-12 {
        fill: #868686;
      }
    </style>
    <clipPath id="clippath">
      <rect class="cls-7" x="126.8" y="137.1" width="359.2" height="484.6"/>
    </clipPath>
    <clipPath id="clippath-1">
      <rect class="cls-7" x="126.8" y="137.1" width="359.2" height="484.6"/>
    </clipPath>
    <clipPath id="clippath-2">
      <rect class="cls-7" x="140.3" y="351.9" width="176.8" height="171.7"/>
    </clipPath>
    <clipPath id="clippath-3">
      <rect class="cls-7" x="140.3" y="351.9" width="176.8" height="171.7"/>
    </clipPath>
    <clipPath id="clippath-4">
      <rect class="cls-7" x="273.1" y="218.4" width="185.6" height="181"/>
    </clipPath>
    <clipPath id="clippath-5">
      <rect class="cls-7" x="135.6" y="149.2" width="181.2" height="176.3"/>
    </clipPath>
    <clipPath id="clippath-6">
      <rect class="cls-7" x="273.1" y="218.4" width="185.6" height="181"/>
    </clipPath>
    <clipPath id="clippath-7">
      <rect class="cls-7" x="272.3" y="408.8" width="195.9" height="191.4"/>
    </clipPath>
    <clipPath id="clippath-8">
      <rect class="cls-7" x="135.6" y="149.2" width="181.2" height="176.3"/>
    </clipPath>
    <clipPath id="clippath-9">
      <rect class="cls-7" x="272.3" y="408.8" width="195.9" height="191.4"/>
    </clipPath>
    <clipPath id="clippath-10">
      <rect class="cls-7" x="277" y="223.8" width="185.6" height="181"/>
    </clipPath>
    <clipPath id="clippath-11">
      <rect class="cls-7" x="140.3" y="357.8" width="176.8" height="171.7"/>
    </clipPath>
    <clipPath id="clippath-12">
      <rect class="cls-7" x="135.6" y="149.2" width="181.2" height="176.3"/>
    </clipPath>
    <clipPath id="clippath-13">
      <rect class="cls-7" x="266.4" y="415.1" width="195.9" height="191.4"/>
    </clipPath>
    <clipPath id="clippath-14">
      <rect class="cls-7" x="142.7" y="142.4" width="194.5" height="190"/>
    </clipPath>
  </defs>
  <g class="cls-15">
    <g id="Ebene_1" data-name="Ebene 1">
      <rect class="cls-8" x="19" y="63" width="568" height="624"/>
      <g class="cls-22">
        <g class="cls-18">
          <g class="cls-13">
            <path class="cls-10" d="M228.7,480.7c-23.5,0-42.6-18.8-42.6-41.9s19.1-41.9,42.6-41.9,42.6,18.8,42.6,41.9c0,23.2-19.1,41.9-42.6,41.9M228.7,354.1c-47.5,0-85.9,37.8-86,84.6,0,46.7,38.5,84.6,85.9,84.6,47.5,0,85.9-37.8,86-84.6h0c0-46.7-38.5-84.6-85.9-84.6"/>
          </g>
          <g class="cls-23">
            <path class="cls-5" d="M228.7,480.7c-23.5,0-42.6-18.8-42.6-41.9s19.1-41.9,42.6-41.9,42.6,18.8,42.6,41.9c0,23.2-19.1,41.9-42.6,41.9M228.7,354.1c-47.5,0-85.9,37.8-86,84.6,0,46.7,38.5,84.6,85.9,84.6,47.5,0,85.9-37.8,86-84.6h0c0-46.7-38.5-84.6-85.9-84.6"/>
          </g>
          <g class="cls-19">
            <path class="cls-10" d="M456.1,229.7l-171.6-9-8.9,169.3,171.6,9,8.9-169.3ZM410.6,270.1l-4.4,83.9-85.1-4.5,4.4-83.9,85.1,4.5Z"/>
          </g>
          <g class="cls-26">
            <path class="cls-10" d="M312.1,153.3h0c0,47.4-38.5,85.9-85.9,86,0-47.4,38.4-85.9,85.8-86h0Z"/>
            <path class="cls-10" d="M312.1,325.2h0c-47.4,0-85.8-38.4-85.9-85.8h.3c47.3,0,85.6,38.3,85.7,85.6,0,0,0,.2,0,.2"/>
            <path class="cls-10" d="M226.2,239.3h0c-47.4,0-85.9-38.5-85.9-85.9h0c47.3.2,86,38.6,86,85.9"/>
            <path class="cls-10" d="M226.2,239.4c0,47.4-38.5,85.8-86,85.8,0-47.4,38.7-85.7,86-85.8"/>
          </g>
          <g class="cls-16">
            <path class="cls-12" d="M456.1,229.7l-171.6-9-8.9,169.3,171.6,9,8.9-169.3ZM410.6,270.1l-4.4,83.9-85.1-4.5,4.4-83.9,85.1,4.5Z"/>
          </g>
          <g class="cls-17">
            <rect class="cls-10" x="279.7" y="425.7" width="57.3" height="57.3" transform="translate(-38.4 28.6) rotate(-5)"/>
            <rect class="cls-10" x="341.8" y="477.8" width="57.3" height="57.3" transform="translate(-42.7 34.2) rotate(-5)"/>
            <rect class="cls-10" x="393.9" y="415.7" width="57.3" height="57.3" transform="translate(-37.1 38.5) rotate(-5)"/>
            <rect class="cls-10" x="289.7" y="539.9" width="57.3" height="57.3" transform="translate(-48.3 29.9) rotate(-5)"/>
            <rect class="cls-10" x="403.9" y="529.9" width="57.3" height="57.3" transform="translate(-47 39.8) rotate(-5)"/>
          </g>
          <g class="cls-24">
            <path class="cls-3" d="M312.1,153.3h0c0,47.4-38.5,85.9-85.9,86,0-47.4,38.4-85.9,85.8-86h0Z"/>
            <path class="cls-3" d="M312.1,325.2h0c-47.4,0-85.8-38.4-85.9-85.8h.3c47.3,0,85.6,38.3,85.7,85.6,0,0,0,.2,0,.2"/>
            <path class="cls-3" d="M226.2,239.3h0c-47.4,0-85.9-38.5-85.9-85.9h0c47.3.2,86,38.6,86,85.9"/>
            <path class="cls-3" d="M226.2,239.4c0,47.4-38.5,85.8-86,85.8,0-47.4,38.7-85.7,86-85.8"/>
          </g>
          <g class="cls-21">
            <rect class="cls-4" x="279.7" y="425.7" width="57.3" height="57.3" transform="translate(-38.4 28.6) rotate(-5)"/>
            <rect class="cls-4" x="341.8" y="477.8" width="57.3" height="57.3" transform="translate(-42.7 34.2) rotate(-5)"/>
            <rect class="cls-4" x="393.9" y="415.7" width="57.3" height="57.3" transform="translate(-37.1 38.5) rotate(-5)"/>
            <rect class="cls-4" x="289.7" y="539.9" width="57.3" height="57.3" transform="translate(-48.3 29.9) rotate(-5)"/>
            <rect class="cls-4" x="403.9" y="529.9" width="57.3" height="57.3" transform="translate(-47 39.8) rotate(-5)"/>
          </g>
          <g class="cls-27">
            <path class="cls-6" d="M460,235.2l-171.6-9-8.9,169.3,171.6,9,8.9-169.3ZM414.5,275.6l-4.4,83.9-85.1-4.5,4.4-83.9,85.1,4.5Z"/>
          </g>
          <g class="cls-1">
            <path class="cls-2" d="M228.7,486.5c-23.5,0-42.6-18.8-42.6-41.9s19.1-41.9,42.6-41.9,42.6,18.8,42.6,41.9c0,23.2-19.1,41.9-42.6,41.9M228.7,360c-47.5,0-85.9,37.8-86,84.6,0,46.7,38.5,84.6,85.9,84.6,47.5,0,85.9-37.8,86-84.6h0c0-46.7-38.5-84.6-85.9-84.6"/>
          </g>
          <g class="cls-20">
            <path class="cls-3" d="M312.1,153.3h0c0,47.4-38.5,85.9-85.9,86,0-47.4,38.4-85.9,85.8-86h0Z"/>
            <path class="cls-3" d="M312.1,325.2h0c-47.4,0-85.8-38.4-85.9-85.8h.3c47.3,0,85.6,38.3,85.7,85.6,0,0,0,.2,0,.2"/>
            <path class="cls-3" d="M226.2,239.3h0c-47.4,0-85.9-38.5-85.9-85.9h0c47.3.2,86,38.6,86,85.9"/>
            <path class="cls-3" d="M226.2,239.4c0,47.4-38.5,85.8-86,85.8,0-47.4,38.7-85.7,86-85.8"/>
          </g>
          <g class="cls-14">
            <rect class="cls-11" x="273.9" y="432" width="57.3" height="57.3" transform="translate(-39 28.1) rotate(-5)"/>
            <rect class="cls-11" x="335.9" y="484" width="57.3" height="57.3" transform="translate(-43.3 33.7) rotate(-5)"/>
            <rect class="cls-11" x="388" y="422" width="57.3" height="57.3" transform="translate(-37.7 38) rotate(-5)"/>
            <rect class="cls-11" x="283.8" y="546.1" width="57.3" height="57.3" transform="translate(-48.9 29.4) rotate(-5)"/>
            <rect class="cls-11" x="398" y="536.1" width="57.3" height="57.3" transform="translate(-47.6 39.3) rotate(-5)"/>
          </g>
          <g class="cls-25">
            <path class="cls-9" d="M320.9,158.3h0c-1.1,47.4-40.4,85-87.8,84,1-47.4,40.3-85,87.7-84,0,0,0,0,0,0"/>
            <path class="cls-9" d="M317.1,330.1h0c-47.4-1.1-84.9-40.3-83.9-87.7h.3c47.3,1.1,84.7,40.2,83.7,87.5,0,0,0,.2,0,.2"/>
            <path class="cls-9" d="M233.1,242.3h0c-47.4-1.1-85-40.4-83.9-87.8,0,0,0,0,0,0,47.3,1.3,85.1,40.5,84,87.9"/>
            <path class="cls-9" d="M233.1,242.4c-1.2,47.4-40.5,84.9-87.9,83.8,1.1-47.4,40.6-84.8,87.9-83.8"/>
          </g>
          <path class="cls-10" d="M479.7,213.2h-2.3c0-.1,3,5.5,3,5.5l-.2,3.4h2.1c0,.1.2-3.3.2-3.3l3.5-5.2h-2.2c0-.1-2.2,3.4-2.2,3.4l-1.8-3.7ZM470.8,218.2h1.9c0,0,0,1.9,0,1.9-.5,0-.9,0-1.3,0-.8,0-1.5-.3-1.9-.9-.4-.5-.6-1.3-.5-2.2,0-.9.4-1.6.9-2.2.6-.5,1.3-.8,2.2-.7.8,0,1.5.2,2.2.6l.8-1.5c-.9-.4-1.9-.6-2.9-.7-1.6,0-2.9.2-3.8,1s-1.5,1.8-1.5,3.3c0,1.5.3,2.6,1,3.4.7.8,1.9,1.3,3.3,1.4.6,0,1.2,0,1.7,0,.6,0,1.2-.1,1.8-.3l.2-4.6-3.9-.2v1.6ZM457.2,214.2c.4-.5,1.1-.7,1.9-.7,1.7,0,2.4,1.1,2.3,3.1-.1,2-1,2.9-2.6,2.9-.8,0-1.4-.3-1.8-.8-.4-.5-.6-1.3-.5-2.3,0-1,.3-1.7.7-2.2M462.6,213.4c-.8-.8-1.9-1.3-3.4-1.4-1.5,0-2.7.2-3.5,1-.8.7-1.3,1.8-1.4,3.3,0,1.5.3,2.6,1,3.5.8.8,1.9,1.3,3.4,1.4,1.5,0,2.7-.3,3.5-1,.8-.7,1.3-1.8,1.4-3.3,0-1.5-.3-2.6-1-3.4M451.4,220.6v-1.5c0,0-3.9-.2-3.9-.2l.4-7.3h-2.1c0-.1-.5,8.7-.5,8.7l6.1.3ZM435.8,213.1c.4-.5,1.1-.7,1.9-.7,1.7,0,2.4,1.1,2.3,3.1-.1,2-1,2.9-2.6,2.9-.8,0-1.4-.3-1.8-.8-.4-.5-.6-1.3-.5-2.3s.3-1.7.7-2.2M441.2,212.3c-.8-.8-1.9-1.3-3.4-1.4-1.5,0-2.7.2-3.5,1-.8.7-1.3,1.8-1.4,3.3,0,1.5.3,2.6,1,3.5.8.8,1.9,1.3,3.4,1.4,1.5,0,2.7-.3,3.5-1,.8-.7,1.3-1.8,1.4-3.3,0-1.5-.3-2.6-1-3.4M429.6,210.6h-1.9c0,0-.2,4.1-.2,4.1,0,.5,0,1.3,0,2.4h0s-3.9-6.8-3.9-6.8h-2.6c0-.1-.5,8.7-.5,8.7h1.9c0,0,.2-4.1.2-4.1,0-.5,0-1.3,0-2.5h0s3.9,6.9,3.9,6.9h2.6c0,.1.5-8.7.5-8.7ZM417.1,210h-2.1c0-.1-.2,3.4-.2,3.4l-3.9-.2.2-3.5h-2.1c0-.1-.5,8.7-.5,8.7h2.1c0,.1.2-3.7.2-3.7l3.9.2-.2,3.8h2.1c0,.1.5-8.7.5-8.7ZM404.1,210.9c.4.1.7.3,1.1.5l.8-1.5c-.9-.5-1.9-.7-2.8-.8-.9,0-1.8,0-2.5.4-.7.3-1.3.8-1.7,1.5-.4.7-.6,1.5-.7,2.4,0,1.5.2,2.6,1,3.4.7.8,1.8,1.3,3.2,1.3,1,0,1.9,0,2.7-.3v-1.6c-.9.3-1.8.4-2.4.3-1.6,0-2.4-1.1-2.3-3.1,0-.9.3-1.7.8-2.2.5-.5,1.1-.7,1.9-.7.4,0,.7,0,1.1.2M395.1,216.1l-3.6-.2v-2.3c.1,0,3.4.2,3.4.2v-1.5c0,0-3.2-.2-3.2-.2v-1.9c.1,0,3.7.2,3.7.2v-1.5c0,0-5.6-.3-5.6-.3l-.5,8.8,5.7.3v-1.5ZM384.2,209.8h2.7c0,.1,0-1.4,0-1.4l-7.4-.4v1.6c0,0,2.6.1,2.6.1l-.4,7.3h2.1c0,.1.4-7.2.4-7.2Z"/>
          <path class="cls-10" d="M281.7,143.9l-3.3,1.4-.9-2.1,3.1-1.3-.6-1.4-3.1,1.3-.8-1.8,3.3-1.4-.6-1.4-5.2,2.2,3.4,8.2,5.2-2.2-.6-1.4ZM269.2,143.3c.4,0,.8-.1,1.2-.2v-1.7c-1.2,0-2.1.4-3,.8-.8.4-1.5,1-1.9,1.7-.4.7-.7,1.4-.6,2.2,0,.8.2,1.6.7,2.4.7,1.3,1.6,2.1,2.6,2.4,1,.3,2.2.1,3.4-.5.9-.5,1.6-1,2.2-1.7l-.8-1.4c-.7.7-1.4,1.3-2,1.6-1.4.8-2.6.3-3.6-1.4-.5-.8-.6-1.6-.5-2.3.1-.7.5-1.2,1.2-1.6.3-.2.7-.3,1-.4M259.7,147l-1.5,1.1,2.4,3.4c.3.4.8,1,1.5,1.9h0s-7.3-2.9-7.3-2.9l-2.1,1.5,5.1,7.2,1.5-1.1-2.4-3.4c-.3-.4-.8-1.1-1.6-2h0s7.4,3,7.4,3l2.2-1.5-5.1-7.2ZM254,160.3l-2.7,2.3-1.5-1.7,2.5-2.2-1-1.2-2.5,2.2-1.3-1.5,2.7-2.3-1-1.2-4.3,3.7,5.8,6.7,4.3-3.7-1-1.2ZM248,167.9l-6.2-6.3-1.5,1.5,6.2,6.3,1.5-1.5ZM237.7,168.1c.3-.2.7-.4,1-.6l-.7-1.5c-.9.4-1.7,1-2.4,1.7-.6.7-1,1.4-1.2,2.2-.2.8-.1,1.5.1,2.3.3.7.8,1.4,1.4,2,1.1,1,2.2,1.4,3.3,1.4,1.1,0,2.1-.6,3.1-1.7.7-.7,1.1-1.5,1.4-2.3l-1.2-1c-.4.9-.9,1.7-1.3,2.2-1.1,1.2-2.4,1.2-3.9-.1-.7-.6-1.1-1.3-1.2-2-.1-.7,0-1.3.6-1.9.2-.3.5-.5.9-.7M234.3,177.5c-.5,0-1.2.3-2.1.8-.7.4-1.1.6-1.3.7-.2,0-.4.1-.5.1-.1,0-.3,0-.4-.2-.2-.2-.3-.4-.3-.6,0-.3.1-.6.3-.9.2-.3.4-.5.7-.7.3-.2.6-.5,1.1-.8l-.8-1.4c-.5.3-.9.6-1.2.9s-.7.7-1,1.1c-.6.8-.9,1.6-.9,2.4,0,.7.3,1.3,1,1.8.3.2.7.4,1,.4.4,0,.7,0,1.1,0,.4-.1.8-.3,1.4-.7.6-.4,1-.6,1.2-.7s.4-.1.6-.1c.2,0,.3,0,.5.1.2.2.4.4.3.7,0,.3-.2.6-.4,1-.2.3-.5.6-.9.9-.4.3-.8.6-1.5,1l1.4,1c.8-.4,1.5-1.1,2.1-1.9.7-.9,1-1.8,1-2.6,0-.8-.3-1.4-1-1.9-.5-.3-1-.5-1.5-.5"/>
          <path class="cls-10" d="M401,608.1c-.4-.4-1-.7-2-1-.7-.2-1.2-.4-1.4-.5-.2,0-.3-.2-.4-.3,0-.1-.2-.3-.2-.4,0-.3,0-.5.3-.7.2-.2.5-.3.9-.3.3,0,.7,0,1,0,.3,0,.8.1,1.3.3l.5-1.5c-.5-.2-1-.3-1.5-.3-.5,0-1,0-1.5,0-1,0-1.8.4-2.4.9-.5.5-.8,1.1-.7,1.9,0,.4.2.8.4,1.1.2.3.5.5.8.8.3.2.8.4,1.4.6.7.2,1.1.4,1.3.5.2.1.4.2.5.3.1.1.2.3.2.4,0,.3,0,.6-.3.7-.2.2-.6.3-1,.3-.4,0-.8,0-1.3,0-.5,0-1-.2-1.7-.4l.2,1.7c.8.3,1.8.4,2.8.3,1.1,0,2-.4,2.6-.9.6-.5.9-1.2.8-2,0-.6-.3-1-.6-1.4M390.6,605.7c.4,0,.8.2,1.1.3l.5-1.6c-1-.3-2-.5-2.9-.4-.9,0-1.7.3-2.4.8-.7.4-1.1,1-1.5,1.7-.3.7-.4,1.5-.3,2.5.1,1.5.6,2.5,1.4,3.3s1.9,1,3.4.9c1,0,1.9-.3,2.7-.7v-1.6c-1.1.4-1.9.6-2.6.7-1.6.1-2.5-.8-2.7-2.7,0-.9,0-1.7.5-2.3.4-.6,1-.9,1.7-1,.4,0,.7,0,1.1,0M382.1,613.7l-.8-8.8-2.1.2.8,8.8,2.1-.2ZM373.8,607.1l2.7-.2v-1.6c-.1,0-7.5.6-7.5.6v1.6c.1,0,2.8-.2,2.8-.2l.6,7.3,2.1-.2-.6-7.3ZM361.8,611.8c.5-2.1.8-3.4.9-3.9,0,.1.1.3.2.6.1.2.6,1.3,1.4,3.1l-2.6.2ZM368.1,614.9l-4.2-8.6-2.5.2-2.7,9.2,2.2-.2.5-2.2,3.6-.3.9,2,2.2-.2ZM351.6,616.4l1.9-7.1h0c0,1.1,0,1.8,0,2.1,0,.3,0,.5,0,.7l.4,4.2,1.9-.2-.8-8.8-2.8.2-1.9,7h0s-2.9-6.5-2.9-6.5l-2.8.2.8,8.8,1.9-.2-.4-4.1c0-.5-.2-1.4-.4-2.8h0s3,6.7,3,6.7l1.9-.2ZM342,615.7l-3.6.3-.2-2.3,3.3-.3v-1.5c-.1,0-3.5.3-3.5.3l-.2-1.9,3.6-.3v-1.5c-.1,0-5.8.5-5.8.5l.8,8.8,5.6-.5v-1.5ZM331.8,609.2l-2.1.2.3,3.5-3.9.3-.3-3.5-2.1.2.8,8.8,2.1-.2-.3-3.8,3.9-.3.3,3.8,2.1-.2-.8-8.8ZM318.4,612l2.7-.2v-1.6c-.1,0-7.5.6-7.5.6v1.6c.1,0,2.8-.2,2.8-.2l.6,7.3,2.1-.2-.6-7.3ZM306.3,616.7c.5-2.1.8-3.4.9-3.9,0,.1.1.3.2.6.1.2.6,1.3,1.4,3.1l-2.6.2ZM312.7,619.8l-4.2-8.6-2.5.2-2.7,9.2,2.2-.2.5-2.2,3.6-.3.9,2,2.2-.2ZM296.2,621.2l1.9-7.1h0c0,1.1,0,1.8,0,2.1,0,.3,0,.5,0,.7l.4,4.2,1.9-.2-.8-8.8-2.8.2-1.9,7h0s-2.9-6.5-2.9-6.5l-2.8.2.8,8.8,1.9-.2-.4-4.1c0-.5-.2-1.4-.4-2.8h0s3,6.7,3,6.7l1.9-.2Z"/>
          <path class="cls-10" d="M173.2,361.3l1.6-1,1,1.5c-.3.3-.7.6-1,.8-.7.5-1.4.6-2,.4-.6-.2-1.2-.7-1.8-1.5-.5-.8-.7-1.5-.5-2.3.2-.8.6-1.4,1.4-1.9.6-.4,1.4-.7,2.1-.8l-.2-1.6c-1,.2-1.9.6-2.7,1.1-1.3.9-2.2,1.9-2.5,3.1-.3,1.2,0,2.3.7,3.5.8,1.2,1.7,2,2.8,2.2,1.1.2,2.2,0,3.5-.9.5-.3.9-.7,1.4-1,.4-.4.9-.8,1.3-1.3l-2.5-3.8-3.3,2.1.9,1.3ZM163.1,361.9l-1.4,1.2,2.7,3.2c.3.4.9,1,1.7,1.8h0s-7.6-2.2-7.6-2.2l-2,1.7,5.8,6.7,1.4-1.2-2.7-3.2c-.3-.4-.9-1-1.7-1.8h0s7.6,2.3,7.6,2.3l2-1.7-5.8-6.7ZM159.7,377.1l-6.5-6.1-1.4,1.5,6.5,6.1,1.4-1.5ZM150.9,382.1l4.1.2,1.4-1.8c-.7,0-2.3,0-4.8,0,.2-.6.2-1.2,0-1.7s-.4-.9-.8-1.2c-.7-.5-1.4-.7-2.2-.5-.7.2-1.5.9-2.3,1.9l-1.8,2.3,7,5.4,1.3-1.7-2.7-2.1.7-.9ZM147.1,380.6l.4-.5c.4-.5.8-.9,1.1-1,.3-.1.7,0,1,.2.3.3.5.6.4.9,0,.4-.3.8-.7,1.3l-.4.5-1.9-1.5ZM148.4,388.8l-1.9,3.1-1.9-1.2,1.7-2.8-1.3-.8-1.7,2.8-1.7-1,1.9-3.1-1.3-.8-3,4.8,7.6,4.6,3-4.8-1.3-.8ZM143.7,396.8l-1.6,3.2-2.1-1,1.5-3-1.4-.7-1.5,3-1.7-.8,1.6-3.2-1.4-.7-2.5,5.1,8,3.9,2.5-5.1-1.4-.7ZM132.8,403.3l-.6,1.8,4,1.3c.5.2,1.2.4,2.3.7h0s-7.7,2-7.7,2l-.8,2.5,8.4,2.8.6-1.8-3.9-1.3c-.5-.2-1.3-.4-2.4-.7h0c0,0,7.7-2,7.7-2l.8-2.5-8.4-2.8ZM137.7,418.2l-8.7-1.9-.4,2,8.7,1.9.4-2ZM132.7,427.4l.2-1.9,1.8.2c0,.5,0,.9,0,1.3,0,.8-.4,1.4-1,1.8-.6.4-1.3.5-2.3.4-.9-.1-1.6-.5-2.1-1.1-.5-.6-.7-1.3-.6-2.2,0-.8.3-1.5.7-2.2l-1.4-.9c-.5.9-.8,1.8-.9,2.8-.2,1.6,0,2.9.8,3.9.7,1,1.8,1.6,3.2,1.7,1.5.2,2.6-.1,3.5-.8.9-.7,1.4-1.8,1.5-3.3,0-.6,0-1.2,0-1.7,0-.6,0-1.2-.2-1.8l-4.6-.5-.4,3.9,1.6.2ZM126.8,435.5v1.9s4.2,0,4.2,0c.5,0,1.3,0,2.4-.1h0s-6.5,4.4-6.5,4.4v2.6c0,0,8.9-.2,8.9-.2v-1.9s-4.2,0-4.2,0c-.5,0-1.3,0-2.5.2h0c0,0,6.6-4.5,6.6-4.5v-2.7c0,0-8.9.2-8.9.2ZM134.8,447.7l.5,3.5-2.3.3-.5-3.3-1.5.2.5,3.3-1.9.3-.5-3.5-1.5.2.8,5.6,8.8-1.3-.8-5.6-1.5.2Z"/>
        </g>
      </g>
    </g>
  </g>
</svg>