%TF.GenerationSoftware,KiCad,Pcbnew,7.0.10*%
%TF.CreationDate,2024-05-13T16:35:13+02:00*%
%TF.ProjectId,MINT-Labs,4d494e54-2d4c-4616-9273-2e6b69636164,rev?*%
%TF.SameCoordinates,Original*%
%TF.FileFunction,Soldermask,Top*%
%TF.FilePolarity,Negative*%
%FSLAX46Y46*%
G04 Gerber Fmt 4.6, Leading zero omitted, Abs format (unit mm)*
G04 Created by KiCad (PCBNEW 7.0.10) date 2024-05-13 16:35:13*
%MOMM*%
%LPD*%
G01*
G04 APERTURE LIST*
G04 APERTURE END LIST*
%TO.C,die_lustigen_vier*%
G36*
X164963261Y-77663192D02*
G01*
X164251125Y-91242345D01*
X150477753Y-90514024D01*
X151189890Y-76934871D01*
X164963261Y-77663192D01*
G37*
G36*
X135150126Y-98232862D02*
G01*
X135400342Y-98246205D01*
X135648135Y-98268255D01*
X135893347Y-98298857D01*
X136135823Y-98337856D01*
X136375406Y-98385098D01*
X136611939Y-98440429D01*
X136845265Y-98503693D01*
X137075228Y-98574737D01*
X137301671Y-98653406D01*
X137524437Y-98739546D01*
X137743370Y-98833001D01*
X137958314Y-98933617D01*
X138169110Y-99041241D01*
X138375604Y-99155716D01*
X138577638Y-99276890D01*
X138775055Y-99404606D01*
X138967699Y-99538712D01*
X139155413Y-99679051D01*
X139338041Y-99825470D01*
X139515426Y-99977815D01*
X139687410Y-100135930D01*
X139853839Y-100299661D01*
X140014554Y-100468853D01*
X140169400Y-100643353D01*
X140318219Y-100823005D01*
X140460855Y-101007655D01*
X140597152Y-101197149D01*
X140726952Y-101391332D01*
X140850099Y-101590049D01*
X140966437Y-101793146D01*
X141075808Y-102000469D01*
X141178056Y-102211862D01*
X141273025Y-102427172D01*
X141360557Y-102646243D01*
X141440497Y-102868922D01*
X141512686Y-103095054D01*
X141576970Y-103324483D01*
X141633191Y-103557057D01*
X141681192Y-103792620D01*
X141720817Y-104031017D01*
X141751909Y-104272095D01*
X141774312Y-104515698D01*
X141787868Y-104761673D01*
X141792422Y-105009864D01*
X141787868Y-105259087D01*
X141774312Y-105506000D01*
X141751909Y-105750453D01*
X141720817Y-105992293D01*
X141681192Y-106231371D01*
X141633191Y-106467534D01*
X141576970Y-106700630D01*
X141512686Y-106930510D01*
X141440497Y-107157021D01*
X141360557Y-107380012D01*
X141273025Y-107599332D01*
X141178056Y-107814829D01*
X141075808Y-108026353D01*
X140966437Y-108233751D01*
X140850099Y-108436872D01*
X140726952Y-108635566D01*
X140597152Y-108829680D01*
X140460855Y-109019064D01*
X140318219Y-109203567D01*
X140169400Y-109383035D01*
X140014554Y-109557320D01*
X139853839Y-109726268D01*
X139687410Y-109889730D01*
X139515426Y-110047553D01*
X139338041Y-110199586D01*
X139155413Y-110345678D01*
X138967699Y-110485678D01*
X138775055Y-110619433D01*
X138577638Y-110746794D01*
X138375604Y-110867608D01*
X138169110Y-110981725D01*
X137958314Y-111088992D01*
X137743370Y-111189259D01*
X137524437Y-111282374D01*
X137301671Y-111368187D01*
X137075228Y-111446544D01*
X136845265Y-111517296D01*
X136611939Y-111580291D01*
X136375406Y-111635378D01*
X136135823Y-111682405D01*
X135893347Y-111721221D01*
X135648135Y-111751675D01*
X135400342Y-111773614D01*
X135150126Y-111786889D01*
X134897643Y-111791348D01*
X134645161Y-111786866D01*
X134394945Y-111773523D01*
X134147152Y-111751473D01*
X133901939Y-111720871D01*
X133659463Y-111681872D01*
X133419881Y-111634630D01*
X133183348Y-111579299D01*
X132950022Y-111516035D01*
X132720059Y-111444991D01*
X132493616Y-111366322D01*
X132270849Y-111280182D01*
X132051916Y-111186727D01*
X131836973Y-111086111D01*
X131626176Y-110978487D01*
X131419683Y-110864012D01*
X131217649Y-110742838D01*
X131020232Y-110615122D01*
X130827588Y-110481016D01*
X130639874Y-110340677D01*
X130457246Y-110194258D01*
X130279861Y-110041913D01*
X130107876Y-109883798D01*
X129941448Y-109720067D01*
X129780732Y-109550875D01*
X129625887Y-109376375D01*
X129477067Y-109196723D01*
X129334431Y-109012073D01*
X129198135Y-108822579D01*
X129068335Y-108628396D01*
X128945187Y-108429679D01*
X128828850Y-108226582D01*
X128719479Y-108019259D01*
X128617230Y-107807866D01*
X128522262Y-107592556D01*
X128434730Y-107373485D01*
X128354790Y-107150806D01*
X128282600Y-106924674D01*
X128218317Y-106695245D01*
X128162096Y-106462671D01*
X128114095Y-106227108D01*
X128074470Y-105988711D01*
X128043378Y-105747633D01*
X128020975Y-105504030D01*
X128007419Y-105258055D01*
X128002865Y-105009864D01*
X128007419Y-104761673D01*
X128020975Y-104515698D01*
X128043378Y-104272095D01*
X128074470Y-104031017D01*
X128114095Y-103792620D01*
X128162096Y-103557057D01*
X128218317Y-103324483D01*
X128282600Y-103095054D01*
X128354790Y-102868922D01*
X128434730Y-102646243D01*
X128522262Y-102427172D01*
X128617230Y-102211862D01*
X128719479Y-102000469D01*
X128828850Y-101793146D01*
X128945187Y-101590049D01*
X129068335Y-101391332D01*
X129198135Y-101197149D01*
X129334431Y-101007655D01*
X129477067Y-100823005D01*
X129625887Y-100643353D01*
X129780732Y-100468853D01*
X129941448Y-100299661D01*
X130107876Y-100135930D01*
X130279861Y-99977815D01*
X130457246Y-99825470D01*
X130639874Y-99679051D01*
X130827588Y-99538712D01*
X131020232Y-99404606D01*
X131217649Y-99276890D01*
X131419683Y-99155716D01*
X131626176Y-99041241D01*
X131836973Y-98933617D01*
X132051916Y-98833001D01*
X132270849Y-98739546D01*
X132493616Y-98653406D01*
X132720059Y-98574737D01*
X132950022Y-98503693D01*
X133183348Y-98440429D01*
X133419881Y-98385098D01*
X133659463Y-98337856D01*
X133901939Y-98298857D01*
X134147152Y-98268255D01*
X134394945Y-98246205D01*
X134645161Y-98232862D01*
X134897643Y-98228380D01*
X135150126Y-98232862D01*
G37*
G36*
X167034673Y-68897420D02*
G01*
X167216904Y-68974149D01*
X167363167Y-69086844D01*
X167363167Y-69103029D01*
X167455481Y-69249293D01*
X167508232Y-69431523D01*
X167525017Y-69653316D01*
X167487851Y-69874510D01*
X167411123Y-70052544D01*
X167298428Y-70187419D01*
X167147968Y-70279733D01*
X166957945Y-70332484D01*
X166748140Y-70348066D01*
X166731955Y-70349268D01*
X166510162Y-70312103D01*
X166327932Y-70235374D01*
X166181668Y-70122679D01*
X166089354Y-69965026D01*
X166036603Y-69778600D01*
X166021040Y-69572392D01*
X166375887Y-69572392D01*
X166386002Y-69788865D01*
X166456812Y-69944645D01*
X166578198Y-70039731D01*
X166748140Y-70074124D01*
X166968735Y-70024371D01*
X167110203Y-69870314D01*
X167168948Y-69604762D01*
X167156304Y-69389805D01*
X167092070Y-69232508D01*
X166973212Y-69135904D01*
X166796695Y-69103029D01*
X166618661Y-69129329D01*
X166489181Y-69216323D01*
X166414326Y-69364011D01*
X166375887Y-69572392D01*
X166021040Y-69572392D01*
X166019819Y-69556207D01*
X166056984Y-69335013D01*
X166133712Y-69156979D01*
X166246407Y-69022104D01*
X166396867Y-68922597D01*
X166586890Y-68873443D01*
X166812880Y-68860255D01*
X167034673Y-68897420D01*
G37*
G36*
X170498247Y-69075455D02*
G01*
X170680478Y-69152183D01*
X170826741Y-69264878D01*
X170826741Y-69281063D01*
X170919055Y-69427327D01*
X170971806Y-69609557D01*
X170988591Y-69831350D01*
X170951425Y-70052544D01*
X170874697Y-70230579D01*
X170762002Y-70365453D01*
X170611542Y-70457767D01*
X170421519Y-70510518D01*
X170211714Y-70526100D01*
X170195529Y-70527302D01*
X169973736Y-70490137D01*
X169791506Y-70413408D01*
X169645242Y-70300713D01*
X169552928Y-70143060D01*
X169500177Y-69956634D01*
X169484614Y-69750426D01*
X169839461Y-69750426D01*
X169849577Y-69966899D01*
X169920386Y-70122679D01*
X170041773Y-70217766D01*
X170211714Y-70252159D01*
X170432309Y-70202405D01*
X170573777Y-70048348D01*
X170632522Y-69782796D01*
X170619878Y-69567840D01*
X170555644Y-69410542D01*
X170436786Y-69313939D01*
X170260269Y-69281063D01*
X170082235Y-69307364D01*
X169952755Y-69394357D01*
X169871831Y-69542045D01*
X169839461Y-69750426D01*
X169484614Y-69750426D01*
X169483393Y-69734241D01*
X169520558Y-69513047D01*
X169597287Y-69335013D01*
X169709982Y-69200138D01*
X169860441Y-69100631D01*
X170050464Y-69051477D01*
X170276454Y-69038289D01*
X170498247Y-69075455D01*
G37*
G36*
X164580267Y-68877605D02*
G01*
X164736807Y-69150548D01*
X164923646Y-69476318D01*
X165080186Y-69749261D01*
X165145833Y-69863720D01*
X165145833Y-69633085D01*
X165145833Y-69475282D01*
X165154225Y-69303242D01*
X165169810Y-68983740D01*
X165178202Y-68811700D01*
X165485716Y-68811700D01*
X165479722Y-68917127D01*
X165464736Y-69180357D01*
X165445254Y-69521814D01*
X165425772Y-69861922D01*
X165410786Y-70121106D01*
X165404791Y-70219789D01*
X164983983Y-70219789D01*
X164918337Y-70103646D01*
X164761797Y-69826689D01*
X164574958Y-69496128D01*
X164418417Y-69219172D01*
X164352771Y-69103029D01*
X164352771Y-69347826D01*
X164352771Y-69507652D01*
X164344379Y-69679692D01*
X164328794Y-69999194D01*
X164320401Y-70171234D01*
X164012888Y-70171234D01*
X164018882Y-70065807D01*
X164033868Y-69802577D01*
X164053350Y-69461120D01*
X164072832Y-69121012D01*
X164087818Y-68861828D01*
X164093812Y-68763145D01*
X164514620Y-68763145D01*
X164580267Y-68877605D01*
G37*
G36*
X162459135Y-69232508D02*
G01*
X163090347Y-69264878D01*
X163098739Y-69118614D01*
X163114325Y-68850064D01*
X163122717Y-68714591D01*
X163462600Y-68714591D01*
X163456606Y-68820017D01*
X163441620Y-69083247D01*
X163422138Y-69424704D01*
X163402656Y-69764812D01*
X163387670Y-70023996D01*
X163381676Y-70122679D01*
X163041792Y-70122679D01*
X163074162Y-69507652D01*
X162442950Y-69475282D01*
X162434558Y-69634134D01*
X162418972Y-69926062D01*
X162410580Y-70074124D01*
X162070697Y-70074124D01*
X162076691Y-69968698D01*
X162091677Y-69705468D01*
X162111159Y-69364011D01*
X162130641Y-69023903D01*
X162145627Y-68764719D01*
X162151621Y-68666036D01*
X162491505Y-68666036D01*
X162459135Y-69232508D01*
G37*
G36*
X173610549Y-69248693D02*
G01*
X173901877Y-69847535D01*
X173994191Y-69701272D01*
X174165632Y-69432722D01*
X174257946Y-69297248D01*
X174614014Y-69297248D01*
X174047542Y-70138864D01*
X174039149Y-70280932D01*
X174023564Y-70541689D01*
X174015172Y-70672967D01*
X173675288Y-70672967D01*
X173707658Y-70122679D01*
X173631791Y-69981314D01*
X173464884Y-69671524D01*
X173297977Y-69364769D01*
X173222110Y-69232508D01*
X173594364Y-69232508D01*
X173610549Y-69248693D01*
G37*
G36*
X172621245Y-69157653D02*
G01*
X172849857Y-69232508D01*
X172720378Y-69475282D01*
X172548413Y-69402450D01*
X172364309Y-69378173D01*
X172168067Y-69398404D01*
X172008241Y-69491467D01*
X171905062Y-69651293D01*
X171862577Y-69847535D01*
X171872692Y-70049847D01*
X171943501Y-70203604D01*
X172072981Y-70312852D01*
X172251015Y-70349268D01*
X172461419Y-70349268D01*
X172461419Y-70195511D01*
X172461419Y-70041755D01*
X172153905Y-70041755D01*
X172186275Y-70025570D01*
X172186275Y-69766611D01*
X172817487Y-69798981D01*
X172785117Y-70543487D01*
X172639453Y-70579903D01*
X172493789Y-70592042D01*
X172362286Y-70592042D01*
X172218645Y-70592042D01*
X172004644Y-70554877D01*
X171823013Y-70478148D01*
X171684542Y-70365453D01*
X171592228Y-70219189D01*
X171539478Y-70036959D01*
X171522693Y-69815166D01*
X171553265Y-69597568D01*
X171637786Y-69423131D01*
X171765467Y-69281063D01*
X171932112Y-69181556D01*
X172138320Y-69132401D01*
X172380494Y-69119214D01*
X172621245Y-69157653D01*
G37*
G36*
X161439485Y-68609389D02*
G01*
X161666074Y-68698406D01*
X161536594Y-68941180D01*
X161358560Y-68860255D01*
X161390930Y-68827885D01*
X161212896Y-68795515D01*
X161040931Y-68821816D01*
X160905382Y-68908810D01*
X160810296Y-69062567D01*
X160775903Y-69264878D01*
X160790823Y-69479834D01*
X160858850Y-69637131D01*
X160978467Y-69733735D01*
X161148156Y-69766611D01*
X161324167Y-69766611D01*
X161536594Y-69718056D01*
X161536594Y-69977015D01*
X161330236Y-70019500D01*
X161099601Y-70025570D01*
X160889797Y-69999794D01*
X160715958Y-69927261D01*
X160581684Y-69815166D01*
X160482176Y-69668902D01*
X160433022Y-69486672D01*
X160419834Y-69264878D01*
X160458274Y-69058520D01*
X160533129Y-68876440D01*
X160652493Y-68730776D01*
X160808273Y-68633666D01*
X160998445Y-68577019D01*
X161212896Y-68568926D01*
X161439485Y-68609389D01*
G37*
G36*
X158574753Y-68455632D02*
G01*
X158574753Y-68682221D01*
X158137760Y-68682221D01*
X158131027Y-68804967D01*
X158114971Y-69097073D01*
X158095808Y-69444337D01*
X158079753Y-69732558D01*
X158073020Y-69847535D01*
X157733137Y-69847535D01*
X157797876Y-68666036D01*
X157587472Y-68657943D01*
X157377068Y-68649851D01*
X157377068Y-68390892D01*
X158574753Y-68455632D01*
G37*
G36*
X159185734Y-68495588D02*
G01*
X159497294Y-68512279D01*
X159808853Y-68528970D01*
X159950471Y-68536556D01*
X159950471Y-68779330D01*
X159798813Y-68770938D01*
X159514078Y-68755353D01*
X159351629Y-68746960D01*
X159351629Y-69054474D01*
X159610588Y-69070659D01*
X159869547Y-69086844D01*
X159869547Y-69329618D01*
X159730476Y-69321226D01*
X159469120Y-69305640D01*
X159319259Y-69297248D01*
X159319259Y-69669501D01*
X159901917Y-69701871D01*
X159885732Y-69718056D01*
X159885732Y-69960830D01*
X158963191Y-69912275D01*
X159044116Y-68488002D01*
X159185734Y-68495588D01*
G37*
G36*
X168382818Y-70155049D02*
G01*
X168546465Y-70163441D01*
X168850382Y-70179027D01*
X169014030Y-70187419D01*
X169014030Y-70430193D01*
X168026749Y-70381638D01*
X168032744Y-70276211D01*
X168047730Y-70012981D01*
X168067212Y-69671524D01*
X168086693Y-69331416D01*
X168101680Y-69072233D01*
X168107674Y-68973549D01*
X168447557Y-68973549D01*
X168382818Y-70155049D01*
G37*
G36*
X140806997Y-59455878D02*
G01*
X140450929Y-59698652D01*
X140326369Y-59648155D01*
X140029344Y-59527739D01*
X139674829Y-59384017D01*
X139377803Y-59263601D01*
X139253244Y-59213104D01*
X139413070Y-59405300D01*
X139512203Y-59536802D01*
X139900641Y-60087090D01*
X139657867Y-60265124D01*
X138832436Y-59099809D01*
X139172320Y-58857035D01*
X139295195Y-58905849D01*
X139588207Y-59022251D01*
X139937931Y-59161183D01*
X140230943Y-59277585D01*
X140353819Y-59326398D01*
X140208155Y-59142295D01*
X140111045Y-59018885D01*
X139722607Y-58468597D01*
X139965381Y-58290563D01*
X139981566Y-58290563D01*
X140806997Y-59455878D01*
G37*
G36*
X138427813Y-59731021D02*
G01*
X137990820Y-60103275D01*
X138201224Y-60346049D01*
X138605847Y-59989980D01*
X138767696Y-60184199D01*
X138363073Y-60540268D01*
X138605847Y-60815412D01*
X139042840Y-60443158D01*
X139042840Y-60426973D01*
X139204689Y-60621192D01*
X138508738Y-61220035D01*
X137570012Y-60135645D01*
X138265964Y-59536802D01*
X138427813Y-59731021D01*
G37*
G36*
X143153811Y-56931029D02*
G01*
X142619709Y-57157618D01*
X142749188Y-57448947D01*
X143250921Y-57238543D01*
X143348030Y-57465132D01*
X142846298Y-57675536D01*
X142991962Y-58015419D01*
X143526064Y-57788830D01*
X143509880Y-57805015D01*
X143606989Y-58031604D01*
X142765373Y-58387673D01*
X142215086Y-57060509D01*
X143056702Y-56704440D01*
X143153811Y-56931029D01*
G37*
G36*
X136566547Y-61608473D02*
G01*
X136404697Y-61705582D01*
X136388512Y-61705582D01*
X136242848Y-61818877D01*
X136151808Y-61966564D01*
X136145738Y-62126391D01*
X136206432Y-62294309D01*
X136339958Y-62450089D01*
X136515969Y-62568694D01*
X136679841Y-62609915D01*
X136831575Y-62575269D01*
X136971170Y-62466274D01*
X137076372Y-62312517D01*
X137181574Y-62110206D01*
X137375793Y-62272055D01*
X137286776Y-62464251D01*
X137149204Y-62644308D01*
X136986755Y-62794768D01*
X136820710Y-62887681D01*
X136647471Y-62919452D01*
X136469437Y-62896673D01*
X136291403Y-62823541D01*
X136113369Y-62692863D01*
X135981866Y-62537083D01*
X135886780Y-62369164D01*
X135854410Y-62183038D01*
X135870595Y-61996911D01*
X135943427Y-61812808D01*
X136064814Y-61640843D01*
X136246894Y-61485063D01*
X136453252Y-61365699D01*
X136566547Y-61608473D01*
G37*
G36*
X135449787Y-62968007D02*
G01*
X135271752Y-63097486D01*
X135158458Y-63210781D01*
X135109903Y-63356445D01*
X135158458Y-63453554D01*
X135223198Y-63485924D01*
X135304122Y-63469739D01*
X135514526Y-63356445D01*
X135708745Y-63261358D01*
X135854410Y-63226965D01*
X135838225Y-63210781D01*
X136080999Y-63291705D01*
X136204409Y-63427254D01*
X136242848Y-63599219D01*
X136204409Y-63803553D01*
X136080999Y-64020027D01*
X135923196Y-64198061D01*
X135741115Y-64327540D01*
X135514526Y-64165691D01*
X135654121Y-64078697D01*
X135757300Y-64003842D01*
X135902965Y-63858178D01*
X135967704Y-63696328D01*
X135919150Y-63583034D01*
X135838225Y-63566849D01*
X135741115Y-63583034D01*
X135546896Y-63696328D01*
X135320307Y-63809623D01*
X135142273Y-63809623D01*
X134980424Y-63744883D01*
X134857014Y-63611357D01*
X134818575Y-63453554D01*
X134854991Y-63259335D01*
X134964239Y-63065116D01*
X135126088Y-62887082D01*
X135320307Y-62741418D01*
X135449787Y-62968007D01*
G37*
G36*
X141697168Y-57659351D02*
G01*
X141502949Y-57691721D01*
X141486764Y-57675536D01*
X141324915Y-57740276D01*
X141191389Y-57851547D01*
X141130696Y-57999234D01*
X141134742Y-58179292D01*
X141211620Y-58371488D01*
X141384259Y-58581292D01*
X141578478Y-58658021D01*
X141794277Y-58598077D01*
X141950057Y-58492875D01*
X142117976Y-58339118D01*
X142247455Y-58565707D01*
X142087629Y-58715417D01*
X141891387Y-58840851D01*
X141698367Y-58915781D01*
X141512540Y-58943955D01*
X141341100Y-58921775D01*
X141185245Y-58846246D01*
X141043776Y-58716766D01*
X140920291Y-58533337D01*
X140833298Y-58339118D01*
X140806997Y-58144899D01*
X140825205Y-57960795D01*
X140904107Y-57788830D01*
X141033586Y-57633050D01*
X141211620Y-57513687D01*
X141436186Y-57424670D01*
X141697168Y-57384207D01*
X141697168Y-57659351D01*
G37*
G36*
X138071745Y-61673213D02*
G01*
X137828971Y-61915986D01*
X136825505Y-60896336D01*
X137068279Y-60653562D01*
X138071745Y-61673213D01*
G37*
G36*
X153250746Y-132703197D02*
G01*
X152943232Y-132735567D01*
X152878492Y-132055800D01*
X152878492Y-131942506D01*
X152878492Y-131821119D01*
X152878492Y-131602622D01*
X152570979Y-132751752D01*
X152538609Y-132751752D01*
X152231095Y-132784122D01*
X152180598Y-132671345D01*
X152060182Y-132402417D01*
X151916460Y-132081437D01*
X151796044Y-131812508D01*
X151745547Y-131699732D01*
X151790056Y-131980945D01*
X151810287Y-132152910D01*
X151875027Y-132816492D01*
X151567513Y-132848862D01*
X151438034Y-131424588D01*
X151891212Y-131392218D01*
X151940025Y-131501628D01*
X152056427Y-131762529D01*
X152195359Y-132073927D01*
X152311761Y-132334828D01*
X152360575Y-132444238D01*
X152668088Y-131311294D01*
X153121266Y-131278924D01*
X153250746Y-132703197D01*
G37*
G36*
X144284297Y-133480074D02*
G01*
X143976783Y-133512443D01*
X143912043Y-132832677D01*
X143912043Y-132719382D01*
X143912043Y-132597995D01*
X143912043Y-132379499D01*
X143604530Y-133528628D01*
X143572160Y-133528628D01*
X143264646Y-133560998D01*
X143214149Y-133448222D01*
X143093734Y-133179293D01*
X142950012Y-132858313D01*
X142829596Y-132589385D01*
X142779099Y-132476608D01*
X142823607Y-132757821D01*
X142843838Y-132929786D01*
X142908578Y-133593368D01*
X142601065Y-133625738D01*
X142471585Y-132201464D01*
X142924763Y-132169095D01*
X142973577Y-132278505D01*
X143089979Y-132539406D01*
X143228910Y-132850804D01*
X143345312Y-133111705D01*
X143394126Y-133221115D01*
X143701639Y-132088170D01*
X144154817Y-132055800D01*
X144284297Y-133480074D01*
G37*
G36*
X146267475Y-133286542D02*
G01*
X145918974Y-133318224D01*
X145773310Y-132994526D01*
X145223022Y-133040383D01*
X145190653Y-133043081D01*
X145109728Y-133399149D01*
X144753660Y-133431519D01*
X144939279Y-132799038D01*
X145239506Y-132799038D01*
X145643831Y-132767937D01*
X145531135Y-132515572D01*
X145454407Y-132345930D01*
X145417242Y-132266204D01*
X145384872Y-132169095D01*
X145357897Y-132293179D01*
X145309342Y-132503583D01*
X145239506Y-132799038D01*
X144939279Y-132799038D01*
X145190653Y-131942506D01*
X145595276Y-131910136D01*
X146267475Y-133286542D01*
G37*
G36*
X146275043Y-133302039D02*
G01*
X146267475Y-133286542D01*
X146275043Y-133285855D01*
X146275043Y-133302039D01*
G37*
G36*
X155233922Y-132493481D02*
G01*
X154885423Y-132525163D01*
X154739759Y-132201464D01*
X154205656Y-132245973D01*
X154157101Y-132250019D01*
X154076177Y-132606088D01*
X153720108Y-132638457D01*
X153905727Y-132005976D01*
X154222140Y-132005976D01*
X154626464Y-131974875D01*
X154513769Y-131722511D01*
X154437041Y-131552869D01*
X154399875Y-131473143D01*
X154367505Y-131376033D01*
X154340530Y-131500118D01*
X154291976Y-131710522D01*
X154222140Y-132005976D01*
X153905727Y-132005976D01*
X154157101Y-131149444D01*
X154561724Y-131117074D01*
X155233922Y-132493481D01*
G37*
G36*
X155241491Y-132508978D02*
G01*
X155233922Y-132493481D01*
X155241491Y-132492793D01*
X155241491Y-132508978D01*
G37*
G36*
X149495843Y-133010711D02*
G01*
X149155959Y-133043081D01*
X149107405Y-132428053D01*
X148476192Y-132476608D01*
X148524747Y-133091635D01*
X148184864Y-133124005D01*
X148055384Y-131699732D01*
X148395268Y-131667362D01*
X148443823Y-132233834D01*
X149075035Y-132185280D01*
X149026480Y-131618807D01*
X149366363Y-131586437D01*
X149495843Y-133010711D01*
G37*
G36*
X156601025Y-131214184D02*
G01*
X156164032Y-131246554D01*
X156180217Y-131246554D01*
X156277327Y-132428053D01*
X155937443Y-132460423D01*
X155840334Y-131278924D01*
X155619814Y-131295109D01*
X155387156Y-131311294D01*
X155387156Y-131052335D01*
X155511844Y-131042235D01*
X155809776Y-131018152D01*
X156166751Y-130989408D01*
X156468568Y-130965325D01*
X156601025Y-130955225D01*
X156601025Y-131214184D01*
G37*
G36*
X147634576Y-132007245D02*
G01*
X147197583Y-132039615D01*
X147213768Y-132039615D01*
X147310878Y-133221115D01*
X146970994Y-133253485D01*
X146873885Y-132071985D01*
X146653365Y-132088170D01*
X146420707Y-132104355D01*
X146420707Y-131845396D01*
X146545396Y-131835297D01*
X146843328Y-131811214D01*
X147200302Y-131782469D01*
X147502119Y-131758386D01*
X147634576Y-131748287D01*
X147634576Y-132007245D01*
G37*
G36*
X158901308Y-130752914D02*
G01*
X159142058Y-130809561D01*
X159061134Y-131068520D01*
X158883100Y-131019965D01*
X158883100Y-131003780D01*
X158705065Y-131003780D01*
X158549285Y-131054358D01*
X158429922Y-131165629D01*
X158359113Y-131333548D01*
X158348997Y-131537882D01*
X158419132Y-131791446D01*
X158564796Y-131937111D01*
X158785990Y-131974875D01*
X158972117Y-131936436D01*
X159206798Y-131861581D01*
X159206798Y-132120540D01*
X159000440Y-132201464D01*
X158769805Y-132233834D01*
X158548012Y-132232036D01*
X158365781Y-132187078D01*
X158219518Y-132088170D01*
X158106823Y-131946102D01*
X158030094Y-131771665D01*
X157992929Y-131554067D01*
X157992929Y-131333548D01*
X158041483Y-131149444D01*
X158144662Y-130993664D01*
X158284257Y-130874301D01*
X158466338Y-130779214D01*
X158672696Y-130744821D01*
X158901308Y-130752914D01*
G37*
G36*
X160566332Y-130696266D02*
G01*
X160485407Y-130939040D01*
X160275003Y-130890485D01*
X160113154Y-130890485D01*
X159967490Y-130939040D01*
X159918935Y-131052335D01*
X159951305Y-131117074D01*
X160016044Y-131165629D01*
X160242633Y-131246554D01*
X160440899Y-131321409D01*
X160566332Y-131408403D01*
X160566332Y-131424588D01*
X160663441Y-131651177D01*
X160641187Y-131831234D01*
X160533962Y-131974875D01*
X160353905Y-132078054D01*
X160113154Y-132120540D01*
X159874426Y-132120540D01*
X159659976Y-132071985D01*
X159627606Y-131796841D01*
X159777317Y-131841350D01*
X159902750Y-131861581D01*
X160113154Y-131861581D01*
X160275003Y-131813026D01*
X160323558Y-131699732D01*
X160291188Y-131634992D01*
X160210263Y-131586437D01*
X159999859Y-131505513D01*
X159773270Y-131408403D01*
X159643791Y-131278924D01*
X159579051Y-131100889D01*
X159599283Y-130928925D01*
X159692346Y-130793376D01*
X159862288Y-130690197D01*
X160080784Y-130647712D01*
X160323558Y-130647712D01*
X160566332Y-130696266D01*
G37*
G36*
X150920116Y-131715917D02*
G01*
X150337459Y-131764471D01*
X150369829Y-132071985D01*
X150513095Y-132059397D01*
X150782245Y-132036019D01*
X150936301Y-132023430D01*
X150936301Y-132266204D01*
X150402199Y-132314759D01*
X150434568Y-132687012D01*
X151017226Y-132638457D01*
X151017226Y-132654642D01*
X151017226Y-132897416D01*
X150110870Y-132978341D01*
X149981391Y-131554067D01*
X150125790Y-131541423D01*
X150444684Y-131513605D01*
X150766612Y-131485787D01*
X150920116Y-131473143D01*
X150920116Y-131715917D01*
G37*
G36*
X157507381Y-132314759D02*
G01*
X157167497Y-132347129D01*
X157038018Y-130922855D01*
X157377902Y-130890485D01*
X157507381Y-132314759D01*
G37*
G36*
X124949425Y-92851437D02*
G01*
X125888151Y-93935827D01*
X125564452Y-94210970D01*
X125436527Y-94172256D01*
X125131473Y-94079937D01*
X124767377Y-93969750D01*
X124462324Y-93877431D01*
X124334398Y-93838717D01*
X124502317Y-94008659D01*
X124609542Y-94130046D01*
X125046535Y-94647963D01*
X124819946Y-94842183D01*
X123881220Y-93757792D01*
X124204919Y-93482649D01*
X124332844Y-93519680D01*
X124637898Y-93607985D01*
X125001994Y-93713381D01*
X125307047Y-93801686D01*
X125434973Y-93838717D01*
X125267054Y-93668775D01*
X125159829Y-93547388D01*
X124722836Y-93029471D01*
X124949425Y-92835252D01*
X124949425Y-92851437D01*
G37*
G36*
X121404927Y-99988989D02*
G01*
X121275447Y-100393612D01*
X121145838Y-100427277D01*
X120836771Y-100507554D01*
X120467884Y-100603369D01*
X120158817Y-100683646D01*
X120029208Y-100717311D01*
X120259843Y-100780027D01*
X120417646Y-100830605D01*
X121048858Y-101041009D01*
X120951749Y-101332338D01*
X119592215Y-100879160D01*
X119721694Y-100474537D01*
X119851303Y-100440872D01*
X120160370Y-100360595D01*
X120529257Y-100264780D01*
X120838325Y-100184503D01*
X120967934Y-100150838D01*
X120745391Y-100088122D01*
X120595680Y-100037544D01*
X119948283Y-99827140D01*
X120045393Y-99535811D01*
X121404927Y-99988989D01*
G37*
G36*
X122958679Y-95376285D02*
G01*
X123088159Y-95570504D01*
X123112436Y-95702007D01*
X123088159Y-95845648D01*
X123444227Y-95845648D01*
X123703186Y-95845648D01*
X123865035Y-95845648D01*
X123638446Y-96136977D01*
X122974864Y-96104607D01*
X122958679Y-96088422D01*
X122845385Y-96234086D01*
X123282378Y-96573970D01*
X123071974Y-96849113D01*
X122651166Y-96524490D01*
X121939029Y-95975127D01*
X122029329Y-95859744D01*
X122361507Y-95859744D01*
X122651166Y-96088422D01*
X122715905Y-96007497D01*
X122829200Y-95797093D01*
X122764460Y-95651429D01*
X122602611Y-95619059D01*
X122424577Y-95780908D01*
X122361507Y-95859744D01*
X122029329Y-95859744D01*
X122230358Y-95602874D01*
X122422554Y-95400562D01*
X122602611Y-95295360D01*
X122786715Y-95293337D01*
X122958679Y-95376285D01*
G37*
G36*
X121777180Y-96703449D02*
G01*
X121469666Y-97205182D01*
X121744810Y-97367031D01*
X122019954Y-96913853D01*
X122230358Y-97043332D01*
X121955214Y-97496510D01*
X122262728Y-97690730D01*
X122570241Y-97188997D01*
X122586426Y-97188997D01*
X122796830Y-97318476D01*
X122311282Y-98095353D01*
X121081228Y-97350846D01*
X121566776Y-96573970D01*
X121777180Y-96703449D01*
G37*
G36*
X126713582Y-91961266D02*
G01*
X126537571Y-92007797D01*
X126373699Y-92090745D01*
X126223988Y-92226294D01*
X126147110Y-92398259D01*
X126145087Y-92584385D01*
X126228034Y-92770512D01*
X126373699Y-92928315D01*
X126519363Y-93013286D01*
X126675143Y-93023401D01*
X126843061Y-92948546D01*
X127004911Y-92819067D01*
X126843061Y-92576293D01*
X126614517Y-92719132D01*
X126470808Y-92511553D01*
X127004911Y-92171670D01*
X127409534Y-92786697D01*
X127304332Y-92897968D01*
X127199130Y-92997101D01*
X127085835Y-93078026D01*
X126972541Y-93158950D01*
X126771728Y-93268648D01*
X126585302Y-93313606D01*
X126406068Y-93304615D01*
X126238225Y-93241074D01*
X126088364Y-93119987D01*
X125952891Y-92948546D01*
X125862375Y-92758523D01*
X125822212Y-92572097D01*
X125839596Y-92382074D01*
X125919322Y-92198045D01*
X126056594Y-92032000D01*
X126244219Y-91880341D01*
X126450577Y-91773116D01*
X126681212Y-91702307D01*
X126713582Y-91961266D01*
G37*
G36*
X126616473Y-92721957D02*
G01*
X126584103Y-92738142D01*
X126614517Y-92719132D01*
X126616473Y-92721957D01*
G37*
G36*
X120967934Y-98079168D02*
G01*
X120708975Y-98597085D01*
X120984118Y-98726565D01*
X121226892Y-98241017D01*
X121453481Y-98354311D01*
X121210707Y-98839859D01*
X121550591Y-99001709D01*
X121809550Y-98483791D01*
X122036139Y-98597085D01*
X121631515Y-99422517D01*
X120336721Y-98791304D01*
X120741345Y-97965873D01*
X120967934Y-98079168D01*
G37*
G36*
X120514756Y-105135796D02*
G01*
X120403662Y-105211541D01*
X120138747Y-105392165D01*
X119822559Y-105607748D01*
X119557644Y-105788372D01*
X119446551Y-105864117D01*
X119691348Y-105835794D01*
X119851174Y-105831747D01*
X120027410Y-105831747D01*
X120354705Y-105831747D01*
X120530941Y-105831747D01*
X120530941Y-106139261D01*
X120424240Y-106141659D01*
X120157488Y-106147653D01*
X119810711Y-106155446D01*
X119463934Y-106163239D01*
X119197183Y-106169233D01*
X119090482Y-106171631D01*
X119090482Y-105750823D01*
X119199892Y-105676760D01*
X119460793Y-105500151D01*
X119772191Y-105289358D01*
X120033092Y-105112748D01*
X120142502Y-105038686D01*
X119911867Y-105052848D01*
X119754064Y-105054871D01*
X119577828Y-105054871D01*
X119250533Y-105054871D01*
X119074297Y-105054871D01*
X119074297Y-104747357D01*
X119074297Y-104731172D01*
X119180998Y-104728775D01*
X119447749Y-104722780D01*
X119794526Y-104714987D01*
X120141303Y-104707195D01*
X120408055Y-104701200D01*
X120514756Y-104698802D01*
X120514756Y-105135796D01*
G37*
G36*
X119495105Y-102837536D02*
G01*
X119414181Y-103009501D01*
X119381811Y-103193604D01*
X119393950Y-103389847D01*
X119478920Y-103549673D01*
X119624585Y-103669037D01*
X119818804Y-103727707D01*
X120029208Y-103725684D01*
X120191057Y-103662967D01*
X120308398Y-103541580D01*
X120352906Y-103371639D01*
X120352906Y-103161235D01*
X120061578Y-103128865D01*
X120029208Y-103436378D01*
X119996838Y-103404008D01*
X119737879Y-103371639D01*
X119802619Y-102740426D01*
X120547125Y-102821351D01*
X120575449Y-102967015D01*
X120579495Y-103112680D01*
X120579495Y-103244182D01*
X120579495Y-103387823D01*
X120541730Y-103609017D01*
X120460806Y-103787052D01*
X120336721Y-103921926D01*
X120179068Y-104013041D01*
X119992642Y-104057400D01*
X119770249Y-104051405D01*
X119560444Y-104008845D01*
X119386606Y-103915932D01*
X119252331Y-103776262D01*
X119154023Y-103598228D01*
X119113261Y-103387823D01*
X119122852Y-103145050D01*
X119171407Y-102912391D01*
X119268516Y-102691872D01*
X119495105Y-102837536D01*
G37*
G36*
X120757529Y-107579719D02*
G01*
X119333256Y-107790123D01*
X119203777Y-106883768D01*
X119446551Y-106851398D01*
X119527475Y-107417870D01*
X119834989Y-107369315D01*
X119754064Y-106835213D01*
X119996838Y-106802843D01*
X120077763Y-107336945D01*
X120450016Y-107288391D01*
X120369091Y-106721918D01*
X120385276Y-106705733D01*
X120628050Y-106673363D01*
X120757529Y-107579719D01*
G37*
G36*
X124399138Y-95295360D02*
G01*
X124172549Y-95538134D01*
X123120529Y-94550854D01*
X123347118Y-94308080D01*
X124399138Y-95295360D01*
G37*
G36*
X120838454Y-101947365D02*
G01*
X120773714Y-102271064D01*
X119365626Y-101963550D01*
X119430366Y-101639851D01*
X120838454Y-101947365D01*
G37*
G36*
X172326936Y-71119723D02*
G01*
X170886415Y-98520611D01*
X164250595Y-98172545D01*
X146328003Y-97232456D01*
X146469608Y-97437877D01*
X146607492Y-97645932D01*
X146741609Y-97856575D01*
X146871914Y-98069760D01*
X146998364Y-98285441D01*
X147120913Y-98503571D01*
X147239516Y-98724103D01*
X147354129Y-98946991D01*
X147464708Y-99172189D01*
X147571206Y-99399650D01*
X147673580Y-99629327D01*
X147771784Y-99861175D01*
X147865775Y-100095147D01*
X147955507Y-100331195D01*
X148040935Y-100569275D01*
X148122015Y-100809339D01*
X148198703Y-101051340D01*
X148270952Y-101295234D01*
X148338719Y-101540972D01*
X148401959Y-101788508D01*
X148460626Y-102037796D01*
X148514677Y-102288790D01*
X148564067Y-102541443D01*
X148608750Y-102795709D01*
X151058300Y-102581385D01*
X151865334Y-111804896D01*
X161092322Y-110997547D01*
X161900620Y-120236231D01*
X152661936Y-121044529D01*
X151854902Y-111821018D01*
X146654231Y-112276219D01*
X146520588Y-112481690D01*
X146383383Y-112684649D01*
X146242661Y-112885052D01*
X146098463Y-113082856D01*
X145950832Y-113278017D01*
X145799812Y-113470491D01*
X145645446Y-113660236D01*
X145487775Y-113847206D01*
X145326844Y-114031358D01*
X145162695Y-114212649D01*
X144995370Y-114391035D01*
X144824914Y-114566472D01*
X144651368Y-114738917D01*
X144474775Y-114908326D01*
X144295180Y-115074655D01*
X144112623Y-115237860D01*
X143927148Y-115397899D01*
X143738799Y-115554726D01*
X143547618Y-115708299D01*
X143353647Y-115858574D01*
X143156931Y-116005507D01*
X142957511Y-116149055D01*
X142755430Y-116289173D01*
X142550732Y-116425819D01*
X142343460Y-116558947D01*
X142133655Y-116688516D01*
X141921362Y-116814481D01*
X141706622Y-116936798D01*
X141489480Y-117055424D01*
X141269977Y-117170314D01*
X141048157Y-117281427D01*
X140824062Y-117388716D01*
X140597736Y-117492140D01*
X140369221Y-117591654D01*
X140138560Y-117687215D01*
X139905796Y-117778779D01*
X139670972Y-117866302D01*
X139434132Y-117949740D01*
X139195316Y-118029051D01*
X138954570Y-118104190D01*
X138711935Y-118175113D01*
X138467454Y-118241777D01*
X138221171Y-118304138D01*
X137973128Y-118362153D01*
X137723368Y-118415778D01*
X137471934Y-118464969D01*
X137218869Y-118509682D01*
X136964215Y-118549874D01*
X136708016Y-118585501D01*
X136450315Y-118616520D01*
X136191154Y-118642886D01*
X135930576Y-118664556D01*
X135668624Y-118681487D01*
X135405342Y-118693635D01*
X135140771Y-118700955D01*
X134891077Y-118703257D01*
X134874956Y-118703405D01*
X134622573Y-118701189D01*
X134371271Y-118694566D01*
X134121090Y-118683573D01*
X133872067Y-118668248D01*
X133624240Y-118648628D01*
X133377647Y-118624752D01*
X133132327Y-118596655D01*
X132888317Y-118564377D01*
X132645656Y-118527954D01*
X132404382Y-118487423D01*
X132164534Y-118442824D01*
X131926148Y-118394192D01*
X131689264Y-118341565D01*
X131453919Y-118284982D01*
X131220152Y-118224478D01*
X130988001Y-118160093D01*
X130757503Y-118091863D01*
X130528698Y-118019826D01*
X130301623Y-117944020D01*
X130076316Y-117864481D01*
X129852816Y-117781248D01*
X129631161Y-117694358D01*
X129411388Y-117603848D01*
X129193537Y-117509757D01*
X128977644Y-117412120D01*
X128763749Y-117310977D01*
X128551889Y-117206364D01*
X128342103Y-117098319D01*
X128134428Y-116986880D01*
X127928903Y-116872083D01*
X127725566Y-116753967D01*
X127524456Y-116632569D01*
X127325609Y-116507927D01*
X127129065Y-116380077D01*
X126934862Y-116249058D01*
X126743037Y-116114907D01*
X126553629Y-115977662D01*
X126366677Y-115837359D01*
X126182217Y-115694037D01*
X126000289Y-115547733D01*
X125820930Y-115398485D01*
X125644178Y-115246329D01*
X125470073Y-115091305D01*
X125298651Y-114933448D01*
X125129951Y-114772797D01*
X124964012Y-114609388D01*
X124800870Y-114443261D01*
X124640566Y-114274451D01*
X124483136Y-114102997D01*
X124328618Y-113928936D01*
X124177052Y-113752305D01*
X124028474Y-113573143D01*
X123882924Y-113391486D01*
X123740439Y-113207373D01*
X123601058Y-113020839D01*
X123464818Y-112831924D01*
X123331758Y-112640665D01*
X123201916Y-112447099D01*
X123075330Y-112251263D01*
X122952038Y-112053195D01*
X122832078Y-111852933D01*
X122715489Y-111650514D01*
X122602309Y-111445976D01*
X122492575Y-111239356D01*
X122386327Y-111030691D01*
X122283601Y-110820020D01*
X122184437Y-110607379D01*
X122088872Y-110392807D01*
X121996945Y-110176340D01*
X121908693Y-109958016D01*
X121824155Y-109737873D01*
X121743369Y-109515948D01*
X121666373Y-109292278D01*
X121593205Y-109066902D01*
X121523904Y-108839857D01*
X121458508Y-108611179D01*
X121397054Y-108380908D01*
X121339580Y-108149079D01*
X121286126Y-107915731D01*
X121236729Y-107680902D01*
X121191427Y-107444628D01*
X121150259Y-107206947D01*
X121113262Y-106967897D01*
X121080475Y-106727516D01*
X121051936Y-106485840D01*
X121027683Y-106242907D01*
X121007754Y-105998755D01*
X120992187Y-105753421D01*
X120981020Y-105506943D01*
X120974293Y-105259358D01*
X120972041Y-105010704D01*
X127996362Y-105010704D01*
X128000916Y-105258894D01*
X128014472Y-105504869D01*
X128036874Y-105748472D01*
X128067966Y-105989550D01*
X128107590Y-106227948D01*
X128155590Y-106463512D01*
X128211810Y-106696086D01*
X128276093Y-106925517D01*
X128348281Y-107151650D01*
X128428219Y-107374330D01*
X128515750Y-107593403D01*
X128610718Y-107808714D01*
X128712964Y-108020109D01*
X128822334Y-108227433D01*
X128938670Y-108430532D01*
X129061815Y-108629251D01*
X129191613Y-108823436D01*
X129327908Y-109012932D01*
X129470542Y-109197584D01*
X129619360Y-109377238D01*
X129774203Y-109551740D01*
X129934917Y-109720935D01*
X130101343Y-109884668D01*
X130273326Y-110042785D01*
X130450709Y-110195132D01*
X130633335Y-110341553D01*
X130821047Y-110481895D01*
X131013689Y-110616002D01*
X131211104Y-110743721D01*
X131413136Y-110864897D01*
X131619628Y-110979374D01*
X131830423Y-111086999D01*
X132045364Y-111187618D01*
X132264296Y-111281075D01*
X132487060Y-111367216D01*
X132713502Y-111445886D01*
X132943463Y-111516932D01*
X133176788Y-111580197D01*
X133413320Y-111635529D01*
X133652901Y-111682773D01*
X133895376Y-111721773D01*
X134140588Y-111752375D01*
X134388380Y-111774425D01*
X134638595Y-111787769D01*
X134891077Y-111792251D01*
X135143560Y-111787792D01*
X135393775Y-111774517D01*
X135641567Y-111752576D01*
X135886779Y-111722122D01*
X136129254Y-111683305D01*
X136368835Y-111636277D01*
X136605367Y-111581190D01*
X136838692Y-111518193D01*
X137068653Y-111447440D01*
X137295094Y-111369081D01*
X137517859Y-111283267D01*
X137736791Y-111190150D01*
X137951732Y-111089881D01*
X138162527Y-110982612D01*
X138369019Y-110868493D01*
X138571051Y-110747677D01*
X138768466Y-110620314D01*
X138961108Y-110486556D01*
X139148820Y-110346555D01*
X139331446Y-110200460D01*
X139508829Y-110048425D01*
X139680812Y-109890600D01*
X139847238Y-109727136D01*
X140007951Y-109558185D01*
X140162795Y-109383899D01*
X140311612Y-109204428D01*
X140454247Y-109019923D01*
X140590541Y-108830537D01*
X140720340Y-108636421D01*
X140843485Y-108437725D01*
X140959821Y-108234602D01*
X141069191Y-108027202D01*
X141171437Y-107815677D01*
X141266404Y-107600178D01*
X141353935Y-107380857D01*
X141433873Y-107157865D01*
X141506062Y-106931353D01*
X141570345Y-106701472D01*
X141626564Y-106468374D01*
X141674565Y-106232211D01*
X141714189Y-105993133D01*
X141745281Y-105751292D01*
X141767683Y-105506839D01*
X141781239Y-105259926D01*
X141785793Y-105010704D01*
X141781239Y-104762514D01*
X141767683Y-104516541D01*
X141745281Y-104272940D01*
X141714189Y-104031865D01*
X141674565Y-103793471D01*
X141626564Y-103557912D01*
X141570345Y-103325343D01*
X141506062Y-103095918D01*
X141433873Y-102869792D01*
X141353935Y-102647119D01*
X141266404Y-102428053D01*
X141171437Y-102212750D01*
X141069191Y-102001364D01*
X140959821Y-101794048D01*
X140843485Y-101590959D01*
X140720340Y-101392249D01*
X140590541Y-101198074D01*
X140454247Y-101008589D01*
X140311612Y-100823947D01*
X140162795Y-100644303D01*
X140007951Y-100469811D01*
X139847238Y-100300627D01*
X139680812Y-100136904D01*
X139508829Y-99978797D01*
X139331446Y-99826461D01*
X139148820Y-99680050D01*
X138961108Y-99539719D01*
X138768466Y-99405621D01*
X138571051Y-99277912D01*
X138369019Y-99156746D01*
X138162527Y-99042278D01*
X137951732Y-98934661D01*
X137736791Y-98834052D01*
X137517859Y-98740603D01*
X137295094Y-98654469D01*
X137068653Y-98575806D01*
X136838692Y-98504767D01*
X136605367Y-98441506D01*
X136368835Y-98386180D01*
X136129254Y-98338941D01*
X135886779Y-98299945D01*
X135641567Y-98269345D01*
X135393775Y-98247297D01*
X135143560Y-98233955D01*
X134891077Y-98229474D01*
X134638595Y-98233955D01*
X134388380Y-98247297D01*
X134140588Y-98269345D01*
X133895376Y-98299945D01*
X133652901Y-98338941D01*
X133413320Y-98386180D01*
X133176788Y-98441506D01*
X132943463Y-98504767D01*
X132713502Y-98575806D01*
X132487060Y-98654469D01*
X132264296Y-98740603D01*
X132045364Y-98834052D01*
X131830423Y-98934661D01*
X131619628Y-99042278D01*
X131413136Y-99156746D01*
X131211104Y-99277912D01*
X131013689Y-99405621D01*
X130821047Y-99539719D01*
X130633335Y-99680050D01*
X130450709Y-99826461D01*
X130273326Y-99978797D01*
X130101343Y-100136904D01*
X129934917Y-100300627D01*
X129774203Y-100469811D01*
X129619360Y-100644303D01*
X129470542Y-100823947D01*
X129327908Y-101008589D01*
X129191613Y-101198074D01*
X129061815Y-101392249D01*
X128938670Y-101590959D01*
X128822334Y-101794048D01*
X128712964Y-102001364D01*
X128610718Y-102212750D01*
X128515750Y-102428053D01*
X128428219Y-102647119D01*
X128348281Y-102869792D01*
X128276093Y-103095918D01*
X128211810Y-103325343D01*
X128155590Y-103557912D01*
X128107590Y-103793471D01*
X128067966Y-104031865D01*
X128036874Y-104272940D01*
X128014472Y-104516541D01*
X128000916Y-104762514D01*
X127996362Y-105010704D01*
X120972041Y-105010704D01*
X120974814Y-104761528D01*
X120982041Y-104513444D01*
X120993684Y-104266491D01*
X121009705Y-104020704D01*
X121030068Y-103776121D01*
X121054733Y-103532779D01*
X121083664Y-103290715D01*
X121116823Y-103049966D01*
X121154172Y-102810570D01*
X121195674Y-102572563D01*
X121241291Y-102335983D01*
X121290986Y-102100866D01*
X121344720Y-101867250D01*
X121402457Y-101635172D01*
X121464158Y-101404669D01*
X121529786Y-101175779D01*
X121599303Y-100948537D01*
X121672672Y-100722982D01*
X121749856Y-100499150D01*
X121830815Y-100277079D01*
X121915513Y-100056805D01*
X122003913Y-99838367D01*
X122095976Y-99621800D01*
X122191665Y-99407142D01*
X122290942Y-99194430D01*
X122393770Y-98983702D01*
X122500110Y-98774994D01*
X122609927Y-98568344D01*
X122723181Y-98363788D01*
X122839835Y-98161363D01*
X122959851Y-97961108D01*
X123083193Y-97763058D01*
X123209821Y-97567252D01*
X123339700Y-97373726D01*
X123472790Y-97182517D01*
X123609055Y-96993662D01*
X123748456Y-96807199D01*
X123890956Y-96623164D01*
X124036518Y-96441595D01*
X124185104Y-96262529D01*
X124336676Y-96086003D01*
X124491196Y-95912054D01*
X124648628Y-95740720D01*
X124808933Y-95572036D01*
X124972073Y-95406041D01*
X125138012Y-95242771D01*
X125306711Y-95082264D01*
X125478132Y-94924557D01*
X125652239Y-94769686D01*
X125828994Y-94617690D01*
X126008358Y-94468604D01*
X126190295Y-94322467D01*
X126374766Y-94179315D01*
X126561734Y-94039186D01*
X126751162Y-93902116D01*
X126943012Y-93768142D01*
X127137245Y-93637303D01*
X127333825Y-93509634D01*
X127532714Y-93385173D01*
X127733875Y-93263957D01*
X127937268Y-93146024D01*
X128142858Y-93031410D01*
X128350607Y-92920152D01*
X128560476Y-92812288D01*
X128772428Y-92707854D01*
X128986425Y-92606888D01*
X129202431Y-92509427D01*
X129420406Y-92415508D01*
X129640314Y-92325168D01*
X129862118Y-92238445D01*
X130085778Y-92155374D01*
X130311258Y-92075994D01*
X130538520Y-92000342D01*
X130767527Y-91928454D01*
X130998241Y-91860368D01*
X131230623Y-91796121D01*
X131464637Y-91735750D01*
X131700246Y-91679292D01*
X131937410Y-91626785D01*
X132176093Y-91578264D01*
X132416257Y-91533768D01*
X132657865Y-91493334D01*
X132900878Y-91456998D01*
X133145260Y-91424799D01*
X133390972Y-91396772D01*
X133637977Y-91372955D01*
X133886237Y-91353385D01*
X134135715Y-91338099D01*
X134386372Y-91327135D01*
X134638172Y-91320529D01*
X134891077Y-91318319D01*
X135160085Y-91320841D01*
X135427856Y-91328374D01*
X135694342Y-91340873D01*
X135959500Y-91358293D01*
X136223281Y-91380587D01*
X136485642Y-91407710D01*
X136746535Y-91439616D01*
X137005915Y-91476258D01*
X137263737Y-91517592D01*
X137519953Y-91563571D01*
X137774519Y-91614150D01*
X138027389Y-91669282D01*
X138278516Y-91728922D01*
X138527855Y-91793024D01*
X138775359Y-91861542D01*
X139020984Y-91934431D01*
X139264682Y-92011644D01*
X139506409Y-92093136D01*
X139746118Y-92178861D01*
X139983763Y-92268772D01*
X140219300Y-92362825D01*
X140452680Y-92460973D01*
X140683860Y-92563171D01*
X140912792Y-92669373D01*
X141139432Y-92779532D01*
X141363733Y-92893603D01*
X141585649Y-93011541D01*
X141805134Y-93133298D01*
X142022143Y-93258831D01*
X142236630Y-93388092D01*
X142448548Y-93521036D01*
X142657852Y-93657617D01*
X142864496Y-93797789D01*
X143068435Y-93941507D01*
X143269622Y-94088724D01*
X143457727Y-90509073D01*
X150477287Y-90509073D01*
X164250595Y-91237395D01*
X164962795Y-77658179D01*
X151189171Y-76929857D01*
X150477287Y-90509073D01*
X143457727Y-90509073D01*
X143752957Y-84890817D01*
X143519552Y-84805831D01*
X143288115Y-84716817D01*
X143058688Y-84623816D01*
X142831312Y-84526872D01*
X142606032Y-84426027D01*
X142382889Y-84321324D01*
X142161925Y-84212804D01*
X141943183Y-84100510D01*
X141726705Y-83984485D01*
X141512535Y-83864771D01*
X141300713Y-83741411D01*
X141091283Y-83614446D01*
X140884288Y-83483920D01*
X140679768Y-83349875D01*
X140477768Y-83212353D01*
X140278329Y-83071396D01*
X140081494Y-82927048D01*
X139887305Y-82779350D01*
X139695805Y-82628346D01*
X139507036Y-82474076D01*
X139321040Y-82316585D01*
X139137861Y-82155913D01*
X138957539Y-81992105D01*
X138780119Y-81825201D01*
X138605642Y-81655245D01*
X138434150Y-81482279D01*
X138265686Y-81306346D01*
X138100293Y-81127487D01*
X137938013Y-80945745D01*
X137778888Y-80761164D01*
X137622961Y-80573784D01*
X137470274Y-80383649D01*
X137320870Y-80190801D01*
X137174790Y-79995282D01*
X137032079Y-79797136D01*
X136892777Y-79596403D01*
X136756927Y-79393127D01*
X136624572Y-79187351D01*
X136495755Y-78979116D01*
X136370517Y-78768465D01*
X136248901Y-78555440D01*
X136130949Y-78340085D01*
X136016705Y-78122440D01*
X135906210Y-77902550D01*
X135799506Y-77680455D01*
X135696637Y-77456199D01*
X135597644Y-77229825D01*
X135502570Y-77001373D01*
X135411458Y-76770888D01*
X135324350Y-76538411D01*
X135241287Y-76303984D01*
X135162314Y-76067651D01*
X135087472Y-75829454D01*
X135016803Y-75589434D01*
X134950351Y-75347635D01*
X134888156Y-75104099D01*
X134830263Y-74858868D01*
X134776713Y-74611985D01*
X134727549Y-74363493D01*
X134682813Y-74113433D01*
X134642547Y-73861847D01*
X134606795Y-73608780D01*
X134575597Y-73354272D01*
X134548998Y-73098367D01*
X134527039Y-72841107D01*
X134509763Y-72582534D01*
X134497212Y-72322690D01*
X134489428Y-72061619D01*
X134486454Y-71799362D01*
X134535135Y-71799362D01*
X134804309Y-71801924D01*
X135072224Y-71809579D01*
X135338835Y-71822280D01*
X135604096Y-71839981D01*
X135867961Y-71862636D01*
X136130385Y-71890198D01*
X136391322Y-71922621D01*
X136650727Y-71959858D01*
X136908553Y-72001862D01*
X137164755Y-72048588D01*
X137419289Y-72099989D01*
X137672107Y-72156018D01*
X137923164Y-72216629D01*
X138172415Y-72281775D01*
X138419814Y-72351411D01*
X138665316Y-72425489D01*
X138908874Y-72503963D01*
X139150444Y-72586786D01*
X139389979Y-72673913D01*
X139627434Y-72765297D01*
X139862763Y-72860890D01*
X140095921Y-72960648D01*
X140326862Y-73064523D01*
X140555540Y-73172469D01*
X140781910Y-73284439D01*
X141005926Y-73400388D01*
X141227542Y-73520268D01*
X141446713Y-73644033D01*
X141663394Y-73771636D01*
X141877538Y-73903032D01*
X142089100Y-74038174D01*
X142298034Y-74177015D01*
X142504295Y-74319508D01*
X142707837Y-74465609D01*
X142908614Y-74615269D01*
X143106582Y-74768442D01*
X143301693Y-74925082D01*
X143493903Y-75085143D01*
X143683165Y-75248579D01*
X143869435Y-75415341D01*
X144052667Y-75585385D01*
X144232814Y-75758664D01*
X144553352Y-69663079D01*
X172326936Y-71119723D01*
G37*
G36*
X148387167Y-58113667D02*
G01*
X148380594Y-58362079D01*
X148369682Y-58609398D01*
X148354471Y-58855588D01*
X148334995Y-59100610D01*
X148311293Y-59344429D01*
X148283400Y-59587008D01*
X148251354Y-59828310D01*
X148215192Y-60068299D01*
X148174951Y-60306938D01*
X148130666Y-60544189D01*
X148082376Y-60780018D01*
X148030116Y-61014385D01*
X147973925Y-61247256D01*
X147913838Y-61478593D01*
X147849892Y-61708360D01*
X147782125Y-61936520D01*
X147710573Y-62163035D01*
X147635273Y-62387870D01*
X147556262Y-62610988D01*
X147473576Y-62832352D01*
X147387253Y-63051925D01*
X147297329Y-63269671D01*
X147203842Y-63485553D01*
X147106827Y-63699534D01*
X147006323Y-63911577D01*
X146902365Y-64121646D01*
X146794990Y-64329704D01*
X146684236Y-64535715D01*
X146570139Y-64739641D01*
X146452737Y-64941447D01*
X146332065Y-65141094D01*
X146208161Y-65338547D01*
X146081061Y-65533769D01*
X145950803Y-65726723D01*
X145817423Y-65917372D01*
X145680959Y-66105680D01*
X145541446Y-66291610D01*
X145398922Y-66475125D01*
X145253423Y-66656189D01*
X145104987Y-66834765D01*
X144953651Y-67010815D01*
X144799450Y-67184305D01*
X144642423Y-67355196D01*
X144482605Y-67523452D01*
X144320034Y-67689036D01*
X144154746Y-67851912D01*
X143986779Y-68012043D01*
X143816169Y-68169392D01*
X143642953Y-68323922D01*
X143467168Y-68475598D01*
X143288850Y-68624381D01*
X143108037Y-68770236D01*
X142924766Y-68913125D01*
X142739072Y-69053012D01*
X142550994Y-69189861D01*
X142360568Y-69323634D01*
X142167830Y-69454295D01*
X141972818Y-69581807D01*
X141775568Y-69706133D01*
X141576118Y-69827237D01*
X141374503Y-69945082D01*
X141170762Y-70059632D01*
X140964930Y-70170849D01*
X140757045Y-70278696D01*
X140547143Y-70383138D01*
X140335262Y-70484138D01*
X140121437Y-70581658D01*
X139905707Y-70675662D01*
X139688108Y-70766113D01*
X139468676Y-70852975D01*
X139247448Y-70936211D01*
X139024462Y-71015784D01*
X138799754Y-71091658D01*
X138573361Y-71163795D01*
X138345320Y-71232160D01*
X138115668Y-71296715D01*
X137884441Y-71357423D01*
X137651677Y-71414248D01*
X137417411Y-71467154D01*
X137181682Y-71516103D01*
X136944526Y-71561059D01*
X136705979Y-71601985D01*
X136466079Y-71638845D01*
X136224862Y-71671601D01*
X135982366Y-71700217D01*
X135738626Y-71724656D01*
X135493681Y-71744882D01*
X135247566Y-71760858D01*
X135000319Y-71772547D01*
X134751976Y-71779913D01*
X134502574Y-71782918D01*
X134502574Y-71783241D01*
X134486454Y-71783241D01*
X134236810Y-71781039D01*
X133988223Y-71774456D01*
X133740731Y-71763530D01*
X133494371Y-71748297D01*
X133249179Y-71728795D01*
X133005194Y-71705060D01*
X132762450Y-71677129D01*
X132520986Y-71645039D01*
X132280839Y-71608827D01*
X132042044Y-71568531D01*
X131804640Y-71524186D01*
X131568663Y-71475830D01*
X131334150Y-71423499D01*
X131101138Y-71367232D01*
X130869664Y-71307064D01*
X130639764Y-71243032D01*
X130411476Y-71175174D01*
X130184837Y-71103526D01*
X129959883Y-71028125D01*
X129736652Y-70949009D01*
X129515180Y-70866213D01*
X129295504Y-70779775D01*
X129077662Y-70689733D01*
X128861689Y-70596122D01*
X128647624Y-70498979D01*
X128435502Y-70398343D01*
X128225361Y-70294249D01*
X128017238Y-70186734D01*
X127811170Y-70075836D01*
X127607193Y-69961591D01*
X127405345Y-69844036D01*
X127205662Y-69723209D01*
X127008181Y-69599145D01*
X126812940Y-69471882D01*
X126619975Y-69341458D01*
X126429323Y-69207908D01*
X126241020Y-69071269D01*
X126055105Y-68931580D01*
X125871614Y-68788875D01*
X125690583Y-68643194D01*
X125512050Y-68494571D01*
X125336052Y-68343045D01*
X125162625Y-68188652D01*
X124991806Y-68031429D01*
X124823633Y-67871414D01*
X124658142Y-67708642D01*
X124495370Y-67543151D01*
X124335354Y-67374978D01*
X124178131Y-67204159D01*
X124023738Y-67030732D01*
X123872212Y-66854734D01*
X123723590Y-66676201D01*
X123577908Y-66495170D01*
X123435204Y-66311679D01*
X123295514Y-66125763D01*
X123158876Y-65937461D01*
X123025326Y-65746809D01*
X122894901Y-65553844D01*
X122767638Y-65358603D01*
X122643574Y-65161122D01*
X122522747Y-64961439D01*
X122405192Y-64759591D01*
X122290947Y-64555614D01*
X122180048Y-64349545D01*
X122072534Y-64141422D01*
X121968440Y-63931281D01*
X121867803Y-63719160D01*
X121770661Y-63505094D01*
X121677050Y-63289122D01*
X121587007Y-63071279D01*
X121500569Y-62851603D01*
X121417774Y-62630131D01*
X121338657Y-62406900D01*
X121263256Y-62181946D01*
X121191608Y-61955306D01*
X121123750Y-61727018D01*
X121059718Y-61497119D01*
X120999550Y-61265644D01*
X120943282Y-61032632D01*
X120890952Y-60798119D01*
X120842596Y-60562142D01*
X120798251Y-60324737D01*
X120757954Y-60085943D01*
X120721743Y-59845795D01*
X120689653Y-59604331D01*
X120661722Y-59361587D01*
X120637987Y-59117601D01*
X120618485Y-58872410D01*
X120603252Y-58626049D01*
X120592325Y-58378557D01*
X120585743Y-58129970D01*
X120583540Y-57880325D01*
X120834640Y-57883610D01*
X121084695Y-57891310D01*
X121333668Y-57903388D01*
X121581521Y-57919808D01*
X121828214Y-57940531D01*
X122073710Y-57965520D01*
X122317970Y-57994738D01*
X122560955Y-58028147D01*
X122802629Y-58065709D01*
X123042951Y-58107389D01*
X123281884Y-58153147D01*
X123519389Y-58202946D01*
X123755428Y-58256750D01*
X123989963Y-58314520D01*
X124222955Y-58376220D01*
X124454366Y-58441811D01*
X124684157Y-58511256D01*
X124912291Y-58584519D01*
X125138728Y-58661561D01*
X125363431Y-58742345D01*
X125586361Y-58826833D01*
X125807479Y-58914989D01*
X126026748Y-59006774D01*
X126244129Y-59102152D01*
X126459584Y-59201084D01*
X126673074Y-59303534D01*
X126884561Y-59409464D01*
X127094006Y-59518837D01*
X127301372Y-59631615D01*
X127506619Y-59747760D01*
X127709710Y-59867236D01*
X127910606Y-59990004D01*
X128109268Y-60116028D01*
X128305659Y-60245270D01*
X128499740Y-60377692D01*
X128691473Y-60513258D01*
X128880819Y-60651929D01*
X129067740Y-60793668D01*
X129252198Y-60938438D01*
X129434153Y-61086202D01*
X129613569Y-61236921D01*
X129790406Y-61390559D01*
X129964626Y-61547078D01*
X130136191Y-61706441D01*
X130305062Y-61868610D01*
X130471201Y-62033548D01*
X130634570Y-62201217D01*
X130795131Y-62371580D01*
X130952844Y-62544599D01*
X131107672Y-62720237D01*
X131259576Y-62898457D01*
X131408518Y-63079221D01*
X131554459Y-63262492D01*
X131697362Y-63448233D01*
X131837187Y-63636405D01*
X131973897Y-63826971D01*
X132107453Y-64019895D01*
X132237817Y-64215138D01*
X132364950Y-64412663D01*
X132488813Y-64612433D01*
X132609370Y-64814410D01*
X132726581Y-65018557D01*
X132840407Y-65224837D01*
X132950811Y-65433211D01*
X133057755Y-65643643D01*
X133161199Y-65856095D01*
X133261105Y-66070530D01*
X133357436Y-66286910D01*
X133450152Y-66505198D01*
X133539216Y-66725356D01*
X133624589Y-66947347D01*
X133706232Y-67171134D01*
X133784108Y-67396679D01*
X133858177Y-67623944D01*
X133928402Y-67852893D01*
X133994744Y-68083487D01*
X134057165Y-68315690D01*
X134115627Y-68549463D01*
X134170091Y-68784770D01*
X134220518Y-69021574D01*
X134266871Y-69259835D01*
X134309110Y-69499518D01*
X134347199Y-69740585D01*
X134381097Y-69982998D01*
X134410768Y-70226720D01*
X134436172Y-70471713D01*
X134457272Y-70717940D01*
X134474028Y-70965364D01*
X134486403Y-71213947D01*
X134494357Y-71463652D01*
X134502242Y-71213407D01*
X134514514Y-70964285D01*
X134531136Y-70716322D01*
X134552071Y-70469556D01*
X134577280Y-70224027D01*
X134606728Y-69979770D01*
X134640376Y-69736823D01*
X134678186Y-69495226D01*
X134720121Y-69255014D01*
X134766145Y-69016226D01*
X134816218Y-68778899D01*
X134870304Y-68543072D01*
X134928366Y-68308781D01*
X134990365Y-68076065D01*
X135056265Y-67844961D01*
X135126028Y-67615508D01*
X135199616Y-67387741D01*
X135276991Y-67161700D01*
X135358118Y-66937422D01*
X135442957Y-66714945D01*
X135531472Y-66494306D01*
X135623625Y-66275543D01*
X135719378Y-66058694D01*
X135818694Y-65843797D01*
X135921536Y-65630888D01*
X136027866Y-65420007D01*
X136137647Y-65211189D01*
X136250840Y-65004475D01*
X136367410Y-64799900D01*
X136487317Y-64597502D01*
X136610526Y-64397320D01*
X136736997Y-64199391D01*
X136866694Y-64003753D01*
X136999580Y-63810443D01*
X137135616Y-63619499D01*
X137274766Y-63430959D01*
X137416991Y-63244860D01*
X137562255Y-63061241D01*
X137710520Y-62880138D01*
X137861748Y-62701590D01*
X138015902Y-62525634D01*
X138172945Y-62352308D01*
X138332838Y-62181649D01*
X138495545Y-62013696D01*
X138661028Y-61848486D01*
X138829250Y-61686056D01*
X139000172Y-61526445D01*
X139173758Y-61369690D01*
X139349971Y-61215829D01*
X139528772Y-61064899D01*
X139710124Y-60916939D01*
X139893989Y-60771985D01*
X140080331Y-60630075D01*
X140269112Y-60491248D01*
X140460294Y-60355541D01*
X140653840Y-60222992D01*
X140849712Y-60093637D01*
X141047873Y-59967516D01*
X141248285Y-59844666D01*
X141450911Y-59725123D01*
X141655713Y-59608927D01*
X141862654Y-59496115D01*
X142071697Y-59386724D01*
X142282804Y-59280792D01*
X142495937Y-59178357D01*
X142711059Y-59079457D01*
X142928133Y-58984129D01*
X143147120Y-58892410D01*
X143367985Y-58804340D01*
X143590688Y-58719954D01*
X143815193Y-58639292D01*
X144041462Y-58562390D01*
X144269458Y-58489287D01*
X144499142Y-58420020D01*
X144730479Y-58354626D01*
X144963430Y-58293144D01*
X145197957Y-58235611D01*
X145434024Y-58182065D01*
X145671593Y-58132543D01*
X145910626Y-58087084D01*
X146151085Y-58045725D01*
X146392934Y-58008503D01*
X146636135Y-57975456D01*
X146880651Y-57946623D01*
X147126443Y-57922040D01*
X147373475Y-57901745D01*
X147621708Y-57885777D01*
X147871107Y-57874172D01*
X148121632Y-57866969D01*
X148373247Y-57864205D01*
X148389367Y-57864199D01*
X148387167Y-58113667D01*
G37*
G36*
X134484252Y-72049001D02*
G01*
X134477669Y-72297571D01*
X134466742Y-72545036D01*
X134451509Y-72791358D01*
X134432005Y-73036501D01*
X134408269Y-73280428D01*
X134380335Y-73523103D01*
X134348243Y-73764488D01*
X134312027Y-74004548D01*
X134271725Y-74243245D01*
X134227374Y-74480543D01*
X134179010Y-74716406D01*
X134126670Y-74950796D01*
X134070392Y-75183676D01*
X134010211Y-75415011D01*
X133946165Y-75644764D01*
X133878290Y-75872897D01*
X133806624Y-76099375D01*
X133731203Y-76324160D01*
X133652063Y-76547216D01*
X133569242Y-76768506D01*
X133482776Y-76987993D01*
X133392703Y-77205642D01*
X133299058Y-77421414D01*
X133201879Y-77635275D01*
X133101203Y-77847186D01*
X132997066Y-78057111D01*
X132889505Y-78265014D01*
X132778557Y-78470857D01*
X132664259Y-78674605D01*
X132546647Y-78876220D01*
X132425759Y-79075667D01*
X132301630Y-79272907D01*
X132174298Y-79467905D01*
X132043800Y-79660624D01*
X131910173Y-79851027D01*
X131773452Y-80039077D01*
X131633676Y-80224738D01*
X131490880Y-80407974D01*
X131345102Y-80588747D01*
X131196379Y-80767021D01*
X131044746Y-80942759D01*
X130890242Y-81115924D01*
X130732902Y-81286481D01*
X130572764Y-81454392D01*
X130409864Y-81619620D01*
X130244239Y-81782129D01*
X130075926Y-81941882D01*
X129904962Y-82098843D01*
X129731383Y-82252974D01*
X129555227Y-82404240D01*
X129376530Y-82552603D01*
X129195328Y-82698027D01*
X129011659Y-82840475D01*
X128825560Y-82979911D01*
X128637067Y-83116298D01*
X128446217Y-83249599D01*
X128253046Y-83379777D01*
X128057593Y-83506796D01*
X127859892Y-83630619D01*
X127659982Y-83751210D01*
X127457899Y-83868532D01*
X127253679Y-83982548D01*
X127047360Y-84093221D01*
X126838979Y-84200515D01*
X126628571Y-84304394D01*
X126416175Y-84404820D01*
X126201826Y-84501756D01*
X125985561Y-84595167D01*
X125767418Y-84685016D01*
X125547433Y-84771265D01*
X125325643Y-84853878D01*
X125102085Y-84932819D01*
X124876795Y-85008051D01*
X124649810Y-85079537D01*
X124421167Y-85147240D01*
X124190903Y-85211125D01*
X123959055Y-85271153D01*
X123725659Y-85327289D01*
X123490752Y-85379496D01*
X123254371Y-85427737D01*
X123016553Y-85471975D01*
X122777335Y-85512175D01*
X122536752Y-85548298D01*
X122294843Y-85580309D01*
X122051644Y-85608171D01*
X121807192Y-85631847D01*
X121561523Y-85651300D01*
X121314674Y-85666495D01*
X121066683Y-85677393D01*
X120817585Y-85683959D01*
X120567418Y-85686156D01*
X120569632Y-85436522D01*
X120576249Y-85187969D01*
X120587230Y-84940532D01*
X120602539Y-84694247D01*
X120622138Y-84449152D01*
X120645990Y-84205283D01*
X120674057Y-83962674D01*
X120706300Y-83721364D01*
X120742684Y-83481389D01*
X120783170Y-83242784D01*
X120827721Y-83005585D01*
X120876299Y-82769830D01*
X120928867Y-82535554D01*
X120985387Y-82302794D01*
X121045822Y-82071587D01*
X121110134Y-81841967D01*
X121178285Y-81613972D01*
X121250239Y-81387638D01*
X121325956Y-81163001D01*
X121405401Y-80940098D01*
X121488535Y-80718964D01*
X121575321Y-80499637D01*
X121665722Y-80282152D01*
X121759699Y-80066545D01*
X121857215Y-79852854D01*
X121958234Y-79641114D01*
X122062716Y-79431361D01*
X122170625Y-79223633D01*
X122281923Y-79017964D01*
X122396572Y-78814392D01*
X122514536Y-78612952D01*
X122635776Y-78413682D01*
X122760255Y-78216617D01*
X122887936Y-78021793D01*
X123018780Y-77829248D01*
X123152751Y-77639016D01*
X123289810Y-77451135D01*
X123429921Y-77265641D01*
X123573045Y-77082570D01*
X123719146Y-76901959D01*
X123868185Y-76723842D01*
X124020126Y-76548258D01*
X124174929Y-76375242D01*
X124332559Y-76204831D01*
X124492978Y-76037061D01*
X124656147Y-75871967D01*
X124822030Y-75709587D01*
X124990589Y-75549957D01*
X125161786Y-75393113D01*
X125335584Y-75239091D01*
X125511945Y-75087927D01*
X125690831Y-74939659D01*
X125872206Y-74794322D01*
X126056032Y-74651952D01*
X126242271Y-74512586D01*
X126430885Y-74376259D01*
X126621837Y-74243010D01*
X126815090Y-74112873D01*
X127010606Y-73985884D01*
X127208347Y-73862082D01*
X127408276Y-73741500D01*
X127610355Y-73624176D01*
X127814548Y-73510147D01*
X128020815Y-73399448D01*
X128229120Y-73292115D01*
X128439425Y-73188186D01*
X128651693Y-73087696D01*
X128865887Y-72990681D01*
X129081967Y-72897178D01*
X129299898Y-72807224D01*
X129519641Y-72720854D01*
X129741159Y-72638104D01*
X129964415Y-72559012D01*
X130189370Y-72483613D01*
X130415988Y-72411943D01*
X130644231Y-72344040D01*
X130874061Y-72279938D01*
X131105440Y-72219676D01*
X131338332Y-72163287D01*
X131572698Y-72110810D01*
X131808502Y-72062281D01*
X132045705Y-72017735D01*
X132284270Y-71977209D01*
X132524160Y-71940739D01*
X132765336Y-71908362D01*
X133007762Y-71880114D01*
X133251400Y-71856030D01*
X133496213Y-71836149D01*
X133742162Y-71820505D01*
X133989210Y-71809135D01*
X134237320Y-71802075D01*
X134486454Y-71799362D01*
X134484252Y-72049001D01*
G37*
G36*
X153469917Y-130287638D02*
G01*
X144231233Y-131095938D01*
X143422935Y-121857252D01*
X152661619Y-121048954D01*
X153469917Y-130287638D01*
G37*
G36*
X170332586Y-110200628D02*
G01*
X161093902Y-111008926D01*
X160285604Y-101770242D01*
X169524288Y-100961944D01*
X170332586Y-110200628D01*
G37*
G36*
X171952344Y-128666617D02*
G01*
X162713660Y-129474915D01*
X161905362Y-120236231D01*
X171144046Y-119427933D01*
X171952344Y-128666617D01*
G37*
%TD*%
M02*
