%TF.GenerationSoftware,KiCad,Pcbnew,7.0.10*%
%TF.CreationDate,2024-05-13T16:35:14+02:00*%
%TF.ProjectId,MINT-Labs,4d494e54-2d4c-4616-9273-2e6b69636164,rev?*%
%TF.SameCoordinates,Original*%
%TF.FileFunction,Profile,NP*%
%FSLAX46Y46*%
G04 Gerber Fmt 4.6, Leading zero omitted, Abs format (unit mm)*
G04 Created by KiCad (PCBNEW 7.0.10) date 2024-05-13 16:35:14*
%MOMM*%
%LPD*%
G01*
G04 APERTURE LIST*
%TA.AperFunction,Profile*%
%ADD10C,0.000010*%
%TD*%
G04 APERTURE END LIST*
%TO.C,die_lustigen_vier*%
D10*
X119028072Y-55004651D02*
X119249968Y-55006864D01*
X119494278Y-55008482D01*
X119754592Y-55009874D01*
X120024499Y-55011407D01*
X120297589Y-55013450D01*
X120567451Y-55016373D01*
X120827674Y-55020544D01*
X121071850Y-55026332D01*
X121293566Y-55034106D01*
X121540586Y-55046247D01*
X121787419Y-55061600D01*
X122034017Y-55080185D01*
X122280334Y-55102025D01*
X122526324Y-55127140D01*
X122771939Y-55155552D01*
X123017133Y-55187283D01*
X123261859Y-55222353D01*
X123506070Y-55260785D01*
X123749720Y-55302599D01*
X123992762Y-55347817D01*
X124235149Y-55396461D01*
X124476835Y-55448552D01*
X124692834Y-55499155D01*
X124929642Y-55558983D01*
X125181068Y-55626239D01*
X125440920Y-55699128D01*
X125703005Y-55775853D01*
X125961131Y-55854620D01*
X126209105Y-55933631D01*
X126440736Y-56011091D01*
X126649830Y-56085205D01*
X126892349Y-56176352D01*
X127133402Y-56271240D01*
X127372945Y-56369832D01*
X127610930Y-56472094D01*
X127847313Y-56577987D01*
X128082047Y-56687477D01*
X128315087Y-56800527D01*
X128546388Y-56917101D01*
X128775902Y-57037162D01*
X129003586Y-57160674D01*
X129229392Y-57287602D01*
X129453275Y-57417908D01*
X129675190Y-57551557D01*
X129895091Y-57688513D01*
X130112931Y-57828738D01*
X130328666Y-57972198D01*
X130542249Y-58118856D01*
X130753635Y-58268675D01*
X130962778Y-58421619D01*
X131169632Y-58577652D01*
X131374152Y-58736739D01*
X131576292Y-58898842D01*
X131776005Y-59063925D01*
X131973247Y-59231953D01*
X132167972Y-59402888D01*
X132360133Y-59576696D01*
X132549685Y-59753339D01*
X132736583Y-59932781D01*
X132920780Y-60114987D01*
X133102231Y-60299919D01*
X133280891Y-60487543D01*
X133456713Y-60677820D01*
X133629651Y-60870716D01*
X133799660Y-61066194D01*
X133966695Y-61264218D01*
X134148451Y-61440964D01*
X134346676Y-61558712D01*
X134554735Y-61617453D01*
X134765997Y-61617177D01*
X134973826Y-61557874D01*
X135171591Y-61439536D01*
X135352657Y-61262151D01*
X135505344Y-61079454D01*
X135660525Y-60898897D01*
X135818168Y-60720496D01*
X135978244Y-60544264D01*
X136140722Y-60370214D01*
X136294887Y-60210692D01*
X136467580Y-60037985D01*
X136654097Y-59856498D01*
X136849732Y-59670633D01*
X137049783Y-59484793D01*
X137249545Y-59303380D01*
X137444313Y-59130799D01*
X137629384Y-58971452D01*
X137800052Y-58829741D01*
X138001396Y-58668865D01*
X138205189Y-58511121D01*
X138411377Y-58356534D01*
X138619906Y-58205127D01*
X138830722Y-58056921D01*
X139043771Y-57911941D01*
X139259000Y-57770210D01*
X139476354Y-57631750D01*
X139695780Y-57496585D01*
X139917223Y-57364737D01*
X140140630Y-57236230D01*
X140365946Y-57111087D01*
X140593118Y-56989331D01*
X140822093Y-56870984D01*
X141052815Y-56756071D01*
X141285231Y-56644613D01*
X141519287Y-56536635D01*
X141754929Y-56432159D01*
X141992104Y-56331208D01*
X142230757Y-56233805D01*
X142470834Y-56139973D01*
X142712282Y-56049736D01*
X142955047Y-55963116D01*
X143199074Y-55880137D01*
X143444310Y-55800821D01*
X143690700Y-55725192D01*
X143938192Y-55653272D01*
X144186730Y-55585085D01*
X144436262Y-55520654D01*
X144686732Y-55460002D01*
X144938088Y-55403151D01*
X145190275Y-55350126D01*
X145443240Y-55300948D01*
X145696928Y-55255641D01*
X145951285Y-55214229D01*
X146206258Y-55176734D01*
X146426300Y-55148844D01*
X146669064Y-55122837D01*
X146928120Y-55098962D01*
X147197038Y-55077469D01*
X147469389Y-55058607D01*
X147738742Y-55042626D01*
X147998668Y-55029777D01*
X148242737Y-55020308D01*
X148464518Y-55014470D01*
X148712027Y-55010615D01*
X148959568Y-55008218D01*
X149207135Y-55006999D01*
X149454723Y-55006678D01*
X149702328Y-55006977D01*
X149949943Y-55007616D01*
X150197565Y-55008317D01*
X150445187Y-55008799D01*
X150692805Y-55008784D01*
X150920943Y-55030936D01*
X151133100Y-55095229D01*
X151324793Y-55197407D01*
X151491538Y-55333212D01*
X151628850Y-55498389D01*
X151732246Y-55688680D01*
X151797241Y-55899830D01*
X151819352Y-56127580D01*
X151818525Y-56366445D01*
X151817686Y-56605330D01*
X151816775Y-56844214D01*
X151815735Y-57083077D01*
X151814792Y-57304991D01*
X151813693Y-57549322D01*
X151812089Y-57809649D01*
X151809632Y-58079554D01*
X151805972Y-58352616D01*
X151800761Y-58622417D01*
X151793649Y-58882537D01*
X151784287Y-59126556D01*
X151772327Y-59348055D01*
X151753672Y-59606917D01*
X151731017Y-59865445D01*
X151704381Y-60123583D01*
X151673783Y-60381275D01*
X151639243Y-60638465D01*
X151600780Y-60895097D01*
X151558412Y-61151115D01*
X151512160Y-61406463D01*
X151462041Y-61661084D01*
X151408077Y-61914923D01*
X151350285Y-62167924D01*
X151288685Y-62420031D01*
X151223295Y-62671187D01*
X151154137Y-62921336D01*
X151081227Y-63170423D01*
X151004587Y-63418391D01*
X150924234Y-63665184D01*
X150840188Y-63910747D01*
X150752468Y-64155022D01*
X150661094Y-64397955D01*
X150566085Y-64639489D01*
X150467459Y-64879568D01*
X150365236Y-65118135D01*
X150259436Y-65355136D01*
X150150077Y-65590513D01*
X150037179Y-65824211D01*
X149920760Y-66056173D01*
X149830542Y-66287994D01*
X149802351Y-66502187D01*
X149833654Y-66692966D01*
X149921918Y-66854546D01*
X150064611Y-66981141D01*
X150259200Y-67066967D01*
X150503154Y-67106238D01*
X150767007Y-67120096D01*
X151030860Y-67133954D01*
X151294712Y-67147811D01*
X151558565Y-67161669D01*
X151822418Y-67175526D01*
X152086272Y-67189383D01*
X152350125Y-67203240D01*
X152613978Y-67217097D01*
X152877831Y-67230954D01*
X153141684Y-67244810D01*
X153405537Y-67258667D01*
X153669390Y-67272523D01*
X153933243Y-67286380D01*
X154197096Y-67300236D01*
X154460949Y-67314092D01*
X154724802Y-67327948D01*
X154988656Y-67341804D01*
X155252509Y-67355660D01*
X155516362Y-67369516D01*
X155780215Y-67383372D01*
X156044068Y-67397227D01*
X156307921Y-67411083D01*
X156571775Y-67424939D01*
X156835628Y-67438794D01*
X157099481Y-67452650D01*
X157363334Y-67466505D01*
X157627187Y-67480361D01*
X157891041Y-67494216D01*
X158154894Y-67508072D01*
X158418747Y-67521927D01*
X158682600Y-67535782D01*
X158946454Y-67549638D01*
X159210307Y-67563493D01*
X159474160Y-67577348D01*
X159738013Y-67591203D01*
X160001867Y-67605059D01*
X160265720Y-67618914D01*
X160529573Y-67632769D01*
X160793427Y-67646625D01*
X161057280Y-67660480D01*
X161321133Y-67674335D01*
X161584986Y-67688191D01*
X161848840Y-67702046D01*
X162112693Y-67715902D01*
X162376546Y-67729757D01*
X162640399Y-67743613D01*
X162904253Y-67757468D01*
X163168106Y-67771324D01*
X163431959Y-67785180D01*
X163695812Y-67799036D01*
X163959666Y-67812892D01*
X164223519Y-67826747D01*
X164487372Y-67840604D01*
X164751225Y-67854460D01*
X165015079Y-67868316D01*
X165278932Y-67882172D01*
X165542785Y-67896028D01*
X165806638Y-67909885D01*
X166070492Y-67923742D01*
X166334345Y-67937598D01*
X166598198Y-67951455D01*
X166862051Y-67965312D01*
X167125904Y-67979169D01*
X167389758Y-67993026D01*
X167653611Y-68006883D01*
X167917464Y-68020741D01*
X168181317Y-68034598D01*
X168445170Y-68048456D01*
X168709023Y-68062314D01*
X168972876Y-68076172D01*
X169236730Y-68090030D01*
X169500583Y-68103888D01*
X169764436Y-68117747D01*
X170028289Y-68131606D01*
X170292142Y-68145464D01*
X170555995Y-68159323D01*
X170819848Y-68173183D01*
X171083701Y-68187042D01*
X171347554Y-68200902D01*
X171611407Y-68214761D01*
X171875260Y-68228621D01*
X172139113Y-68242482D01*
X172402966Y-68256342D01*
X172666819Y-68270203D01*
X172930672Y-68284063D01*
X173194525Y-68297924D01*
X173458377Y-68311786D01*
X173722230Y-68325647D01*
X173986083Y-68339509D01*
X174249936Y-68353371D01*
X174513789Y-68367233D01*
X174777642Y-68381096D01*
X175004460Y-68416075D01*
X175213404Y-68493192D01*
X175400156Y-68607653D01*
X175560399Y-68754660D01*
X175689814Y-68929418D01*
X175784086Y-69127131D01*
X175838896Y-69343003D01*
X175849927Y-69572238D01*
X175836155Y-69834652D01*
X175822382Y-70097066D01*
X175808609Y-70359480D01*
X175794835Y-70621894D01*
X175781061Y-70884308D01*
X175767287Y-71146721D01*
X175753512Y-71409135D01*
X175739737Y-71671548D01*
X175725961Y-71933962D01*
X175712185Y-72196375D01*
X175698409Y-72458788D01*
X175684633Y-72721201D01*
X175670856Y-72983614D01*
X175657078Y-73246027D01*
X175643301Y-73508440D01*
X175629523Y-73770853D01*
X175615745Y-74033266D01*
X175601966Y-74295678D01*
X175588187Y-74558091D01*
X175574408Y-74820504D01*
X175560628Y-75082916D01*
X175546849Y-75345328D01*
X175533068Y-75607741D01*
X175519288Y-75870153D01*
X175505507Y-76132565D01*
X175491726Y-76394977D01*
X175477945Y-76657390D01*
X175464164Y-76919802D01*
X175450382Y-77182214D01*
X175436600Y-77444626D01*
X175422818Y-77707037D01*
X175409035Y-77969449D01*
X175395253Y-78231861D01*
X175381470Y-78494273D01*
X175367687Y-78756685D01*
X175353903Y-79019096D01*
X175340120Y-79281508D01*
X175326336Y-79543919D01*
X175312552Y-79806331D01*
X175298768Y-80068742D01*
X175284984Y-80331154D01*
X175271199Y-80593565D01*
X175257414Y-80855977D01*
X175243629Y-81118388D01*
X175229844Y-81380800D01*
X175216059Y-81643211D01*
X175202274Y-81905622D01*
X175188488Y-82168034D01*
X175174703Y-82430445D01*
X175160917Y-82692856D01*
X175147131Y-82955267D01*
X175133345Y-83217678D01*
X175119559Y-83480090D01*
X175105773Y-83742501D01*
X175091987Y-84004912D01*
X175078200Y-84267323D01*
X175064414Y-84529734D01*
X175050627Y-84792145D01*
X175036840Y-85054557D01*
X175023054Y-85316968D01*
X175009267Y-85579379D01*
X174995480Y-85841790D01*
X174981693Y-86104201D01*
X174967906Y-86366612D01*
X174954119Y-86629023D01*
X174940332Y-86891434D01*
X174926545Y-87153846D01*
X174912758Y-87416257D01*
X174898971Y-87678668D01*
X174885184Y-87941079D01*
X174871396Y-88203490D01*
X174857609Y-88465901D01*
X174843822Y-88728313D01*
X174830035Y-88990724D01*
X174816248Y-89253135D01*
X174802461Y-89515546D01*
X174788674Y-89777958D01*
X174774887Y-90040369D01*
X174761100Y-90302780D01*
X174747313Y-90565192D01*
X174733526Y-90827603D01*
X174719739Y-91090014D01*
X174705952Y-91352426D01*
X174692165Y-91614837D01*
X174678379Y-91877249D01*
X174664592Y-92139661D01*
X174650805Y-92402072D01*
X174637019Y-92664484D01*
X174623233Y-92926895D01*
X174609446Y-93189307D01*
X174595660Y-93451719D01*
X174581874Y-93714131D01*
X174568088Y-93976543D01*
X174554303Y-94238954D01*
X174540517Y-94501366D01*
X174526732Y-94763778D01*
X174512946Y-95026191D01*
X174499161Y-95288603D01*
X174485376Y-95551015D01*
X174471591Y-95813427D01*
X174457807Y-96075839D01*
X174444022Y-96338252D01*
X174430238Y-96600664D01*
X174416454Y-96863077D01*
X174402670Y-97125489D01*
X174388886Y-97387902D01*
X174375102Y-97650314D01*
X174361319Y-97912727D01*
X174347536Y-98175140D01*
X174333753Y-98437553D01*
X174319970Y-98699966D01*
X174306188Y-98962379D01*
X174292405Y-99224792D01*
X174278623Y-99487205D01*
X174264842Y-99749619D01*
X174251060Y-100012032D01*
X174237279Y-100274445D01*
X174223498Y-100536859D01*
X174209717Y-100799273D01*
X174198772Y-101020901D01*
X174187954Y-101264954D01*
X174177477Y-101525034D01*
X174167555Y-101794742D01*
X174158401Y-102067678D01*
X174150230Y-102337445D01*
X174143256Y-102597642D01*
X174137692Y-102841872D01*
X174133752Y-103063735D01*
X174129985Y-103321585D01*
X174126241Y-103579435D01*
X174122519Y-103837285D01*
X174118818Y-104095135D01*
X174115137Y-104352984D01*
X174111474Y-104610833D01*
X174107830Y-104868682D01*
X174104202Y-105126530D01*
X174100590Y-105384379D01*
X174096992Y-105642227D01*
X174093409Y-105900075D01*
X174089837Y-106157924D01*
X174086277Y-106415772D01*
X174082727Y-106673620D01*
X174079187Y-106931469D01*
X174075654Y-107189317D01*
X174072129Y-107447166D01*
X174068610Y-107705015D01*
X174065097Y-107962864D01*
X174061587Y-108220713D01*
X174058080Y-108478563D01*
X174054575Y-108736412D01*
X174051070Y-108994263D01*
X174047566Y-109252113D01*
X174044060Y-109509964D01*
X174040552Y-109767816D01*
X174037040Y-110025668D01*
X174033524Y-110283521D01*
X174030002Y-110541374D01*
X174026474Y-110799227D01*
X174022938Y-111057082D01*
X174019393Y-111314937D01*
X174015838Y-111572792D01*
X174012273Y-111830649D01*
X174008696Y-112088506D01*
X174007471Y-112310317D01*
X174009438Y-112554395D01*
X174014363Y-112814351D01*
X174022012Y-113083799D01*
X174032151Y-113356351D01*
X174044546Y-113625622D01*
X174058963Y-113885223D01*
X174075168Y-114128767D01*
X174092929Y-114349867D01*
X174116209Y-114611986D01*
X174139469Y-114874106D01*
X174162710Y-115136228D01*
X174185932Y-115398351D01*
X174209136Y-115660477D01*
X174232321Y-115922604D01*
X174255489Y-116184733D01*
X174278641Y-116446863D01*
X174301775Y-116708995D01*
X174324894Y-116971128D01*
X174347997Y-117233263D01*
X174371085Y-117495400D01*
X174394159Y-117757537D01*
X174417218Y-118019676D01*
X174440264Y-118281817D01*
X174463297Y-118543958D01*
X174486317Y-118806101D01*
X174509325Y-119068245D01*
X174532321Y-119330389D01*
X174555306Y-119592535D01*
X174578280Y-119854682D01*
X174601244Y-120116830D01*
X174624198Y-120378979D01*
X174647143Y-120641129D01*
X174670079Y-120903279D01*
X174693007Y-121165430D01*
X174715926Y-121427582D01*
X174738839Y-121689735D01*
X174761745Y-121951888D01*
X174784644Y-122214042D01*
X174807537Y-122476196D01*
X174830425Y-122738351D01*
X174853308Y-123000506D01*
X174876186Y-123262662D01*
X174899061Y-123524818D01*
X174921931Y-123786974D01*
X174944799Y-124049131D01*
X174967664Y-124311288D01*
X174990528Y-124573445D01*
X175013389Y-124835602D01*
X175036250Y-125097759D01*
X175059109Y-125359916D01*
X175081969Y-125622073D01*
X175104829Y-125884230D01*
X175127690Y-126146387D01*
X175150552Y-126408544D01*
X175173415Y-126670701D01*
X175196281Y-126932857D01*
X175219150Y-127195013D01*
X175242022Y-127457168D01*
X175264898Y-127719324D01*
X175287778Y-127981479D01*
X175310662Y-128243633D01*
X175333552Y-128505787D01*
X175356447Y-128767940D01*
X175379348Y-129030092D01*
X175402256Y-129292244D01*
X175425171Y-129554396D01*
X175448093Y-129816546D01*
X175471023Y-130078696D01*
X175493962Y-130340844D01*
X175516910Y-130602992D01*
X175539867Y-130865139D01*
X175536878Y-131094602D01*
X175489715Y-131312211D01*
X175402510Y-131513027D01*
X175279395Y-131692116D01*
X175124502Y-131844539D01*
X174941963Y-131965362D01*
X174735909Y-132049646D01*
X174510474Y-132092455D01*
X174251155Y-132115116D01*
X173991837Y-132137776D01*
X173732519Y-132160437D01*
X173473201Y-132183097D01*
X173213883Y-132205757D01*
X172954566Y-132228417D01*
X172695248Y-132251077D01*
X172435931Y-132273737D01*
X172176614Y-132296397D01*
X171917297Y-132319057D01*
X171657980Y-132341716D01*
X171398664Y-132364376D01*
X171139347Y-132387035D01*
X170880031Y-132409695D01*
X170620715Y-132432354D01*
X170361398Y-132455013D01*
X170102082Y-132477673D01*
X169842766Y-132500332D01*
X169583450Y-132522991D01*
X169324134Y-132545651D01*
X169064818Y-132568310D01*
X168805502Y-132590970D01*
X168546187Y-132613629D01*
X168286871Y-132636289D01*
X168027555Y-132658949D01*
X167768239Y-132681608D01*
X167508923Y-132704268D01*
X167249607Y-132726928D01*
X166990291Y-132749588D01*
X166730975Y-132772249D01*
X166471659Y-132794909D01*
X166212343Y-132817570D01*
X165953027Y-132840230D01*
X165693711Y-132862891D01*
X165434394Y-132885552D01*
X165175078Y-132908214D01*
X164915761Y-132930875D01*
X164656445Y-132953537D01*
X164397128Y-132976199D01*
X164137811Y-132998862D01*
X163878494Y-133021524D01*
X163619176Y-133044187D01*
X163359859Y-133066850D01*
X163100541Y-133089513D01*
X162841223Y-133112177D01*
X162581905Y-133134841D01*
X162322587Y-133157506D01*
X162101528Y-133176858D01*
X161858156Y-133198220D01*
X161598847Y-133221024D01*
X161329976Y-133244705D01*
X161057920Y-133268697D01*
X160789055Y-133292435D01*
X160529756Y-133315352D01*
X160286399Y-133336882D01*
X160065360Y-133356460D01*
X159804675Y-133379558D01*
X159543989Y-133402641D01*
X159283301Y-133425711D01*
X159022611Y-133448767D01*
X158761920Y-133471810D01*
X158501228Y-133494840D01*
X158240534Y-133517857D01*
X157979838Y-133540862D01*
X157719141Y-133563855D01*
X157458443Y-133586836D01*
X157197744Y-133609805D01*
X156937043Y-133632764D01*
X156676341Y-133655712D01*
X156415638Y-133678649D01*
X156154933Y-133701576D01*
X155894228Y-133724492D01*
X155633522Y-133747400D01*
X155372814Y-133770298D01*
X155112106Y-133793187D01*
X154851396Y-133816067D01*
X154590686Y-133838939D01*
X154329975Y-133861802D01*
X154069262Y-133884658D01*
X153808550Y-133907506D01*
X153547836Y-133930347D01*
X153287122Y-133953181D01*
X153026407Y-133976009D01*
X152765691Y-133998830D01*
X152504975Y-134021645D01*
X152244258Y-134044454D01*
X151983540Y-134067258D01*
X151722823Y-134090057D01*
X151462104Y-134112851D01*
X151201386Y-134135640D01*
X150940666Y-134158426D01*
X150679947Y-134181207D01*
X150419227Y-134203984D01*
X150158507Y-134226759D01*
X149897787Y-134249530D01*
X149637067Y-134272299D01*
X149376346Y-134295065D01*
X149115626Y-134317829D01*
X148854905Y-134340591D01*
X148594184Y-134363351D01*
X148333464Y-134386111D01*
X148072743Y-134408869D01*
X147812023Y-134431627D01*
X147551302Y-134454385D01*
X147290582Y-134477142D01*
X147029862Y-134499900D01*
X146769143Y-134522658D01*
X146508423Y-134545418D01*
X146247704Y-134568178D01*
X145986985Y-134590940D01*
X145726267Y-134613704D01*
X145465549Y-134636469D01*
X145204832Y-134659237D01*
X144944115Y-134682008D01*
X144683399Y-134704782D01*
X144422683Y-134727559D01*
X144161968Y-134750340D01*
X143901253Y-134773124D01*
X143640540Y-134795913D01*
X143379827Y-134818706D01*
X143119115Y-134841504D01*
X142858404Y-134864307D01*
X142597693Y-134887116D01*
X142368228Y-134884087D01*
X142150620Y-134836857D01*
X141949803Y-134749568D01*
X141770716Y-134626362D01*
X141618293Y-134471380D01*
X141497472Y-134288766D01*
X141413188Y-134082660D01*
X141370377Y-133857204D01*
X141349525Y-133618594D01*
X141328667Y-133379919D01*
X141307799Y-133141113D01*
X141286914Y-132902111D01*
X141266007Y-132662847D01*
X141245072Y-132423258D01*
X141224103Y-132183276D01*
X141203095Y-131942838D01*
X141182042Y-131701878D01*
X141160938Y-131460330D01*
X141139777Y-131218130D01*
X141118554Y-130975212D01*
X141097262Y-130731512D01*
X141075897Y-130486963D01*
X141054453Y-130241501D01*
X141032923Y-129995061D01*
X141011302Y-129747576D01*
X140989584Y-129498983D01*
X140967764Y-129249216D01*
X140945835Y-128998209D01*
X140923793Y-128745898D01*
X140901630Y-128492217D01*
X140879343Y-128237101D01*
X140856924Y-127980485D01*
X140834368Y-127722304D01*
X140811669Y-127462492D01*
X140788823Y-127200984D01*
X140765822Y-126937715D01*
X140742661Y-126672620D01*
X140719334Y-126405634D01*
X140695836Y-126136690D01*
X140672162Y-125865725D01*
X140648304Y-125592673D01*
X140624258Y-125317469D01*
X140600017Y-125040047D01*
X140575577Y-124760343D01*
X140550930Y-124478291D01*
X140526073Y-124193825D01*
X140500998Y-123906882D01*
X140475700Y-123617394D01*
X140450173Y-123325299D01*
X140424412Y-123030529D01*
X140398411Y-122733020D01*
X140372164Y-122432706D01*
X140345665Y-122129524D01*
X140318909Y-121823406D01*
X140291890Y-121514288D01*
X140150098Y-121556965D01*
X139947762Y-121616677D01*
X139698620Y-121687869D01*
X139416411Y-121764987D01*
X139114873Y-121842475D01*
X138807744Y-121914781D01*
X138557059Y-121968503D01*
X138305605Y-122018423D01*
X138053437Y-122064544D01*
X137800612Y-122106868D01*
X137547185Y-122145398D01*
X137293213Y-122180139D01*
X137038750Y-122211092D01*
X136783853Y-122238261D01*
X136528577Y-122261649D01*
X136272979Y-122281259D01*
X136017115Y-122297094D01*
X135761039Y-122309157D01*
X135504809Y-122317451D01*
X135248479Y-122321979D01*
X134992106Y-122322744D01*
X134735746Y-122319750D01*
X134479454Y-122312999D01*
X134223287Y-122302494D01*
X133967299Y-122288239D01*
X133711548Y-122270237D01*
X133456088Y-122248490D01*
X133200976Y-122223001D01*
X132946268Y-122193775D01*
X132692019Y-122160813D01*
X132438285Y-122124118D01*
X132185122Y-122083695D01*
X131932587Y-122039546D01*
X131680733Y-121991673D01*
X131429619Y-121940081D01*
X131179299Y-121884771D01*
X130929829Y-121825748D01*
X130681266Y-121763014D01*
X130433664Y-121696572D01*
X130187081Y-121626426D01*
X129974831Y-121561863D01*
X129742401Y-121486766D01*
X129495853Y-121403332D01*
X129241249Y-121313759D01*
X128984651Y-121220247D01*
X128732121Y-121124992D01*
X128489721Y-121030195D01*
X128263514Y-120938052D01*
X128059563Y-120850763D01*
X127821731Y-120743661D01*
X127585622Y-120632860D01*
X127351282Y-120518398D01*
X127118756Y-120400315D01*
X126888092Y-120278651D01*
X126659333Y-120153444D01*
X126432526Y-120024735D01*
X126207717Y-119892562D01*
X125984951Y-119756965D01*
X125764274Y-119617984D01*
X125545732Y-119475657D01*
X125329370Y-119330025D01*
X125115234Y-119181125D01*
X124903370Y-119028999D01*
X124693824Y-118873685D01*
X124486641Y-118715222D01*
X124281867Y-118553651D01*
X124079548Y-118389009D01*
X123879729Y-118221338D01*
X123682456Y-118050675D01*
X123487776Y-117877061D01*
X123295732Y-117700535D01*
X123106372Y-117521136D01*
X122919741Y-117338904D01*
X122735885Y-117153877D01*
X122554849Y-116966096D01*
X122376679Y-116775600D01*
X122201422Y-116582427D01*
X122029121Y-116386619D01*
X121859824Y-116188213D01*
X121693576Y-115987249D01*
X121530423Y-115783767D01*
X121370410Y-115577806D01*
X121213584Y-115369405D01*
X121059989Y-115158604D01*
X120932660Y-114976932D01*
X120795944Y-114774522D01*
X120653272Y-114556834D01*
X120508072Y-114329330D01*
X120363774Y-114097471D01*
X120223809Y-113866720D01*
X120091604Y-113642538D01*
X119970590Y-113430385D01*
X119864196Y-113235725D01*
X119744982Y-113007261D01*
X119629429Y-112776947D01*
X119517549Y-112544843D01*
X119409353Y-112311010D01*
X119304852Y-112075507D01*
X119204057Y-111838396D01*
X119106979Y-111599737D01*
X119013630Y-111359590D01*
X118924020Y-111118016D01*
X118838161Y-110875076D01*
X118756063Y-110630830D01*
X118677738Y-110385339D01*
X118603197Y-110138662D01*
X118532452Y-109890862D01*
X118465512Y-109641997D01*
X118402389Y-109392130D01*
X118343095Y-109141319D01*
X118287640Y-108889626D01*
X118236035Y-108637112D01*
X118188292Y-108383836D01*
X118144422Y-108129860D01*
X118104436Y-107875243D01*
X118068345Y-107620047D01*
X118036159Y-107364332D01*
X118007891Y-107108158D01*
X117983551Y-106851586D01*
X117963150Y-106594677D01*
X117946700Y-106337490D01*
X117934212Y-106080087D01*
X117925696Y-105822528D01*
X117921164Y-105564874D01*
X117921387Y-105343041D01*
X117925929Y-105098868D01*
X117934441Y-104838787D01*
X117946574Y-104569233D01*
X117961978Y-104296640D01*
X117980304Y-104027441D01*
X118001203Y-103768070D01*
X118024325Y-103524961D01*
X118049321Y-103304547D01*
X118083718Y-103045820D01*
X118122262Y-102787701D01*
X118164926Y-102530245D01*
X118211684Y-102273513D01*
X118262509Y-102017560D01*
X118317376Y-101762445D01*
X118376258Y-101508226D01*
X118439129Y-101254960D01*
X118505963Y-101002705D01*
X118576733Y-100751519D01*
X118651414Y-100501460D01*
X118729978Y-100252584D01*
X118812401Y-100004951D01*
X118898654Y-99758617D01*
X118988713Y-99513641D01*
X119082551Y-99270080D01*
X119180141Y-99027991D01*
X119281459Y-98787433D01*
X119386476Y-98548464D01*
X119495167Y-98311141D01*
X119607506Y-98075521D01*
X119723467Y-97841663D01*
X119843022Y-97609624D01*
X119966147Y-97379462D01*
X120092814Y-97151235D01*
X120222998Y-96925000D01*
X120356673Y-96700816D01*
X120473818Y-96512412D01*
X120606424Y-96307270D01*
X120750791Y-96090676D01*
X120903220Y-95867917D01*
X121060013Y-95644278D01*
X121217472Y-95425047D01*
X121371897Y-95215510D01*
X121519590Y-95020954D01*
X121656852Y-94846664D01*
X121819771Y-94647588D01*
X121985733Y-94451065D01*
X122154691Y-94257127D01*
X122326595Y-94065808D01*
X122501400Y-93877141D01*
X122679056Y-93691160D01*
X122859517Y-93507896D01*
X123042734Y-93327384D01*
X123228659Y-93149657D01*
X123417246Y-92974748D01*
X123608445Y-92802689D01*
X123802210Y-92633515D01*
X123998492Y-92467258D01*
X124197244Y-92303951D01*
X124398418Y-92143629D01*
X124601967Y-91986323D01*
X124807842Y-91832067D01*
X125015996Y-91680894D01*
X125226380Y-91532837D01*
X125438949Y-91387930D01*
X125653652Y-91246205D01*
X125870443Y-91107697D01*
X126089275Y-90972437D01*
X126310098Y-90840459D01*
X126532866Y-90711797D01*
X126757531Y-90586483D01*
X126984044Y-90464551D01*
X127212359Y-90346033D01*
X127442428Y-90230963D01*
X127674201Y-90119375D01*
X127907633Y-90011301D01*
X128110608Y-89921792D01*
X128335736Y-89827137D01*
X128576992Y-89729615D01*
X128828351Y-89631504D01*
X129083790Y-89535083D01*
X129337284Y-89442630D01*
X129582809Y-89356424D01*
X129814339Y-89278743D01*
X130025850Y-89211866D01*
X130271627Y-89139108D01*
X130518462Y-89070103D01*
X130766299Y-89004852D01*
X131015081Y-88943353D01*
X131264754Y-88885606D01*
X131515261Y-88831609D01*
X131766547Y-88781362D01*
X132018556Y-88734865D01*
X132271232Y-88692116D01*
X132524519Y-88653115D01*
X132778363Y-88617861D01*
X133032706Y-88586353D01*
X133287493Y-88558590D01*
X133542668Y-88534572D01*
X133798177Y-88514298D01*
X134053962Y-88497767D01*
X134309968Y-88484979D01*
X134566139Y-88475932D01*
X134822420Y-88470626D01*
X135078755Y-88469060D01*
X135335088Y-88471234D01*
X135591364Y-88477146D01*
X135847526Y-88486796D01*
X136103518Y-88500183D01*
X136359286Y-88517307D01*
X136614773Y-88538166D01*
X136869923Y-88562760D01*
X137124681Y-88591088D01*
X137378992Y-88623149D01*
X137632798Y-88658942D01*
X137886045Y-88698468D01*
X138138676Y-88741724D01*
X138390637Y-88788711D01*
X138641871Y-88839427D01*
X138892322Y-88893872D01*
X139141935Y-88952045D01*
X139390653Y-89013945D01*
X139642863Y-89057578D01*
X139875790Y-89056581D01*
X140082927Y-89013208D01*
X140257765Y-88929710D01*
X140393796Y-88808342D01*
X140484510Y-88651357D01*
X140523401Y-88461008D01*
X140514923Y-88222323D01*
X140467663Y-87979023D01*
X140385714Y-87737282D01*
X140273170Y-87503276D01*
X140134123Y-87283178D01*
X139972669Y-87083165D01*
X139792900Y-86909409D01*
X139598910Y-86768088D01*
X139381739Y-86632021D01*
X139166650Y-86492689D01*
X138953683Y-86350132D01*
X138742881Y-86204390D01*
X138534283Y-86055503D01*
X138327931Y-85903510D01*
X138123865Y-85748453D01*
X137922126Y-85590370D01*
X137722756Y-85429303D01*
X137525794Y-85265291D01*
X137331283Y-85098373D01*
X137139263Y-84928591D01*
X136949775Y-84755984D01*
X136762859Y-84580592D01*
X136578557Y-84402455D01*
X136396909Y-84221614D01*
X136217957Y-84038108D01*
X136041741Y-83851977D01*
X135868303Y-83663262D01*
X135697682Y-83472002D01*
X135529921Y-83278237D01*
X135365059Y-83082008D01*
X135183710Y-82905040D01*
X134985918Y-82787215D01*
X134778263Y-82728485D01*
X134567328Y-82728803D01*
X134359693Y-82788119D01*
X134161940Y-82906387D01*
X133980648Y-83083559D01*
X133814610Y-83281186D01*
X133645552Y-83476208D01*
X133473522Y-83668593D01*
X133298570Y-83858310D01*
X133120743Y-84045327D01*
X132940092Y-84229615D01*
X132756665Y-84411142D01*
X132570512Y-84589877D01*
X132381681Y-84765789D01*
X132190221Y-84938848D01*
X131996181Y-85109021D01*
X131799610Y-85276280D01*
X131600558Y-85440591D01*
X131399072Y-85601926D01*
X131195203Y-85760251D01*
X130989000Y-85915538D01*
X130780510Y-86067754D01*
X130569784Y-86216869D01*
X130356869Y-86362851D01*
X130141816Y-86505671D01*
X129924673Y-86645296D01*
X129705489Y-86781696D01*
X129484313Y-86914841D01*
X129261195Y-87044698D01*
X129036182Y-87171238D01*
X128809325Y-87294428D01*
X128580672Y-87414239D01*
X128350271Y-87530640D01*
X128118173Y-87643598D01*
X127884426Y-87753084D01*
X127649079Y-87859067D01*
X127412181Y-87961515D01*
X127173782Y-88060397D01*
X126933929Y-88155683D01*
X126692672Y-88247342D01*
X126450060Y-88335343D01*
X126206142Y-88419654D01*
X125960968Y-88500246D01*
X125714585Y-88577086D01*
X125467043Y-88650144D01*
X125218391Y-88719389D01*
X125003615Y-88774893D01*
X124766117Y-88831752D01*
X124512211Y-88888669D01*
X124248213Y-88944345D01*
X123980436Y-88997480D01*
X123715198Y-89046777D01*
X123458811Y-89090934D01*
X123217592Y-89128655D01*
X122997855Y-89158640D01*
X122742448Y-89188350D01*
X122486687Y-89214266D01*
X122230600Y-89236618D01*
X121974217Y-89255633D01*
X121717568Y-89271541D01*
X121460680Y-89284570D01*
X121203584Y-89294950D01*
X120946309Y-89302908D01*
X120688884Y-89308675D01*
X120431337Y-89312477D01*
X120173699Y-89314545D01*
X119915999Y-89315107D01*
X119658265Y-89314391D01*
X119400527Y-89312628D01*
X119142814Y-89310044D01*
X118885156Y-89306870D01*
X118627581Y-89303333D01*
X118399383Y-89277162D01*
X118187046Y-89208338D01*
X117995104Y-89101439D01*
X117828091Y-88961045D01*
X117690539Y-88791737D01*
X117586985Y-88598093D01*
X117521960Y-88384693D01*
X117499999Y-88156117D01*
X117500776Y-88005480D01*
X117501550Y-87854844D01*
X117501985Y-87632923D01*
X117501659Y-87388572D01*
X117500999Y-87128204D01*
X117500433Y-86858233D01*
X117500387Y-86585074D01*
X117501289Y-86315140D01*
X117503566Y-86054845D01*
X117507645Y-85810605D01*
X117513952Y-85588831D01*
X117524789Y-85336813D01*
X117539014Y-85084960D01*
X117556649Y-84833325D01*
X117577717Y-84581961D01*
X117602240Y-84330923D01*
X117630241Y-84080262D01*
X117661742Y-83830033D01*
X117696765Y-83580289D01*
X117735334Y-83331083D01*
X117777470Y-83082468D01*
X117823197Y-82834498D01*
X117872536Y-82587225D01*
X117925510Y-82340704D01*
X117982142Y-82094988D01*
X118035930Y-81879770D01*
X118099327Y-81643913D01*
X118170432Y-81393575D01*
X118247341Y-81134916D01*
X118328153Y-80874092D01*
X118410966Y-80617263D01*
X118493876Y-80370588D01*
X118574983Y-80140223D01*
X118652384Y-79932329D01*
X118747473Y-79691004D01*
X118846332Y-79451231D01*
X118948923Y-79213056D01*
X119055207Y-78976523D01*
X119165145Y-78741678D01*
X119278698Y-78508565D01*
X119395827Y-78277230D01*
X119516493Y-78047717D01*
X119640659Y-77820072D01*
X119768284Y-77594339D01*
X119899330Y-77370565D01*
X120033759Y-77148793D01*
X120171531Y-76929068D01*
X120312608Y-76711437D01*
X120456950Y-76495943D01*
X120604520Y-76282632D01*
X120755278Y-76071550D01*
X120909185Y-75862740D01*
X121066203Y-75656248D01*
X121226292Y-75452118D01*
X121389415Y-75250397D01*
X121555532Y-75051129D01*
X121724604Y-74854360D01*
X121896593Y-74660133D01*
X122071459Y-74468494D01*
X122249164Y-74279489D01*
X122429670Y-74093162D01*
X122612937Y-73909558D01*
X122798926Y-73728722D01*
X122987599Y-73550700D01*
X123178917Y-73375536D01*
X123372841Y-73203275D01*
X123569332Y-73033963D01*
X123768351Y-72867645D01*
X123945785Y-72686900D01*
X124064046Y-72489762D01*
X124123153Y-72282779D01*
X124123120Y-72072500D01*
X124063965Y-71865473D01*
X123945703Y-71668246D01*
X123768351Y-71487367D01*
X123570269Y-71321510D01*
X123374787Y-71152624D01*
X123181938Y-70980757D01*
X122991754Y-70805960D01*
X122804266Y-70628279D01*
X122619505Y-70447766D01*
X122437503Y-70264468D01*
X122258292Y-70078434D01*
X122081903Y-69889714D01*
X121908367Y-69698356D01*
X121737716Y-69504410D01*
X121569981Y-69307924D01*
X121405195Y-69108947D01*
X121243388Y-68907528D01*
X121084592Y-68703716D01*
X120928838Y-68497561D01*
X120776159Y-68289110D01*
X120626585Y-68078414D01*
X120480148Y-67865521D01*
X120336880Y-67650479D01*
X120196812Y-67433339D01*
X120059975Y-67214148D01*
X119926402Y-66992956D01*
X119796123Y-66769812D01*
X119669170Y-66544765D01*
X119545574Y-66317863D01*
X119425368Y-66089156D01*
X119308583Y-65858693D01*
X119195249Y-65626522D01*
X119085399Y-65392692D01*
X118979065Y-65157253D01*
X118876277Y-64920254D01*
X118777067Y-64681743D01*
X118681467Y-64441769D01*
X118589508Y-64200381D01*
X118501222Y-63957629D01*
X118416639Y-63713561D01*
X118335793Y-63468226D01*
X118258714Y-63221673D01*
X118185433Y-62973951D01*
X118115983Y-62725110D01*
X118063188Y-62510021D01*
X118014049Y-62271608D01*
X117968932Y-62016310D01*
X117928207Y-61750570D01*
X117892242Y-61480825D01*
X117861404Y-61213518D01*
X117836063Y-60955088D01*
X117816586Y-60711975D01*
X117803341Y-60490620D01*
X117593017Y-56117245D01*
X117605101Y-55889474D01*
X117660965Y-55677897D01*
X117756261Y-55487005D01*
X117886641Y-55321288D01*
X118047756Y-55185238D01*
X118235256Y-55083346D01*
X118444794Y-55020103D01*
X118672021Y-54999999D01*
X119028072Y-55004651D01*
X147380598Y-66321294D02*
X147526191Y-66342924D01*
X147668964Y-66378719D01*
X147807541Y-66428335D01*
X147940589Y-66491294D01*
X148066825Y-66566990D01*
X148185034Y-66654694D01*
X148294078Y-66753561D01*
X148392908Y-66862639D01*
X148480571Y-66980879D01*
X148556223Y-67107141D01*
X148619136Y-67240210D01*
X148668704Y-67378804D01*
X148704450Y-67521589D01*
X148726030Y-67667190D01*
X148733235Y-67814206D01*
X148726029Y-67961221D01*
X148704450Y-68106822D01*
X148668704Y-68249607D01*
X148619135Y-68388201D01*
X148556222Y-68521270D01*
X148480570Y-68647532D01*
X148392907Y-68765771D01*
X148294078Y-68874849D01*
X148185033Y-68973716D01*
X148066824Y-69061420D01*
X147940588Y-69137116D01*
X147807541Y-69200075D01*
X147668964Y-69249691D01*
X147526191Y-69285486D01*
X147380598Y-69307116D01*
X147233585Y-69314372D01*
X147086538Y-69307163D01*
X146940906Y-69285574D01*
X146798091Y-69249813D01*
X146659470Y-69200223D01*
X146526379Y-69137283D01*
X146400098Y-69061599D01*
X146281845Y-68973901D01*
X146172759Y-68875032D01*
X146073890Y-68765946D01*
X145986191Y-68647693D01*
X145910508Y-68521412D01*
X145847568Y-68388320D01*
X145797978Y-68249699D01*
X145762217Y-68106885D01*
X145740628Y-67961253D01*
X145733419Y-67814206D01*
X145740627Y-67667158D01*
X145762216Y-67521526D01*
X145797978Y-67378711D01*
X145847567Y-67240091D01*
X145910507Y-67106999D01*
X145986191Y-66980718D01*
X146073889Y-66862465D01*
X146172758Y-66753378D01*
X146281844Y-66654509D01*
X146400098Y-66566811D01*
X146526378Y-66491127D01*
X146659470Y-66428187D01*
X146798091Y-66378597D01*
X146940905Y-66342836D01*
X147086538Y-66321246D01*
X147233585Y-66314038D01*
X147380598Y-66321294D01*
%TD*%
M02*
