%TF.GenerationSoftware,KiCad,Pcbnew,7.0.10*%
%TF.CreationDate,2024-05-13T16:35:13+02:00*%
%TF.ProjectId,MINT-Labs,4d494e54-2d4c-4616-9273-2e6b69636164,rev?*%
%TF.SameCoordinates,Original*%
%TF.FileFunction,Copper,L2,Bot*%
%TF.FilePolarity,Positive*%
%FSLAX46Y46*%
G04 Gerber Fmt 4.6, Leading zero omitted, Abs format (unit mm)*
G04 Created by KiCad (PCBNEW 7.0.10) date 2024-05-13 16:35:13*
%MOMM*%
%LPD*%
G01*
G04 APERTURE LIST*
G04 Aperture macros list*
%AMRoundRect*
0 Rectangle with rounded corners*
0 $1 Rounding radius*
0 $2 $3 $4 $5 $6 $7 $8 $9 X,Y pos of 4 corners*
0 Add a 4 corners polygon primitive as box body*
4,1,4,$2,$3,$4,$5,$6,$7,$8,$9,$2,$3,0*
0 Add four circle primitives for the rounded corners*
1,1,$1+$1,$2,$3*
1,1,$1+$1,$4,$5*
1,1,$1+$1,$6,$7*
1,1,$1+$1,$8,$9*
0 Add four rect primitives between the rounded corners*
20,1,$1+$1,$2,$3,$4,$5,0*
20,1,$1+$1,$4,$5,$6,$7,0*
20,1,$1+$1,$6,$7,$8,$9,0*
20,1,$1+$1,$8,$9,$2,$3,0*%
%AMRotRect*
0 Rectangle, with rotation*
0 The origin of the aperture is its center*
0 $1 length*
0 $2 width*
0 $3 Rotation angle, in degrees counterclockwise*
0 Add horizontal line*
21,1,$1,$2,0,0,$3*%
G04 Aperture macros list end*
%ADD10C,0.300000*%
%TA.AperFunction,SMDPad,CuDef*%
%ADD11RotRect,5.000000X3.600000X96.000000*%
%TD*%
%TA.AperFunction,SMDPad,CuDef*%
%ADD12RoundRect,0.500000X-1.524112X-0.420811X1.471776X-0.577819X1.524112X0.420811X-1.471776X0.577819X0*%
%TD*%
%TA.AperFunction,SMDPad,CuDef*%
%ADD13RotRect,1.524000X5.000000X177.000000*%
%TD*%
%TA.AperFunction,SMDPad,CuDef*%
%ADD14RotRect,1.524000X5.000000X320.000000*%
%TD*%
%TA.AperFunction,Conductor*%
%ADD15C,1.000000*%
%TD*%
G04 APERTURE END LIST*
D10*
G36*
X143386435Y-132206152D02*
G01*
X143426523Y-132239789D01*
X143488770Y-132341109D01*
X143573435Y-132586490D01*
X143601343Y-132905482D01*
X143560575Y-133161836D01*
X143516868Y-133272424D01*
X143483228Y-133312514D01*
X143398053Y-133364842D01*
X143326289Y-133371120D01*
X143233320Y-133334377D01*
X143193230Y-133300737D01*
X143130986Y-133199421D01*
X143046320Y-132954038D01*
X143018412Y-132635046D01*
X143059180Y-132378695D01*
X143102888Y-132268105D01*
X143136525Y-132228017D01*
X143221704Y-132175686D01*
X143293465Y-132169408D01*
X143386435Y-132206152D01*
G37*
G36*
X147538774Y-133518828D02*
G01*
X142617154Y-133949414D01*
X142502840Y-132642798D01*
X142717945Y-132642798D01*
X142749072Y-132998582D01*
X142755401Y-133015971D01*
X142756704Y-133034434D01*
X142852763Y-133312836D01*
X142862031Y-133326559D01*
X142866753Y-133342431D01*
X142950360Y-133478519D01*
X142967896Y-133495123D01*
X142981749Y-133514906D01*
X143059131Y-133579837D01*
X143081018Y-133590043D01*
X143100415Y-133604430D01*
X143248954Y-133663136D01*
X143283213Y-133667079D01*
X143317162Y-133673065D01*
X143459476Y-133660614D01*
X143491878Y-133648820D01*
X143524922Y-133638992D01*
X143661010Y-133555385D01*
X143677614Y-133537848D01*
X143697397Y-133523996D01*
X143762328Y-133446614D01*
X143772534Y-133424726D01*
X143786921Y-133405330D01*
X143815487Y-133333051D01*
X144217494Y-133333051D01*
X144224261Y-133410401D01*
X144246895Y-133442725D01*
X144268796Y-133474004D01*
X144346179Y-133538936D01*
X144346180Y-133538937D01*
X144364073Y-133547281D01*
X144379204Y-133559977D01*
X144398654Y-133563406D01*
X144416551Y-133571752D01*
X144436222Y-133570030D01*
X144455671Y-133573460D01*
X144474227Y-133566705D01*
X144493900Y-133564985D01*
X144510077Y-133553657D01*
X144528634Y-133546903D01*
X144541327Y-133531775D01*
X144557503Y-133520449D01*
X144557504Y-133520447D01*
X144622436Y-133443064D01*
X144651342Y-133381074D01*
X144933578Y-133381074D01*
X144960134Y-133454037D01*
X145019614Y-133503947D01*
X145096080Y-133517430D01*
X145949962Y-133442725D01*
X146022925Y-133416169D01*
X146072835Y-133356689D01*
X146086318Y-133280223D01*
X146059761Y-133207259D01*
X146000281Y-133157350D01*
X145923815Y-133143867D01*
X145646303Y-133168146D01*
X145566430Y-132255194D01*
X145598549Y-132282145D01*
X145620437Y-132292351D01*
X145639835Y-132306739D01*
X145788374Y-132365444D01*
X145865511Y-132374322D01*
X145936752Y-132343441D01*
X145983008Y-132281077D01*
X145987787Y-132239547D01*
X146198482Y-132239547D01*
X146211503Y-132316093D01*
X146654442Y-133281161D01*
X146671691Y-133301972D01*
X146685346Y-133325296D01*
X146696095Y-133331415D01*
X146703991Y-133340942D01*
X146729335Y-133350340D01*
X146752822Y-133363712D01*
X146765192Y-133363637D01*
X146776793Y-133367939D01*
X146803439Y-133363406D01*
X146830466Y-133363243D01*
X146841142Y-133356992D01*
X146853339Y-133354918D01*
X146874149Y-133337669D01*
X146897474Y-133324014D01*
X146903594Y-133313263D01*
X146913120Y-133305368D01*
X146922517Y-133280025D01*
X146935890Y-133256538D01*
X147204519Y-132229215D01*
X147204050Y-132151571D01*
X147164821Y-132084564D01*
X147097345Y-132046148D01*
X147019701Y-132046617D01*
X146952693Y-132085845D01*
X146914277Y-132153322D01*
X146751899Y-132774305D01*
X146484157Y-132190953D01*
X146434608Y-132131172D01*
X146361806Y-132104175D01*
X146285260Y-132117196D01*
X146225479Y-132166745D01*
X146198482Y-132239547D01*
X145987787Y-132239547D01*
X145991885Y-132203940D01*
X145961004Y-132132699D01*
X145898640Y-132086444D01*
X145772740Y-132036686D01*
X145648002Y-131932019D01*
X145496295Y-131742590D01*
X145468775Y-131722367D01*
X145442607Y-131700410D01*
X145437722Y-131699548D01*
X145433726Y-131696612D01*
X145399776Y-131692857D01*
X145366141Y-131686927D01*
X145361480Y-131688623D01*
X145356551Y-131688078D01*
X145325274Y-131701800D01*
X145293177Y-131713483D01*
X145289988Y-131717282D01*
X145285448Y-131719275D01*
X145265225Y-131746794D01*
X145243268Y-131772963D01*
X145242406Y-131777847D01*
X145239470Y-131781844D01*
X145235715Y-131815793D01*
X145229785Y-131849429D01*
X145347445Y-133194292D01*
X145069934Y-133218572D01*
X144996971Y-133245128D01*
X144947061Y-133304608D01*
X144933578Y-133381074D01*
X144651342Y-133381074D01*
X144655250Y-133372693D01*
X144648482Y-133295342D01*
X144603945Y-133231739D01*
X144603944Y-133231738D01*
X144526564Y-133166809D01*
X144508666Y-133158463D01*
X144493539Y-133145770D01*
X144474091Y-133142340D01*
X144456193Y-133133995D01*
X144436519Y-133135716D01*
X144417072Y-133132287D01*
X144398515Y-133139040D01*
X144378843Y-133140762D01*
X144362667Y-133152088D01*
X144344109Y-133158843D01*
X144331414Y-133173971D01*
X144315239Y-133185298D01*
X144250308Y-133262680D01*
X144239857Y-133285092D01*
X144217509Y-133333019D01*
X144217494Y-133333051D01*
X143815487Y-133333051D01*
X143845627Y-133256791D01*
X143847520Y-133240338D01*
X143854265Y-133225216D01*
X143900520Y-132934363D01*
X143898597Y-132915956D01*
X143901811Y-132897731D01*
X143870684Y-132541947D01*
X143864354Y-132524557D01*
X143863052Y-132506095D01*
X143766994Y-132227694D01*
X143757725Y-132213971D01*
X143753004Y-132198099D01*
X143669396Y-132062011D01*
X143651860Y-132045407D01*
X143638008Y-132025625D01*
X143560626Y-131960693D01*
X143538736Y-131950485D01*
X143519340Y-131936099D01*
X143370802Y-131877393D01*
X143336543Y-131873450D01*
X143302595Y-131867464D01*
X143160281Y-131879915D01*
X143127880Y-131891707D01*
X143094835Y-131901537D01*
X142958747Y-131985145D01*
X142942143Y-132002680D01*
X142922361Y-132016533D01*
X142857429Y-132093915D01*
X142847221Y-132115804D01*
X142832835Y-132135201D01*
X142774129Y-132283739D01*
X142772235Y-132300191D01*
X142765491Y-132315314D01*
X142719236Y-132606166D01*
X142721158Y-132624572D01*
X142717945Y-132642798D01*
X142502840Y-132642798D01*
X142422921Y-131729321D01*
X147344541Y-131298735D01*
X147538774Y-133518828D01*
G37*
D11*
%TO.P,BT1,1,+*%
%TO.N,+3V0*%
X150790000Y-101240000D03*
%TO.P,BT1,2,-*%
%TO.N,GND*%
X153852684Y-130379492D03*
%TD*%
D12*
%TO.P,SW1,1*%
%TO.N,VCC*%
X149078630Y-71582336D03*
%TO.P,SW1,2*%
%TO.N,+3V0*%
X171048479Y-72733727D03*
%TD*%
D13*
%TO.P,D1,1,K*%
%TO.N,GND*%
X158238260Y-95249858D03*
%TO.P,D1,2,A*%
%TO.N,VCC*%
X155701741Y-95116925D03*
%TD*%
D14*
%TO.P,D2,1,K*%
%TO.N,GND*%
X140810026Y-95982464D03*
%TO.P,D2,2,A*%
%TO.N,VCC*%
X142755779Y-97615145D03*
%TD*%
D15*
%TO.N,+3V0*%
X171048479Y-89500000D02*
X171048479Y-72733727D01*
X159308479Y-101240000D02*
X171048479Y-89500000D01*
X150790000Y-101240000D02*
X159308479Y-101240000D01*
%TO.N,VCC*%
X148170000Y-72490966D02*
X148170000Y-90383664D01*
X149078630Y-91292294D02*
X142755779Y-97615145D01*
X149078630Y-71582336D02*
X148170000Y-72490966D01*
X152903261Y-95116925D02*
X155701741Y-95116925D01*
X148170000Y-90383664D02*
X149078630Y-91292294D01*
X149078630Y-91292294D02*
X152903261Y-95116925D01*
%TD*%
%TA.AperFunction,Conductor*%
%TO.N,GND*%
G36*
X119014180Y-55004968D02*
G01*
X119015056Y-55005078D01*
X119024367Y-55005130D01*
X119031931Y-55005403D01*
X119059352Y-55007231D01*
X119077833Y-55005646D01*
X119250062Y-55007365D01*
X119250062Y-55007364D01*
X119274422Y-55007607D01*
X119274833Y-55007528D01*
X119494373Y-55008983D01*
X119494373Y-55008982D01*
X119508777Y-55009078D01*
X119508933Y-55009059D01*
X119754689Y-55010375D01*
X119754691Y-55010374D01*
X120024595Y-55011908D01*
X120024595Y-55011907D01*
X120024669Y-55011908D01*
X120024821Y-55011908D01*
X120297635Y-55013950D01*
X120567309Y-55016870D01*
X120567790Y-55016877D01*
X120827364Y-55021039D01*
X120827980Y-55021051D01*
X121071213Y-55026816D01*
X121072408Y-55026851D01*
X121292692Y-55034574D01*
X121294268Y-55034640D01*
X121539832Y-55046709D01*
X121541270Y-55046790D01*
X121786742Y-55062058D01*
X121788085Y-55062150D01*
X122033305Y-55080631D01*
X122034684Y-55080745D01*
X122279485Y-55102451D01*
X122281104Y-55102605D01*
X122525552Y-55127562D01*
X122526916Y-55127710D01*
X122771110Y-55155959D01*
X122772674Y-55156150D01*
X123016396Y-55187691D01*
X123017836Y-55187888D01*
X123260917Y-55222723D01*
X123262513Y-55222962D01*
X123466930Y-55255131D01*
X123505172Y-55261149D01*
X123506870Y-55261429D01*
X123748843Y-55302956D01*
X123750503Y-55303252D01*
X123991856Y-55348156D01*
X123993468Y-55348468D01*
X124234192Y-55396779D01*
X124235870Y-55397128D01*
X124460239Y-55445486D01*
X124475712Y-55448821D01*
X124477872Y-55449307D01*
X124691675Y-55499396D01*
X124693691Y-55499887D01*
X124928744Y-55559272D01*
X124930359Y-55559692D01*
X125180267Y-55626542D01*
X125181581Y-55626901D01*
X125440222Y-55699451D01*
X125441453Y-55699805D01*
X125702276Y-55776160D01*
X125703406Y-55776497D01*
X125960280Y-55854882D01*
X125961708Y-55855328D01*
X126208168Y-55933856D01*
X126209701Y-55934357D01*
X126439585Y-56011233D01*
X126441644Y-56011942D01*
X126648627Y-56085308D01*
X126650620Y-56086036D01*
X126889716Y-56175896D01*
X126891302Y-56176492D01*
X126893096Y-56177183D01*
X127007542Y-56222233D01*
X127132359Y-56271366D01*
X127134078Y-56272058D01*
X127278013Y-56331300D01*
X127371880Y-56369934D01*
X127373640Y-56370674D01*
X127609854Y-56472176D01*
X127611593Y-56472939D01*
X127745348Y-56532857D01*
X127845067Y-56577529D01*
X127846282Y-56578073D01*
X127847982Y-56578850D01*
X127990770Y-56645453D01*
X128080942Y-56687513D01*
X128082647Y-56688324D01*
X128314004Y-56800558D01*
X128315690Y-56801391D01*
X128455495Y-56871851D01*
X128544486Y-56916702D01*
X128545320Y-56917122D01*
X128546988Y-56917979D01*
X128774916Y-57037210D01*
X128776461Y-57038033D01*
X129001644Y-57160189D01*
X129002540Y-57160675D01*
X129004122Y-57161548D01*
X129228448Y-57287644D01*
X129229903Y-57288477D01*
X129452256Y-57417893D01*
X129453778Y-57418794D01*
X129565692Y-57486195D01*
X129674187Y-57551537D01*
X129675709Y-57552468D01*
X129894177Y-57688532D01*
X129895470Y-57689351D01*
X130058947Y-57794582D01*
X130111861Y-57828644D01*
X130113406Y-57829655D01*
X130327626Y-57972106D01*
X130329155Y-57973140D01*
X130541187Y-58118733D01*
X130542698Y-58119787D01*
X130752553Y-58268521D01*
X130754046Y-58269596D01*
X130961754Y-58421489D01*
X130963201Y-58422564D01*
X131168626Y-58577519D01*
X131170000Y-58578572D01*
X131373173Y-58736610D01*
X131374451Y-58737619D01*
X131575323Y-58898705D01*
X131576661Y-58899795D01*
X131775066Y-59063798D01*
X131776353Y-59064878D01*
X131972225Y-59231740D01*
X131973598Y-59232927D01*
X132104896Y-59348184D01*
X132167000Y-59402701D01*
X132168375Y-59403927D01*
X132359098Y-59576434D01*
X132360456Y-59577681D01*
X132548653Y-59753060D01*
X132549948Y-59754285D01*
X132672322Y-59871776D01*
X132735582Y-59932513D01*
X132736864Y-59933762D01*
X132919642Y-60114564D01*
X132919737Y-60114658D01*
X132921028Y-60115954D01*
X133101257Y-60299640D01*
X133102494Y-60300920D01*
X133279906Y-60487234D01*
X133281161Y-60488572D01*
X133455750Y-60677515D01*
X133456951Y-60678835D01*
X133628655Y-60870355D01*
X133629892Y-60871756D01*
X133798646Y-61065790D01*
X133799865Y-61067213D01*
X133960510Y-61257661D01*
X133962379Y-61259876D01*
X133965753Y-61264291D01*
X133966647Y-61265248D01*
X133970795Y-61268902D01*
X134141637Y-61435037D01*
X134144082Y-61437785D01*
X134146058Y-61439530D01*
X134148026Y-61441352D01*
X134150007Y-61442566D01*
X134154355Y-61445351D01*
X134157133Y-61446701D01*
X134339653Y-61555122D01*
X134343298Y-61557611D01*
X134346393Y-61559306D01*
X134350397Y-61560560D01*
X134350588Y-61560627D01*
X134354648Y-61561481D01*
X134543163Y-61614705D01*
X134547488Y-61615926D01*
X134553730Y-61618095D01*
X134555785Y-61618370D01*
X134562499Y-61617941D01*
X134758734Y-61617686D01*
X134764127Y-61617994D01*
X134766080Y-61617910D01*
X134768914Y-61617200D01*
X134773721Y-61615492D01*
X134965563Y-61560751D01*
X134969715Y-61559876D01*
X134970175Y-61559713D01*
X134974134Y-61558454D01*
X134977819Y-61556390D01*
X134977998Y-61556297D01*
X134981448Y-61553894D01*
X135162844Y-61445351D01*
X135165905Y-61443854D01*
X135169419Y-61441561D01*
X135171962Y-61439990D01*
X135174148Y-61437915D01*
X135176972Y-61435368D01*
X135179275Y-61432705D01*
X135348072Y-61267340D01*
X135353056Y-61262964D01*
X135357052Y-61257670D01*
X135505238Y-61080358D01*
X135506218Y-61079203D01*
X135660446Y-60899753D01*
X135661430Y-60898626D01*
X135818024Y-60721412D01*
X135819089Y-60720225D01*
X135978057Y-60545213D01*
X135979141Y-60544034D01*
X136140399Y-60371291D01*
X136141753Y-60369865D01*
X136294564Y-60211744D01*
X136295936Y-60210349D01*
X136467395Y-60038875D01*
X136468450Y-60037834D01*
X136653952Y-59857336D01*
X136654910Y-59856415D01*
X136849608Y-59671438D01*
X136850426Y-59670669D01*
X137049746Y-59485509D01*
X137050507Y-59484810D01*
X137249409Y-59304177D01*
X137250372Y-59303314D01*
X137444075Y-59131675D01*
X137445241Y-59130656D01*
X137629001Y-58972440D01*
X137630471Y-58971197D01*
X137799539Y-58830815D01*
X137801200Y-58829462D01*
X138001028Y-58669798D01*
X138002510Y-58668634D01*
X138002643Y-58668531D01*
X138204914Y-58511966D01*
X138206149Y-58511025D01*
X138410964Y-58357466D01*
X138412275Y-58356498D01*
X138619521Y-58206023D01*
X138620874Y-58205057D01*
X138830365Y-58057781D01*
X138831712Y-58056850D01*
X139043308Y-57912859D01*
X139044750Y-57911894D01*
X139258509Y-57771131D01*
X139259972Y-57770183D01*
X139475886Y-57632640D01*
X139477375Y-57631707D01*
X139695386Y-57497414D01*
X139696741Y-57496594D01*
X139916780Y-57365581D01*
X139918256Y-57364718D01*
X140140134Y-57237090D01*
X140141617Y-57236251D01*
X140365448Y-57111934D01*
X140366944Y-57111117D01*
X140592596Y-56990176D01*
X140594061Y-56989405D01*
X140821619Y-56871791D01*
X140823040Y-56871069D01*
X141052205Y-56756932D01*
X141053789Y-56756157D01*
X141284728Y-56645407D01*
X141286212Y-56644709D01*
X141518735Y-56537440D01*
X141520289Y-56536736D01*
X141754436Y-56432923D01*
X141755816Y-56432324D01*
X141991617Y-56331957D01*
X141993056Y-56331358D01*
X142230111Y-56234607D01*
X142231684Y-56233979D01*
X142470268Y-56140730D01*
X142471798Y-56140145D01*
X142711700Y-56050486D01*
X142713284Y-56049908D01*
X142954421Y-55963869D01*
X142955973Y-55963327D01*
X143198445Y-55880878D01*
X143200078Y-55880336D01*
X143443705Y-55801541D01*
X143445318Y-55801034D01*
X143689960Y-55725941D01*
X143691710Y-55725417D01*
X143937535Y-55653983D01*
X143939206Y-55653511D01*
X144186060Y-55585786D01*
X144187672Y-55585357D01*
X144435534Y-55521357D01*
X144437215Y-55520936D01*
X144685998Y-55460693D01*
X144687677Y-55460300D01*
X144937346Y-55403830D01*
X144938994Y-55403470D01*
X145189488Y-55350801D01*
X145191305Y-55350434D01*
X145442359Y-55301628D01*
X145444206Y-55301284D01*
X145696108Y-55256295D01*
X145697887Y-55255990D01*
X145950581Y-55214849D01*
X145952203Y-55214598D01*
X146205162Y-55177399D01*
X146207532Y-55177075D01*
X146425261Y-55149479D01*
X146427441Y-55149224D01*
X146668310Y-55123420D01*
X146670004Y-55123251D01*
X146927569Y-55099514D01*
X146928854Y-55099404D01*
X147196415Y-55078019D01*
X147197551Y-55077934D01*
X147468932Y-55059139D01*
X147470005Y-55059071D01*
X147738172Y-55043159D01*
X147739283Y-55043098D01*
X147998211Y-55030300D01*
X147999347Y-55030249D01*
X148242066Y-55020833D01*
X148243589Y-55020784D01*
X148464032Y-55014982D01*
X148465055Y-55014961D01*
X148711656Y-55011119D01*
X148712325Y-55011111D01*
X148959633Y-55008717D01*
X148959680Y-55008716D01*
X149207236Y-55007499D01*
X149207236Y-55007498D01*
X149207306Y-55007498D01*
X149207403Y-55007497D01*
X149454726Y-55007178D01*
X149702132Y-55007475D01*
X149702227Y-55007476D01*
X149702228Y-55007477D01*
X149947867Y-55008109D01*
X149949841Y-55008115D01*
X149949843Y-55008116D01*
X150183145Y-55008775D01*
X150183258Y-55008789D01*
X150197464Y-55008816D01*
X150197465Y-55008817D01*
X150420719Y-55009250D01*
X150421579Y-55009422D01*
X150434683Y-55009353D01*
X150455723Y-55011038D01*
X150468249Y-55013125D01*
X150474468Y-55010369D01*
X150490737Y-55009295D01*
X150686773Y-55009284D01*
X150698751Y-55009863D01*
X150908619Y-55030241D01*
X150932597Y-55034990D01*
X151121271Y-55092165D01*
X151143629Y-55101407D01*
X151313880Y-55192156D01*
X151333857Y-55205434D01*
X151476536Y-55321638D01*
X151481836Y-55325954D01*
X151498884Y-55342831D01*
X151618544Y-55486774D01*
X151620647Y-55489303D01*
X151634247Y-55509370D01*
X151725867Y-55677988D01*
X151735425Y-55700710D01*
X151793054Y-55887931D01*
X151797961Y-55912429D01*
X151818250Y-56121413D01*
X151818829Y-56133824D01*
X151818025Y-56366338D01*
X151818025Y-56366345D01*
X151817186Y-56605192D01*
X151817186Y-56605229D01*
X151816613Y-56755579D01*
X151816275Y-56844111D01*
X151816275Y-56844113D01*
X151815433Y-57037618D01*
X151815235Y-57082989D01*
X151814364Y-57288040D01*
X151814292Y-57304887D01*
X151814292Y-57304890D01*
X151813427Y-57497489D01*
X151813195Y-57549013D01*
X151813194Y-57549221D01*
X151811588Y-57809636D01*
X151811585Y-57810000D01*
X151809135Y-58079181D01*
X151809129Y-58079714D01*
X151805476Y-58352200D01*
X151805464Y-58352932D01*
X151800270Y-58621920D01*
X151800247Y-58622915D01*
X151793166Y-58881882D01*
X151793121Y-58883247D01*
X151783827Y-59125501D01*
X151783738Y-59127433D01*
X151771885Y-59346949D01*
X151771744Y-59349176D01*
X151753247Y-59605858D01*
X151753095Y-59607770D01*
X151730599Y-59864480D01*
X151730417Y-59866383D01*
X151703980Y-60122587D01*
X151703770Y-60124480D01*
X151673399Y-60380258D01*
X151673161Y-60382142D01*
X151638866Y-60637504D01*
X151638599Y-60639378D01*
X151600428Y-60894070D01*
X151600134Y-60895936D01*
X151558069Y-61150122D01*
X151557747Y-61151978D01*
X151511828Y-61405482D01*
X151511479Y-61407330D01*
X151461720Y-61660115D01*
X151461344Y-61661951D01*
X151407777Y-61913923D01*
X151407374Y-61915752D01*
X151350006Y-62166897D01*
X151349576Y-62168716D01*
X151288439Y-62418926D01*
X151287983Y-62420735D01*
X151223050Y-62670138D01*
X151222567Y-62671938D01*
X151153909Y-62920282D01*
X151153398Y-62922075D01*
X151080979Y-63169481D01*
X151080443Y-63171262D01*
X151004398Y-63417303D01*
X151003836Y-63419077D01*
X150924048Y-63664134D01*
X150923459Y-63665897D01*
X150840012Y-63909714D01*
X150839396Y-63911470D01*
X150752320Y-64153950D01*
X150751679Y-64155695D01*
X150660957Y-64396897D01*
X150660288Y-64398634D01*
X150565950Y-64638461D01*
X150565256Y-64640189D01*
X150467376Y-64878452D01*
X150466655Y-64880171D01*
X150365131Y-65117108D01*
X150364383Y-65118817D01*
X150259360Y-65354077D01*
X150258585Y-65355778D01*
X150150016Y-65589456D01*
X150149237Y-65591101D01*
X150131814Y-65627168D01*
X150037135Y-65823150D01*
X150036306Y-65824832D01*
X149922794Y-66051002D01*
X149920324Y-66055430D01*
X149919603Y-66057055D01*
X149917985Y-66061923D01*
X149833329Y-66279451D01*
X149832020Y-66282209D01*
X149830055Y-66287840D01*
X149830047Y-66287862D01*
X149829019Y-66294033D01*
X149828847Y-66297029D01*
X149802580Y-66496607D01*
X149801804Y-66500980D01*
X149801719Y-66502113D01*
X149801894Y-66503769D01*
X149802807Y-66508058D01*
X149832635Y-66689848D01*
X149833090Y-66693162D01*
X149834785Y-66696080D01*
X149920241Y-66852520D01*
X149921504Y-66854949D01*
X149923881Y-66856955D01*
X149930448Y-66862782D01*
X150060688Y-66978329D01*
X150064273Y-66981765D01*
X150069020Y-66983632D01*
X150250934Y-67063867D01*
X150254574Y-67065791D01*
X150255692Y-67066207D01*
X150259033Y-67067563D01*
X150262589Y-67068229D01*
X150264028Y-67068543D01*
X150268015Y-67068892D01*
X150497757Y-67105874D01*
X150503601Y-67107071D01*
X150509632Y-67107077D01*
X150767080Y-67120601D01*
X150767080Y-67120600D01*
X150793345Y-67121980D01*
X150793367Y-67121980D01*
X151030933Y-67134459D01*
X151030933Y-67134458D01*
X151057199Y-67135838D01*
X151057224Y-67135838D01*
X151294785Y-67148316D01*
X151321096Y-67149698D01*
X151321105Y-67149697D01*
X151558638Y-67162174D01*
X151558638Y-67162173D01*
X151584904Y-67163553D01*
X151584930Y-67163553D01*
X151822491Y-67176031D01*
X151822491Y-67176030D01*
X151848756Y-67177410D01*
X151848783Y-67177410D01*
X152086345Y-67189888D01*
X152086345Y-67189887D01*
X152112610Y-67191267D01*
X152112637Y-67191267D01*
X152350198Y-67203745D01*
X152350198Y-67203744D01*
X152376463Y-67205124D01*
X152376490Y-67205124D01*
X152614051Y-67217602D01*
X152614051Y-67217601D01*
X152640316Y-67218981D01*
X152640343Y-67218981D01*
X152877904Y-67231459D01*
X152877904Y-67231458D01*
X152904169Y-67232838D01*
X152904201Y-67232839D01*
X153141757Y-67245315D01*
X153141757Y-67245314D01*
X153168022Y-67246694D01*
X153168049Y-67246694D01*
X153405610Y-67259172D01*
X153405610Y-67259171D01*
X153431875Y-67260551D01*
X153431907Y-67260552D01*
X153669463Y-67273028D01*
X153669463Y-67273027D01*
X153695728Y-67274407D01*
X153695755Y-67274407D01*
X153933316Y-67286885D01*
X153933316Y-67286884D01*
X153959581Y-67288264D01*
X153959613Y-67288265D01*
X154197169Y-67300741D01*
X154197169Y-67300740D01*
X154223434Y-67302120D01*
X154223466Y-67302121D01*
X154461022Y-67314597D01*
X154461022Y-67314596D01*
X154487287Y-67315976D01*
X154487319Y-67315977D01*
X154724875Y-67328453D01*
X154724875Y-67328452D01*
X154751140Y-67329832D01*
X154751172Y-67329833D01*
X154988729Y-67342309D01*
X154988729Y-67342308D01*
X155014994Y-67343688D01*
X155015026Y-67343689D01*
X155252582Y-67356165D01*
X155252582Y-67356164D01*
X155278847Y-67357544D01*
X155278879Y-67357545D01*
X155516435Y-67370021D01*
X155516435Y-67370020D01*
X155542700Y-67371400D01*
X155542732Y-67371401D01*
X155780288Y-67383877D01*
X155780288Y-67383876D01*
X155806554Y-67385256D01*
X155806590Y-67385257D01*
X156044141Y-67397732D01*
X156044141Y-67397731D01*
X156070405Y-67399111D01*
X156070438Y-67399112D01*
X156307994Y-67411588D01*
X156307994Y-67411587D01*
X156334259Y-67412967D01*
X156334291Y-67412968D01*
X156571848Y-67425444D01*
X156571848Y-67425443D01*
X156598114Y-67426823D01*
X156598150Y-67426824D01*
X156835701Y-67439299D01*
X156835701Y-67439298D01*
X156861965Y-67440678D01*
X156861998Y-67440679D01*
X157099554Y-67453155D01*
X157099554Y-67453154D01*
X157125820Y-67454534D01*
X157125856Y-67454535D01*
X157363407Y-67467010D01*
X157363407Y-67467009D01*
X157389671Y-67468389D01*
X157389704Y-67468390D01*
X157627260Y-67480866D01*
X157627260Y-67480865D01*
X157653526Y-67482245D01*
X157653562Y-67482246D01*
X157891114Y-67494721D01*
X157891114Y-67494720D01*
X157917378Y-67496100D01*
X157917411Y-67496101D01*
X158154967Y-67508577D01*
X158154967Y-67508576D01*
X158181233Y-67509956D01*
X158181269Y-67509957D01*
X158418820Y-67522432D01*
X158418820Y-67522431D01*
X158445084Y-67523811D01*
X158445123Y-67523812D01*
X158682673Y-67536287D01*
X158682673Y-67536286D01*
X158708937Y-67537666D01*
X158708970Y-67537667D01*
X158946527Y-67550143D01*
X158946527Y-67550142D01*
X158972793Y-67551522D01*
X158972829Y-67551523D01*
X159210380Y-67563998D01*
X159210380Y-67563997D01*
X159236644Y-67565377D01*
X159236683Y-67565378D01*
X159474233Y-67577853D01*
X159474233Y-67577852D01*
X159500497Y-67579232D01*
X159500536Y-67579233D01*
X159738086Y-67591708D01*
X159738086Y-67591707D01*
X159764350Y-67593087D01*
X159764383Y-67593088D01*
X160001940Y-67605564D01*
X160001940Y-67605563D01*
X160028206Y-67606943D01*
X160028242Y-67606944D01*
X160265793Y-67619419D01*
X160265793Y-67619418D01*
X160292057Y-67620798D01*
X160292096Y-67620799D01*
X160529646Y-67633274D01*
X160529646Y-67633273D01*
X160555910Y-67634653D01*
X160555943Y-67634654D01*
X160793500Y-67647130D01*
X160793500Y-67647129D01*
X160819766Y-67648509D01*
X160819802Y-67648510D01*
X161057353Y-67660985D01*
X161057353Y-67660984D01*
X161083617Y-67662364D01*
X161083656Y-67662365D01*
X161321206Y-67674840D01*
X161321206Y-67674839D01*
X161347470Y-67676219D01*
X161347503Y-67676220D01*
X161585059Y-67688696D01*
X161585059Y-67688695D01*
X161611325Y-67690075D01*
X161611361Y-67690076D01*
X161848913Y-67702551D01*
X161848913Y-67702550D01*
X161875177Y-67703930D01*
X161875210Y-67703931D01*
X162112766Y-67716407D01*
X162112766Y-67716406D01*
X162139032Y-67717786D01*
X162139068Y-67717787D01*
X162376619Y-67730262D01*
X162376619Y-67730261D01*
X162402883Y-67731641D01*
X162402916Y-67731642D01*
X162640472Y-67744118D01*
X162640472Y-67744117D01*
X162666738Y-67745497D01*
X162666774Y-67745498D01*
X162904326Y-67757973D01*
X162904326Y-67757972D01*
X162930590Y-67759352D01*
X162930623Y-67759353D01*
X163168179Y-67771829D01*
X163168179Y-67771828D01*
X163194444Y-67773208D01*
X163194476Y-67773209D01*
X163432032Y-67785685D01*
X163432032Y-67785684D01*
X163458297Y-67787064D01*
X163458329Y-67787065D01*
X163695885Y-67799541D01*
X163695885Y-67799540D01*
X163722150Y-67800920D01*
X163722182Y-67800921D01*
X163959739Y-67813397D01*
X163959739Y-67813396D01*
X163986005Y-67814776D01*
X163986041Y-67814777D01*
X164223592Y-67827252D01*
X164223592Y-67827251D01*
X164249856Y-67828631D01*
X164249885Y-67828631D01*
X164487445Y-67841109D01*
X164487445Y-67841108D01*
X164513710Y-67842488D01*
X164513742Y-67842489D01*
X164751298Y-67854965D01*
X164751298Y-67854964D01*
X164777563Y-67856344D01*
X164777595Y-67856345D01*
X165015152Y-67868821D01*
X165015152Y-67868820D01*
X165041417Y-67870200D01*
X165041449Y-67870201D01*
X165279005Y-67882677D01*
X165279005Y-67882676D01*
X165305270Y-67884056D01*
X165305302Y-67884057D01*
X165542858Y-67896533D01*
X165542858Y-67896532D01*
X165569123Y-67897912D01*
X165569150Y-67897912D01*
X165806711Y-67910390D01*
X165806711Y-67910389D01*
X165832976Y-67911769D01*
X165833003Y-67911769D01*
X166070565Y-67924247D01*
X166070565Y-67924246D01*
X166096830Y-67925626D01*
X166096862Y-67925627D01*
X166334418Y-67938103D01*
X166334418Y-67938102D01*
X166360683Y-67939482D01*
X166360710Y-67939482D01*
X166598271Y-67951960D01*
X166598271Y-67951959D01*
X166624536Y-67953339D01*
X166624563Y-67953339D01*
X166862124Y-67965817D01*
X166862124Y-67965816D01*
X166888389Y-67967196D01*
X166888416Y-67967196D01*
X167125977Y-67979674D01*
X167125977Y-67979673D01*
X167152242Y-67981053D01*
X167152269Y-67981053D01*
X167389831Y-67993531D01*
X167389831Y-67993530D01*
X167416096Y-67994910D01*
X167416123Y-67994910D01*
X167653684Y-68007388D01*
X167679995Y-68008770D01*
X167680004Y-68008769D01*
X167917537Y-68021246D01*
X167917537Y-68021245D01*
X167943803Y-68022625D01*
X167943829Y-68022625D01*
X168181390Y-68035103D01*
X168207701Y-68036485D01*
X168207710Y-68036484D01*
X168445243Y-68048961D01*
X168445243Y-68048960D01*
X168471508Y-68050340D01*
X168471530Y-68050340D01*
X168709096Y-68062819D01*
X168709096Y-68062818D01*
X168735361Y-68064198D01*
X168735383Y-68064198D01*
X168972949Y-68076677D01*
X168972949Y-68076676D01*
X168999214Y-68078056D01*
X168999236Y-68078056D01*
X169236803Y-68090535D01*
X169236803Y-68090534D01*
X169263068Y-68091914D01*
X169263090Y-68091914D01*
X169500656Y-68104393D01*
X169500656Y-68104392D01*
X169526967Y-68105775D01*
X169526975Y-68105774D01*
X169764509Y-68118252D01*
X169764509Y-68118251D01*
X169790820Y-68119634D01*
X169790828Y-68119633D01*
X170028362Y-68132111D01*
X170028362Y-68132110D01*
X170054627Y-68133490D01*
X170054649Y-68133490D01*
X170292215Y-68145969D01*
X170292215Y-68145968D01*
X170318526Y-68147351D01*
X170318534Y-68147350D01*
X170556068Y-68159828D01*
X170556068Y-68159827D01*
X170582390Y-68161210D01*
X170582395Y-68161210D01*
X170819921Y-68173688D01*
X170819921Y-68173687D01*
X170846232Y-68175070D01*
X170846240Y-68175069D01*
X171083774Y-68187547D01*
X171083774Y-68187546D01*
X171110096Y-68188929D01*
X171110101Y-68188929D01*
X171347627Y-68201407D01*
X171347627Y-68201406D01*
X171373938Y-68202789D01*
X171373946Y-68202788D01*
X171611480Y-68215266D01*
X171611480Y-68215265D01*
X171637802Y-68216648D01*
X171637807Y-68216648D01*
X171875333Y-68229126D01*
X171875333Y-68229125D01*
X171901656Y-68230508D01*
X171901658Y-68230508D01*
X172139186Y-68242987D01*
X172139186Y-68242986D01*
X172165497Y-68244369D01*
X172165504Y-68244368D01*
X172403039Y-68256847D01*
X172403039Y-68256846D01*
X172429362Y-68258229D01*
X172429364Y-68258229D01*
X172666892Y-68270708D01*
X172666892Y-68270707D01*
X172693203Y-68272090D01*
X172693210Y-68272089D01*
X172930745Y-68284568D01*
X172930745Y-68284567D01*
X172957068Y-68285950D01*
X172957070Y-68285950D01*
X173194598Y-68298429D01*
X173194598Y-68298428D01*
X173220920Y-68299811D01*
X173220921Y-68299811D01*
X173458450Y-68312291D01*
X173458450Y-68312290D01*
X173484772Y-68313673D01*
X173484775Y-68313673D01*
X173722303Y-68326152D01*
X173722303Y-68326151D01*
X173748625Y-68327534D01*
X173748626Y-68327534D01*
X173986156Y-68340014D01*
X173986156Y-68340013D01*
X174012478Y-68341396D01*
X174012479Y-68341396D01*
X174250009Y-68353876D01*
X174250009Y-68353875D01*
X174276331Y-68355258D01*
X174276332Y-68355258D01*
X174513862Y-68367738D01*
X174513862Y-68367737D01*
X174540184Y-68369120D01*
X174540185Y-68369120D01*
X174771379Y-68381267D01*
X174783748Y-68382542D01*
X174992004Y-68414659D01*
X175016032Y-68420879D01*
X175201727Y-68489414D01*
X175223587Y-68500020D01*
X175389647Y-68601799D01*
X175408673Y-68616146D01*
X175504378Y-68703945D01*
X175551268Y-68746961D01*
X175567093Y-68764540D01*
X175682258Y-68920055D01*
X175694535Y-68940482D01*
X175778358Y-69116282D01*
X175786616Y-69139134D01*
X175835327Y-69330983D01*
X175838998Y-69355539D01*
X175849126Y-69566009D01*
X175849099Y-69578468D01*
X175835650Y-69834725D01*
X175835650Y-69834726D01*
X175821877Y-70097139D01*
X175821877Y-70097140D01*
X175808104Y-70359553D01*
X175808104Y-70359554D01*
X175794330Y-70621967D01*
X175794330Y-70621968D01*
X175780556Y-70884381D01*
X175780556Y-70884382D01*
X175766782Y-71146794D01*
X175766782Y-71146795D01*
X175753007Y-71409208D01*
X175753007Y-71409209D01*
X175739232Y-71671621D01*
X175739232Y-71671622D01*
X175739147Y-71673244D01*
X175739146Y-71673243D01*
X175739145Y-71673275D01*
X175725370Y-71935659D01*
X175725369Y-71935689D01*
X175711594Y-72198072D01*
X175711593Y-72198102D01*
X175697818Y-72460485D01*
X175697817Y-72460515D01*
X175684042Y-72722898D01*
X175684041Y-72722927D01*
X175670265Y-72985311D01*
X175670264Y-72985339D01*
X175656487Y-73247724D01*
X175656486Y-73247754D01*
X175642710Y-73510137D01*
X175642709Y-73510165D01*
X175628932Y-73772550D01*
X175628931Y-73772579D01*
X175615154Y-74034963D01*
X175615153Y-74034992D01*
X175601375Y-74297375D01*
X175601374Y-74297404D01*
X175587596Y-74559788D01*
X175587595Y-74559817D01*
X175573817Y-74822201D01*
X175573816Y-74822229D01*
X175560037Y-75084614D01*
X175560036Y-75084642D01*
X175546258Y-75347025D01*
X175546257Y-75347052D01*
X175532477Y-75609438D01*
X175532476Y-75609467D01*
X175518697Y-75871851D01*
X175518696Y-75871877D01*
X175504916Y-76134262D01*
X175504915Y-76134290D01*
X175491135Y-76396674D01*
X175491134Y-76396702D01*
X175477354Y-76659087D01*
X175477353Y-76659115D01*
X175463573Y-76921499D01*
X175463572Y-76921526D01*
X175449791Y-77183912D01*
X175449790Y-77183938D01*
X175436009Y-77446324D01*
X175436008Y-77446350D01*
X175422227Y-77708735D01*
X175422226Y-77708761D01*
X175408444Y-77971147D01*
X175408443Y-77971173D01*
X175394662Y-78233559D01*
X175394661Y-78233585D01*
X175380879Y-78495971D01*
X175380878Y-78495997D01*
X175367096Y-78758383D01*
X175367095Y-78758408D01*
X175353312Y-79020794D01*
X175353311Y-79020821D01*
X175339529Y-79283206D01*
X175339528Y-79283231D01*
X175325745Y-79545617D01*
X175325744Y-79545643D01*
X175311961Y-79808029D01*
X175311960Y-79808055D01*
X175298177Y-80070440D01*
X175298176Y-80070466D01*
X175284393Y-80332852D01*
X175284392Y-80332877D01*
X175270608Y-80595263D01*
X175270607Y-80595288D01*
X175256823Y-80857675D01*
X175256822Y-80857700D01*
X175243038Y-81120086D01*
X175243037Y-81120111D01*
X175229253Y-81382498D01*
X175229252Y-81382523D01*
X175215469Y-81644882D01*
X175215469Y-81644901D01*
X175215468Y-81644909D01*
X175215467Y-81644934D01*
X175201683Y-81907320D01*
X175201682Y-81907346D01*
X175187897Y-82169732D01*
X175187896Y-82169758D01*
X175174112Y-82432143D01*
X175174111Y-82432167D01*
X175160326Y-82694554D01*
X175160325Y-82694579D01*
X175146540Y-82956965D01*
X175146539Y-82956990D01*
X175132754Y-83219376D01*
X175132753Y-83219403D01*
X175118968Y-83481788D01*
X175118967Y-83481813D01*
X175105182Y-83744199D01*
X175105181Y-83744224D01*
X175091396Y-84006610D01*
X175091395Y-84006635D01*
X175077609Y-84269021D01*
X175077608Y-84269046D01*
X175063823Y-84531432D01*
X175063822Y-84531457D01*
X175050036Y-84793843D01*
X175050035Y-84793868D01*
X175036249Y-85056255D01*
X175036248Y-85056280D01*
X175022463Y-85318666D01*
X175022462Y-85318691D01*
X175008676Y-85581077D01*
X175008675Y-85581102D01*
X174994889Y-85843488D01*
X174994888Y-85843513D01*
X174981102Y-86105899D01*
X174981101Y-86105924D01*
X174967315Y-86368310D01*
X174967314Y-86368335D01*
X174953528Y-86630721D01*
X174953527Y-86630746D01*
X174939741Y-86893132D01*
X174939740Y-86893157D01*
X174925954Y-87155544D01*
X174925953Y-87155569D01*
X174912167Y-87417955D01*
X174912166Y-87417980D01*
X174898380Y-87680366D01*
X174898379Y-87680391D01*
X174884593Y-87942777D01*
X174884592Y-87942803D01*
X174870805Y-88205189D01*
X174870805Y-88205200D01*
X174866628Y-88284685D01*
X174857018Y-88467599D01*
X174857017Y-88467624D01*
X174843231Y-88730011D01*
X174843230Y-88730036D01*
X174829444Y-88992422D01*
X174829443Y-88992447D01*
X174815657Y-89254833D01*
X174815656Y-89254858D01*
X174801870Y-89517244D01*
X174801869Y-89517269D01*
X174788083Y-89779656D01*
X174788082Y-89779681D01*
X174774296Y-90042067D01*
X174774295Y-90042092D01*
X174760509Y-90304478D01*
X174760508Y-90304503D01*
X174746722Y-90566890D01*
X174746721Y-90566915D01*
X174732935Y-90829301D01*
X174732934Y-90829326D01*
X174719148Y-91091712D01*
X174719147Y-91091737D01*
X174705361Y-91354124D01*
X174705360Y-91354149D01*
X174691574Y-91616535D01*
X174691573Y-91616562D01*
X174677788Y-91878947D01*
X174677787Y-91878972D01*
X174664001Y-92141359D01*
X174664000Y-92141384D01*
X174650214Y-92403770D01*
X174650213Y-92403797D01*
X174636428Y-92666182D01*
X174636427Y-92666207D01*
X174622642Y-92928593D01*
X174622641Y-92928618D01*
X174608855Y-93191005D01*
X174608854Y-93191032D01*
X174595069Y-93453417D01*
X174595068Y-93453444D01*
X174581283Y-93715829D01*
X174581282Y-93715856D01*
X174567497Y-93978241D01*
X174567496Y-93978267D01*
X174553712Y-94240652D01*
X174553711Y-94240678D01*
X174539926Y-94503064D01*
X174539925Y-94503090D01*
X174526141Y-94765476D01*
X174526140Y-94765502D01*
X174512355Y-95027890D01*
X174512354Y-95027914D01*
X174498570Y-95290301D01*
X174498569Y-95290326D01*
X174484785Y-95552713D01*
X174484784Y-95552738D01*
X174471000Y-95815125D01*
X174470999Y-95815151D01*
X174457216Y-96077537D01*
X174457215Y-96077562D01*
X174443431Y-96339950D01*
X174443430Y-96339976D01*
X174429647Y-96602362D01*
X174429646Y-96602388D01*
X174415863Y-96864775D01*
X174415862Y-96864801D01*
X174402079Y-97127187D01*
X174402078Y-97127213D01*
X174388295Y-97389600D01*
X174388294Y-97389626D01*
X174374511Y-97652012D01*
X174374510Y-97652039D01*
X174360728Y-97914425D01*
X174360727Y-97914451D01*
X174346945Y-98176838D01*
X174346944Y-98176864D01*
X174333162Y-98439251D01*
X174333161Y-98439277D01*
X174319379Y-98701664D01*
X174319378Y-98701690D01*
X174305597Y-98964077D01*
X174305596Y-98964103D01*
X174291814Y-99226490D01*
X174291813Y-99226516D01*
X174278032Y-99488903D01*
X174278031Y-99488930D01*
X174264251Y-99751316D01*
X174264250Y-99751343D01*
X174250469Y-100013730D01*
X174250468Y-100013757D01*
X174236688Y-100276142D01*
X174236687Y-100276170D01*
X174222907Y-100538556D01*
X174222906Y-100538584D01*
X174209163Y-100800242D01*
X174209150Y-100800599D01*
X174198237Y-101021571D01*
X174198221Y-101022036D01*
X174187366Y-101266887D01*
X174187358Y-101267317D01*
X174176895Y-101527051D01*
X174176889Y-101527397D01*
X174166994Y-101796363D01*
X174166989Y-101796713D01*
X174157852Y-102069093D01*
X174157847Y-102069445D01*
X174149686Y-102338848D01*
X174149682Y-102339209D01*
X174142937Y-102590873D01*
X174142898Y-102591353D01*
X174137173Y-102842684D01*
X174137170Y-102843087D01*
X174132993Y-103078231D01*
X174133034Y-103078625D01*
X174130239Y-103269886D01*
X174129486Y-103321476D01*
X174129486Y-103321479D01*
X174125742Y-103579326D01*
X174125742Y-103579329D01*
X174122020Y-103837175D01*
X174122020Y-103837178D01*
X174118631Y-104073327D01*
X174118319Y-104095039D01*
X174114625Y-104353761D01*
X174114625Y-104353793D01*
X174110974Y-104610726D01*
X174110975Y-104610727D01*
X174107331Y-104868573D01*
X174107331Y-104868575D01*
X174103703Y-105126422D01*
X174103703Y-105126424D01*
X174100091Y-105384271D01*
X174100091Y-105384273D01*
X174096493Y-105642119D01*
X174096493Y-105642121D01*
X174092910Y-105899967D01*
X174092910Y-105899969D01*
X174089338Y-106157816D01*
X174089338Y-106157818D01*
X174085778Y-106415665D01*
X174085778Y-106415667D01*
X174083314Y-106594672D01*
X174082228Y-106673519D01*
X174078688Y-106931366D01*
X174075155Y-107189215D01*
X174071618Y-107447905D01*
X174071618Y-107447939D01*
X174068099Y-107705753D01*
X174068099Y-107705790D01*
X174064597Y-107962757D01*
X174064598Y-107962758D01*
X174061088Y-108220605D01*
X174061088Y-108220607D01*
X174057581Y-108478455D01*
X174057581Y-108478457D01*
X174054076Y-108736304D01*
X174054076Y-108736306D01*
X174050571Y-108994155D01*
X174050571Y-108994157D01*
X174047067Y-109252005D01*
X174047067Y-109252007D01*
X174043561Y-109509856D01*
X174043561Y-109509858D01*
X174040053Y-109767708D01*
X174040053Y-109767710D01*
X174040042Y-109768552D01*
X174040041Y-109768551D01*
X174040041Y-109768590D01*
X174036541Y-110025560D01*
X174036541Y-110025562D01*
X174033025Y-110283412D01*
X174033025Y-110283415D01*
X174029503Y-110541266D01*
X174029503Y-110541268D01*
X174025975Y-110799117D01*
X174025975Y-110799121D01*
X174022439Y-111056972D01*
X174022439Y-111056977D01*
X174018894Y-111314827D01*
X174018894Y-111314831D01*
X174015339Y-111572681D01*
X174015339Y-111572686D01*
X174011774Y-111830537D01*
X174011774Y-111830543D01*
X174008194Y-112088612D01*
X174008193Y-112088962D01*
X174007024Y-112300563D01*
X174006970Y-112301215D01*
X174006970Y-112318996D01*
X174007047Y-112319911D01*
X174008875Y-112546663D01*
X174008832Y-112547465D01*
X174008925Y-112553594D01*
X174008926Y-112553847D01*
X174013707Y-112806143D01*
X174013692Y-112806452D01*
X174013837Y-112813178D01*
X174013842Y-112813675D01*
X174013850Y-112813954D01*
X174013864Y-112814504D01*
X174013880Y-112814998D01*
X174021854Y-113095892D01*
X174021999Y-113096906D01*
X174031612Y-113355354D01*
X174031629Y-113355900D01*
X174031631Y-113355944D01*
X174031666Y-113356798D01*
X174032098Y-113368235D01*
X174032241Y-113369193D01*
X174043982Y-113624271D01*
X174044007Y-113624964D01*
X174059066Y-113896117D01*
X174059268Y-113897344D01*
X174074038Y-114119312D01*
X174074029Y-114120300D01*
X174074644Y-114128467D01*
X174074678Y-114128939D01*
X174075121Y-114135139D01*
X174075255Y-114136104D01*
X174091753Y-114341478D01*
X174091765Y-114342417D01*
X174092422Y-114349813D01*
X174115702Y-114611930D01*
X174115702Y-114611932D01*
X174130162Y-114774879D01*
X174138962Y-114874051D01*
X174138962Y-114874059D01*
X174161955Y-115133384D01*
X174161961Y-115133445D01*
X174185425Y-115398294D01*
X174185426Y-115398303D01*
X174208385Y-115657680D01*
X174208388Y-115657698D01*
X174231814Y-115922547D01*
X174231814Y-115922555D01*
X174254740Y-116181948D01*
X174254739Y-116181948D01*
X174254742Y-116181958D01*
X174277891Y-116444069D01*
X174277894Y-116444089D01*
X174278134Y-116446806D01*
X174278134Y-116446808D01*
X174301268Y-116708938D01*
X174301268Y-116708940D01*
X174323858Y-116965070D01*
X174324387Y-116971071D01*
X174324386Y-116971074D01*
X174324387Y-116971078D01*
X174347219Y-117230137D01*
X174347220Y-117230148D01*
X174347251Y-117230495D01*
X174370578Y-117495343D01*
X174370578Y-117495349D01*
X174393411Y-117754754D01*
X174393414Y-117754773D01*
X174416466Y-118016845D01*
X174416472Y-118016904D01*
X174416711Y-118019619D01*
X174416711Y-118019621D01*
X174419469Y-118050988D01*
X174439757Y-118281760D01*
X174439757Y-118281766D01*
X174449220Y-118389458D01*
X174462790Y-118543901D01*
X174462790Y-118543903D01*
X174485810Y-118806044D01*
X174485809Y-118806045D01*
X174485810Y-118806048D01*
X174508579Y-119065470D01*
X174508581Y-119065488D01*
X174531814Y-119330332D01*
X174531814Y-119330337D01*
X174544588Y-119476018D01*
X174554799Y-119592478D01*
X174554799Y-119592480D01*
X174557067Y-119618354D01*
X174577773Y-119854626D01*
X174577772Y-119854627D01*
X174577773Y-119854629D01*
X174600499Y-120114061D01*
X174600500Y-120114077D01*
X174623453Y-120376206D01*
X174623455Y-120376227D01*
X174646636Y-120641072D01*
X174646636Y-120641076D01*
X174669589Y-120903421D01*
X174669589Y-120903425D01*
X174692261Y-121162659D01*
X174692264Y-121162676D01*
X174692500Y-121165373D01*
X174692500Y-121165375D01*
X174705517Y-121314262D01*
X174715419Y-121427525D01*
X174715419Y-121427528D01*
X174738349Y-121689877D01*
X174738349Y-121689880D01*
X174760255Y-121940590D01*
X174761238Y-121951831D01*
X174761238Y-121951833D01*
X174779537Y-122161322D01*
X174784154Y-122214184D01*
X174784154Y-122214187D01*
X174806793Y-122473439D01*
X174806795Y-122473451D01*
X174829935Y-122738493D01*
X174829935Y-122738495D01*
X174852559Y-122997682D01*
X174852563Y-122997730D01*
X174852801Y-123000448D01*
X174852801Y-123000451D01*
X174875671Y-123262519D01*
X174875696Y-123262804D01*
X174875696Y-123262805D01*
X174898571Y-123524960D01*
X174898571Y-123524962D01*
X174921424Y-123786916D01*
X174921424Y-123786918D01*
X174944309Y-124049274D01*
X174944309Y-124049275D01*
X174967174Y-124311430D01*
X174990038Y-124573587D01*
X174990038Y-124573588D01*
X175012882Y-124835544D01*
X175012882Y-124835545D01*
X175035507Y-125094995D01*
X175035508Y-125095017D01*
X175058366Y-125357152D01*
X175058367Y-125357174D01*
X175081226Y-125619309D01*
X175081227Y-125619331D01*
X175104085Y-125881474D01*
X175104088Y-125881489D01*
X175126946Y-126143631D01*
X175126949Y-126143646D01*
X175127183Y-126146329D01*
X175127183Y-126146332D01*
X175150054Y-126408599D01*
X175172917Y-126670756D01*
X175195783Y-126932912D01*
X175218643Y-127194955D01*
X175218643Y-127194958D01*
X175241515Y-127457110D01*
X175241515Y-127457113D01*
X175264400Y-127719379D01*
X175264400Y-127719380D01*
X175287035Y-127978723D01*
X175287036Y-127978735D01*
X175309919Y-128240874D01*
X175309920Y-128240888D01*
X175333054Y-128505841D01*
X175355701Y-128765164D01*
X175355705Y-128765194D01*
X175355940Y-128767883D01*
X175355940Y-128767885D01*
X175378850Y-129030147D01*
X175378850Y-129030149D01*
X175401512Y-129289486D01*
X175401513Y-129289494D01*
X175401749Y-129292187D01*
X175401749Y-129292189D01*
X175424664Y-129554339D01*
X175424664Y-129554341D01*
X175441565Y-129747631D01*
X175447586Y-129816489D01*
X175447585Y-129816489D01*
X175470279Y-130075932D01*
X175470280Y-130075945D01*
X175484771Y-130241556D01*
X175493455Y-130340787D01*
X175493455Y-130340789D01*
X175516412Y-130603047D01*
X175516412Y-130603050D01*
X175538822Y-130858946D01*
X175539284Y-130871379D01*
X175536540Y-131082076D01*
X175533737Y-131106726D01*
X175491821Y-131300126D01*
X175484374Y-131323252D01*
X175406840Y-131501799D01*
X175395284Y-131522655D01*
X175285746Y-131681993D01*
X175270537Y-131700129D01*
X175132726Y-131835742D01*
X175114194Y-131850760D01*
X174951913Y-131958175D01*
X174930416Y-131969544D01*
X174747318Y-132044438D01*
X174723507Y-132051491D01*
X174516529Y-132090795D01*
X174504190Y-132092501D01*
X174253919Y-132114372D01*
X174253886Y-132114374D01*
X173994605Y-132137032D01*
X173994562Y-132137034D01*
X173735283Y-132159693D01*
X173735250Y-132159695D01*
X173475968Y-132182353D01*
X173475929Y-132182355D01*
X173216650Y-132205013D01*
X173216611Y-132205015D01*
X172957333Y-132227673D01*
X172957294Y-132227675D01*
X172698015Y-132250333D01*
X172697976Y-132250335D01*
X172438698Y-132272993D01*
X172438659Y-132272995D01*
X172179381Y-132295653D01*
X172179342Y-132295655D01*
X171920064Y-132318313D01*
X171920020Y-132318316D01*
X171660746Y-132340972D01*
X171660712Y-132340974D01*
X171401431Y-132363632D01*
X171401387Y-132363635D01*
X171142113Y-132386291D01*
X171142079Y-132386293D01*
X170882798Y-132408951D01*
X170882754Y-132408954D01*
X170623481Y-132431610D01*
X170623442Y-132431612D01*
X170364164Y-132454269D01*
X170364130Y-132454271D01*
X170104849Y-132476929D01*
X170104805Y-132476932D01*
X169845532Y-132499588D01*
X169845493Y-132499590D01*
X169586216Y-132522247D01*
X169586182Y-132522249D01*
X169326901Y-132544907D01*
X169326857Y-132544910D01*
X169067584Y-132567566D01*
X169067550Y-132567568D01*
X168808269Y-132590226D01*
X168808225Y-132590229D01*
X168548953Y-132612885D01*
X168548919Y-132612887D01*
X168289638Y-132635545D01*
X168289599Y-132635547D01*
X168030322Y-132658205D01*
X168030278Y-132658208D01*
X167771005Y-132680864D01*
X167770971Y-132680866D01*
X167511690Y-132703524D01*
X167511651Y-132703526D01*
X167252374Y-132726184D01*
X167252335Y-132726186D01*
X167005511Y-132747755D01*
X166990347Y-132749081D01*
X166990346Y-132749081D01*
X166888623Y-132757970D01*
X166733740Y-132771505D01*
X166733705Y-132771507D01*
X166488864Y-132792903D01*
X166471715Y-132794402D01*
X166471714Y-132794402D01*
X166369991Y-132803291D01*
X166215108Y-132816826D01*
X166215073Y-132816828D01*
X165970232Y-132838224D01*
X165953083Y-132839723D01*
X165953082Y-132839723D01*
X165826212Y-132850809D01*
X165696477Y-132862147D01*
X165696438Y-132862149D01*
X165434450Y-132885045D01*
X165434449Y-132885045D01*
X165423041Y-132886042D01*
X165177843Y-132907470D01*
X165177806Y-132907472D01*
X164915817Y-132930368D01*
X164915816Y-132930368D01*
X164656501Y-132953030D01*
X164656500Y-132953030D01*
X164645103Y-132954026D01*
X164397184Y-132975691D01*
X164397184Y-132975692D01*
X164397183Y-132975692D01*
X164137867Y-132998355D01*
X164137866Y-132998355D01*
X163878550Y-133021016D01*
X163878550Y-133021017D01*
X163878549Y-133021017D01*
X163619232Y-133043680D01*
X163619231Y-133043680D01*
X163359915Y-133066343D01*
X163359914Y-133066343D01*
X163100598Y-133089006D01*
X163100597Y-133089006D01*
X162841280Y-133111670D01*
X162841279Y-133111670D01*
X162829677Y-133112684D01*
X162581961Y-133134333D01*
X162581961Y-133134334D01*
X162581960Y-133134334D01*
X162503759Y-133141169D01*
X162325341Y-133156763D01*
X162325330Y-133156763D01*
X162101584Y-133176351D01*
X162101583Y-133176350D01*
X161860925Y-133197474D01*
X161860842Y-133197480D01*
X161601619Y-133220278D01*
X161601600Y-133220279D01*
X161330045Y-133244196D01*
X161330032Y-133244198D01*
X161330031Y-133244198D01*
X161287431Y-133247954D01*
X161060712Y-133267947D01*
X161060694Y-133267950D01*
X161057976Y-133268190D01*
X161057975Y-133268190D01*
X160950281Y-133277698D01*
X160789110Y-133291928D01*
X160532528Y-133314604D01*
X160532527Y-133314595D01*
X160532459Y-133314610D01*
X160531089Y-133314730D01*
X160531090Y-133314731D01*
X160529913Y-133314836D01*
X160529823Y-133314844D01*
X160529812Y-133314845D01*
X160529811Y-133314845D01*
X160286454Y-133336375D01*
X160286453Y-133336374D01*
X160068156Y-133355710D01*
X160068142Y-133355710D01*
X160068143Y-133355711D01*
X159804731Y-133379051D01*
X159804730Y-133379051D01*
X159728785Y-133385775D01*
X159546779Y-133401891D01*
X159546778Y-133401890D01*
X159546770Y-133401892D01*
X159286116Y-133424959D01*
X159286080Y-133424963D01*
X159022666Y-133448260D01*
X159022660Y-133448260D01*
X158764701Y-133471060D01*
X158764694Y-133471062D01*
X158761975Y-133471303D01*
X158761974Y-133471303D01*
X158696631Y-133477075D01*
X158504014Y-133494091D01*
X158504013Y-133494090D01*
X158504003Y-133494092D01*
X158243325Y-133517108D01*
X158243306Y-133517109D01*
X158243307Y-133517110D01*
X157979894Y-133540355D01*
X157979893Y-133540355D01*
X157721918Y-133563107D01*
X157721918Y-133563106D01*
X157721912Y-133563108D01*
X157719197Y-133563348D01*
X157719196Y-133563348D01*
X157648279Y-133569599D01*
X157461246Y-133586086D01*
X157461217Y-133586089D01*
X157458499Y-133586329D01*
X157458498Y-133586329D01*
X157197800Y-133609298D01*
X157197795Y-133609298D01*
X156937099Y-133632257D01*
X156937094Y-133632257D01*
X156679114Y-133654964D01*
X156679107Y-133654966D01*
X156676397Y-133655205D01*
X156676396Y-133655205D01*
X156586246Y-133663136D01*
X156418413Y-133677902D01*
X156418412Y-133677901D01*
X156418402Y-133677903D01*
X156158064Y-133700798D01*
X156157731Y-133700827D01*
X156156260Y-133700957D01*
X156154988Y-133701069D01*
X155894284Y-133723985D01*
X155894280Y-133723985D01*
X155633578Y-133746893D01*
X155633573Y-133746893D01*
X155375585Y-133769551D01*
X155375576Y-133769553D01*
X155372870Y-133769791D01*
X155372869Y-133769791D01*
X155112162Y-133792680D01*
X155112158Y-133792680D01*
X154854462Y-133815295D01*
X154854195Y-133815319D01*
X154851452Y-133815560D01*
X154851451Y-133815560D01*
X154590742Y-133838432D01*
X154590738Y-133838432D01*
X154330031Y-133861295D01*
X154330027Y-133861295D01*
X154072023Y-133883912D01*
X154072017Y-133883914D01*
X154069318Y-133884151D01*
X154069317Y-133884151D01*
X153845800Y-133903739D01*
X153808605Y-133906999D01*
X153808602Y-133906999D01*
X153547892Y-133929840D01*
X153547889Y-133929840D01*
X153289890Y-133952436D01*
X153289626Y-133952458D01*
X153029177Y-133975264D01*
X153029158Y-133975265D01*
X153026463Y-133975502D01*
X153026462Y-133975502D01*
X152765747Y-133998323D01*
X152765744Y-133998323D01*
X152507728Y-134020902D01*
X152507725Y-134020902D01*
X152247013Y-134043710D01*
X152247012Y-134043709D01*
X152247007Y-134043711D01*
X151986307Y-134066512D01*
X151986293Y-134066515D01*
X151983596Y-134066751D01*
X151983595Y-134066751D01*
X151722880Y-134089550D01*
X151722878Y-134089550D01*
X151462160Y-134112344D01*
X151462158Y-134112344D01*
X151201442Y-134135133D01*
X151201440Y-134135133D01*
X150943429Y-134157682D01*
X150943378Y-134157686D01*
X150682711Y-134180463D01*
X150682664Y-134180466D01*
X150421994Y-134203240D01*
X150421972Y-134203241D01*
X150419283Y-134203477D01*
X150419282Y-134203477D01*
X150158564Y-134226252D01*
X150158562Y-134226252D01*
X149900534Y-134248788D01*
X149900533Y-134248788D01*
X149639814Y-134271557D01*
X149639812Y-134271557D01*
X149379093Y-134294321D01*
X149379090Y-134294323D01*
X149118373Y-134317085D01*
X149118370Y-134317087D01*
X148857655Y-134339847D01*
X148857650Y-134339849D01*
X148596939Y-134362607D01*
X148596929Y-134362609D01*
X148336218Y-134385367D01*
X148336208Y-134385369D01*
X148075508Y-134408125D01*
X148075487Y-134408127D01*
X147814788Y-134430883D01*
X147814767Y-134430885D01*
X147554055Y-134453642D01*
X147554046Y-134453643D01*
X147293337Y-134476399D01*
X147293325Y-134476399D01*
X147293326Y-134476400D01*
X147032627Y-134499156D01*
X147032606Y-134499158D01*
X146771909Y-134521913D01*
X146771889Y-134521916D01*
X146511179Y-134544674D01*
X146511169Y-134544676D01*
X146250474Y-134567433D01*
X146250449Y-134567436D01*
X145989743Y-134590196D01*
X145989729Y-134590198D01*
X145729021Y-134612960D01*
X145729012Y-134612962D01*
X145468308Y-134635725D01*
X145468294Y-134635727D01*
X145207586Y-134658493D01*
X145207579Y-134658495D01*
X144946867Y-134681264D01*
X144946861Y-134681266D01*
X144944171Y-134681501D01*
X144944170Y-134681501D01*
X144938456Y-134682000D01*
X144686146Y-134704038D01*
X144686146Y-134704039D01*
X144425452Y-134726814D01*
X144425429Y-134726815D01*
X144425430Y-134726816D01*
X144162024Y-134749832D01*
X144162024Y-134749833D01*
X144162023Y-134749833D01*
X144127522Y-134752848D01*
X143904008Y-134772380D01*
X143904002Y-134772381D01*
X143901309Y-134772617D01*
X143901308Y-134772617D01*
X143824175Y-134779359D01*
X143640597Y-134795405D01*
X143640596Y-134795406D01*
X143640595Y-134795406D01*
X143582395Y-134800494D01*
X143379884Y-134818198D01*
X143379883Y-134818199D01*
X143379882Y-134818199D01*
X143119171Y-134840997D01*
X143119170Y-134840996D01*
X142861166Y-134863563D01*
X142861153Y-134863563D01*
X142861154Y-134863564D01*
X142603891Y-134886071D01*
X142591447Y-134886532D01*
X142380761Y-134883751D01*
X142356098Y-134880941D01*
X142162702Y-134838967D01*
X142139570Y-134831509D01*
X142108949Y-134818199D01*
X141961029Y-134753902D01*
X141940181Y-134742341D01*
X141780828Y-134632712D01*
X141762702Y-134617501D01*
X141627083Y-134479605D01*
X141612077Y-134461079D01*
X141592100Y-134430885D01*
X141504651Y-134298713D01*
X141493293Y-134277229D01*
X141418389Y-134094060D01*
X141411343Y-134070267D01*
X141372035Y-133863255D01*
X141370330Y-133850924D01*
X141369238Y-133838432D01*
X141352424Y-133646033D01*
X141352425Y-133646028D01*
X141331566Y-133407359D01*
X141331567Y-133407356D01*
X141310698Y-133168552D01*
X141310698Y-133168547D01*
X141308305Y-133141168D01*
X141308306Y-133141168D01*
X141289813Y-132929546D01*
X141287420Y-132902166D01*
X141287421Y-132902166D01*
X141268192Y-132682114D01*
X141266513Y-132662902D01*
X141266514Y-132662902D01*
X141247970Y-132450693D01*
X141247971Y-132450690D01*
X141244433Y-132410201D01*
X141227001Y-132210712D01*
X141227002Y-132210708D01*
X141224545Y-132182590D01*
X141205993Y-131970274D01*
X141205994Y-131970271D01*
X141203592Y-131942781D01*
X141185277Y-131733167D01*
X142432983Y-131733167D01*
X142626395Y-133943878D01*
X142626395Y-133943877D01*
X142626396Y-133943878D01*
X147533586Y-133514554D01*
X147450756Y-132567803D01*
X147340174Y-131303843D01*
X142432983Y-131733167D01*
X141185277Y-131733167D01*
X141184940Y-131729315D01*
X141184941Y-131729311D01*
X141180807Y-131681993D01*
X141163836Y-131487767D01*
X141163837Y-131487763D01*
X141149463Y-131323252D01*
X141142675Y-131245567D01*
X141142676Y-131245563D01*
X141140284Y-131218185D01*
X141121452Y-131002649D01*
X141121453Y-131002645D01*
X141119061Y-130975267D01*
X141109735Y-130868537D01*
X151591414Y-130868537D01*
X151831604Y-133153786D01*
X151844193Y-133212322D01*
X151844196Y-133212331D01*
X151908245Y-133341051D01*
X151908250Y-133341058D01*
X152005968Y-133446516D01*
X152129446Y-133520176D01*
X152268672Y-133556065D01*
X152328561Y-133556208D01*
X153917637Y-133389188D01*
X153630184Y-130654253D01*
X151591414Y-130868537D01*
X141109735Y-130868537D01*
X141100160Y-130758950D01*
X141100161Y-130758945D01*
X141091014Y-130654253D01*
X141086448Y-130601990D01*
X154127445Y-130601990D01*
X154414898Y-133336924D01*
X156003971Y-133169907D01*
X156062528Y-133157315D01*
X156191247Y-133093266D01*
X156296713Y-132995539D01*
X156296716Y-132995535D01*
X156370373Y-132872065D01*
X156370374Y-132872064D01*
X156406261Y-132732839D01*
X156406405Y-132672948D01*
X156166215Y-130387706D01*
X154127445Y-130601990D01*
X141086448Y-130601990D01*
X141078795Y-130514401D01*
X141078796Y-130514396D01*
X141063638Y-130340899D01*
X141057351Y-130268939D01*
X141057352Y-130268933D01*
X141047572Y-130156992D01*
X141035821Y-130022498D01*
X141035822Y-130022493D01*
X141024285Y-129890445D01*
X141014200Y-129775013D01*
X141014201Y-129775008D01*
X140994931Y-129554451D01*
X140992482Y-129526421D01*
X140992483Y-129526416D01*
X140971783Y-129289486D01*
X140970662Y-129276654D01*
X140970663Y-129276648D01*
X140967070Y-129235527D01*
X140948733Y-129025647D01*
X140948734Y-129025642D01*
X140926691Y-128773339D01*
X140926692Y-128773330D01*
X140924300Y-128745953D01*
X140904528Y-128519655D01*
X140904529Y-128519650D01*
X140882241Y-128264542D01*
X140882242Y-128264533D01*
X140866647Y-128086035D01*
X151298962Y-128086035D01*
X151539150Y-130371275D01*
X153577921Y-130156992D01*
X153290467Y-127422057D01*
X151701395Y-127589076D01*
X151642839Y-127601668D01*
X151514120Y-127665717D01*
X151408654Y-127763444D01*
X151408651Y-127763448D01*
X151334994Y-127886918D01*
X151334993Y-127886919D01*
X151299106Y-128026144D01*
X151298962Y-128086035D01*
X140866647Y-128086035D01*
X140859822Y-128007925D01*
X140859823Y-128007917D01*
X140849251Y-127886918D01*
X140837266Y-127749741D01*
X140837267Y-127749736D01*
X140824330Y-127601668D01*
X140814567Y-127489930D01*
X140814568Y-127489925D01*
X140811694Y-127457025D01*
X140804073Y-127369794D01*
X153787729Y-127369794D01*
X154075181Y-130104728D01*
X156113952Y-129890445D01*
X155873763Y-127605197D01*
X155861174Y-127546661D01*
X155861171Y-127546652D01*
X155797122Y-127417932D01*
X155797117Y-127417925D01*
X155699399Y-127312467D01*
X155575921Y-127238807D01*
X155436695Y-127202918D01*
X155376806Y-127202775D01*
X153787729Y-127369794D01*
X140804073Y-127369794D01*
X140791721Y-127228422D01*
X140791722Y-127228416D01*
X140788791Y-127194870D01*
X140768720Y-126965152D01*
X140768721Y-126965147D01*
X140766319Y-126937658D01*
X140745559Y-126700057D01*
X140745560Y-126700053D01*
X140742983Y-126670558D01*
X140722232Y-126433072D01*
X140722233Y-126433068D01*
X140719831Y-126405577D01*
X140698734Y-126164127D01*
X140698735Y-126164123D01*
X140696343Y-126136745D01*
X140675060Y-125893162D01*
X140675061Y-125893157D01*
X140672669Y-125865780D01*
X140651202Y-125620110D01*
X140651203Y-125620106D01*
X140628463Y-125359861D01*
X140627156Y-125344905D01*
X140627157Y-125344901D01*
X140605556Y-125097704D01*
X140602915Y-125067482D01*
X140602916Y-125067479D01*
X140600514Y-125039990D01*
X140578475Y-124787779D01*
X140578476Y-124787776D01*
X140553829Y-124505731D01*
X140553829Y-124505726D01*
X140551436Y-124478346D01*
X140551437Y-124478346D01*
X140528971Y-124221260D01*
X140528972Y-124221257D01*
X140503897Y-123934321D01*
X140503897Y-123934317D01*
X140501504Y-123906937D01*
X140501505Y-123906937D01*
X140476206Y-123617450D01*
X140476207Y-123617449D01*
X140450679Y-123325356D01*
X140450680Y-123325355D01*
X140424918Y-123030585D01*
X140424919Y-123030584D01*
X140399390Y-122738493D01*
X140398917Y-122733075D01*
X140398918Y-122733075D01*
X140372670Y-122432762D01*
X140372671Y-122432761D01*
X140348564Y-122156962D01*
X140348565Y-122156957D01*
X140338347Y-122040054D01*
X140321808Y-121850844D01*
X140321809Y-121850840D01*
X140314281Y-121764722D01*
X140293432Y-121526202D01*
X140293508Y-121517813D01*
X140292282Y-121513710D01*
X140291843Y-121513749D01*
X140291842Y-121513749D01*
X140288255Y-121514069D01*
X140280675Y-121517141D01*
X140150413Y-121556347D01*
X140149773Y-121556538D01*
X139948131Y-121616046D01*
X139947102Y-121616345D01*
X139699047Y-121687226D01*
X139697664Y-121687612D01*
X139417251Y-121764238D01*
X139415427Y-121764722D01*
X139115933Y-121841685D01*
X139113487Y-121842287D01*
X138808863Y-121914003D01*
X138806430Y-121914550D01*
X138557895Y-121967811D01*
X138556058Y-121968190D01*
X138306526Y-122017729D01*
X138304690Y-122018080D01*
X138054185Y-122063898D01*
X138052348Y-122064219D01*
X137801447Y-122106220D01*
X137799612Y-122106513D01*
X137548092Y-122144753D01*
X137546260Y-122145018D01*
X137294051Y-122179519D01*
X137292218Y-122179756D01*
X137039652Y-122210478D01*
X137037821Y-122210687D01*
X136784686Y-122237668D01*
X136782857Y-122237849D01*
X136529451Y-122261065D01*
X136527624Y-122261219D01*
X136273801Y-122280694D01*
X136271974Y-122280820D01*
X136018027Y-122296536D01*
X136016202Y-122296636D01*
X135761887Y-122308615D01*
X135760064Y-122308687D01*
X135505728Y-122316919D01*
X135503907Y-122316965D01*
X135249319Y-122321463D01*
X135247499Y-122321481D01*
X134993070Y-122322240D01*
X134991252Y-122322233D01*
X134736624Y-122319260D01*
X134734807Y-122319225D01*
X134480450Y-122312525D01*
X134478634Y-122312464D01*
X134224187Y-122302029D01*
X134222374Y-122301941D01*
X133968251Y-122287790D01*
X133966438Y-122287676D01*
X133712475Y-122269799D01*
X133710664Y-122269658D01*
X133457054Y-122248069D01*
X133455245Y-122247902D01*
X133201935Y-122222594D01*
X133200127Y-122222400D01*
X132947215Y-122193380D01*
X132945407Y-122193159D01*
X132692955Y-122160429D01*
X132691150Y-122160181D01*
X132439285Y-122123756D01*
X132437482Y-122123482D01*
X132186062Y-122083338D01*
X132184259Y-122083036D01*
X131933619Y-122039218D01*
X131931817Y-122038890D01*
X131681711Y-121991349D01*
X131679912Y-121990993D01*
X131430635Y-121939778D01*
X131428836Y-121939394D01*
X131180283Y-121884474D01*
X131178488Y-121884064D01*
X130930876Y-121825482D01*
X130929100Y-121825048D01*
X130856617Y-121806754D01*
X130682297Y-121762758D01*
X130680505Y-121762291D01*
X130434661Y-121696321D01*
X130432887Y-121695831D01*
X130188315Y-121626257D01*
X130186165Y-121625624D01*
X129975981Y-121561689D01*
X129973944Y-121561050D01*
X129743411Y-121486566D01*
X129741786Y-121486029D01*
X129496753Y-121403108D01*
X129495348Y-121402623D01*
X129242050Y-121313509D01*
X129240745Y-121313042D01*
X128985455Y-121220007D01*
X128984150Y-121219523D01*
X128732984Y-121124782D01*
X128731585Y-121124244D01*
X128490687Y-121030035D01*
X128489071Y-121029390D01*
X128264745Y-120938013D01*
X128262733Y-120937173D01*
X128060785Y-120850741D01*
X128058659Y-120849807D01*
X127822800Y-120743593D01*
X127821037Y-120742783D01*
X127586669Y-120632798D01*
X127584926Y-120631963D01*
X127352414Y-120518394D01*
X127350690Y-120517536D01*
X127119748Y-120400257D01*
X127118044Y-120399374D01*
X126889208Y-120278674D01*
X126887523Y-120277769D01*
X126660428Y-120153473D01*
X126658763Y-120152545D01*
X126433585Y-120024760D01*
X126431939Y-120023809D01*
X126334233Y-119966365D01*
X126208759Y-119892595D01*
X126207156Y-119891636D01*
X125985992Y-119757013D01*
X125984442Y-119756054D01*
X125765276Y-119618023D01*
X125763774Y-119617061D01*
X125546798Y-119475754D01*
X125545246Y-119474726D01*
X125330451Y-119330149D01*
X125328900Y-119329088D01*
X125116291Y-119181251D01*
X125114758Y-119180168D01*
X124904421Y-119029138D01*
X124902908Y-119028033D01*
X124694871Y-118873837D01*
X124693376Y-118872712D01*
X124487701Y-118715403D01*
X124486224Y-118714256D01*
X124282886Y-118553818D01*
X124281428Y-118552649D01*
X124080611Y-118389229D01*
X124079171Y-118388040D01*
X123952648Y-118281872D01*
X123880695Y-118221495D01*
X123879294Y-118220301D01*
X123683472Y-118050893D01*
X123682069Y-118049660D01*
X123488796Y-117877300D01*
X123487412Y-117876047D01*
X123296817Y-117700853D01*
X123295451Y-117699578D01*
X123107393Y-117521414D01*
X123106101Y-117520172D01*
X122920711Y-117339153D01*
X122919403Y-117337855D01*
X122812723Y-117230495D01*
X122736836Y-117154124D01*
X122735618Y-117152880D01*
X122555851Y-116966416D01*
X122554574Y-116965070D01*
X122377746Y-116776009D01*
X122377649Y-116775905D01*
X122376447Y-116774600D01*
X122202403Y-116582764D01*
X122201236Y-116581458D01*
X122030072Y-116386942D01*
X122028862Y-116385545D01*
X121860818Y-116188608D01*
X121860767Y-116188547D01*
X121859596Y-116187154D01*
X121855289Y-116181948D01*
X121694547Y-115987639D01*
X121693352Y-115986171D01*
X121531426Y-115784220D01*
X121530247Y-115782726D01*
X121371349Y-115578199D01*
X121370190Y-115576684D01*
X121214494Y-115369782D01*
X121213450Y-115368372D01*
X121061057Y-115159221D01*
X121059733Y-115157368D01*
X120933683Y-114977521D01*
X120932470Y-114975758D01*
X120863778Y-114874059D01*
X120796831Y-114774944D01*
X120795900Y-114773544D01*
X120654081Y-114557157D01*
X120653304Y-114555956D01*
X120508876Y-114329663D01*
X120508149Y-114328508D01*
X120364623Y-114097889D01*
X120363879Y-114096679D01*
X120242969Y-113897344D01*
X120224607Y-113867073D01*
X120223840Y-113865789D01*
X120092482Y-113643044D01*
X120091583Y-113641493D01*
X119971569Y-113431093D01*
X119970496Y-113429171D01*
X119865206Y-113236530D01*
X119864081Y-113234424D01*
X119745902Y-113007945D01*
X119745002Y-113006187D01*
X119648832Y-112814504D01*
X119630265Y-112777497D01*
X119629448Y-112775836D01*
X119518424Y-112545509D01*
X119517593Y-112543749D01*
X119410216Y-112311684D01*
X119409411Y-112309907D01*
X119311214Y-112088612D01*
X119305685Y-112076152D01*
X119304964Y-112074494D01*
X119204850Y-111838985D01*
X119204170Y-111837348D01*
X119107801Y-111600431D01*
X119107087Y-111598636D01*
X119014446Y-111360313D01*
X119013762Y-111358512D01*
X118997638Y-111315044D01*
X118924806Y-111118701D01*
X118924213Y-111117064D01*
X118838972Y-110875871D01*
X118838356Y-110874086D01*
X118833621Y-110859999D01*
X118756821Y-110631517D01*
X118756264Y-110629818D01*
X118678485Y-110386038D01*
X118677964Y-110384363D01*
X118603924Y-110139343D01*
X118603414Y-110137605D01*
X118571427Y-110025562D01*
X118533199Y-109891656D01*
X118532691Y-109889825D01*
X118500081Y-109768590D01*
X118466229Y-109642740D01*
X118465759Y-109640936D01*
X118432699Y-109510071D01*
X118403092Y-109392870D01*
X118402648Y-109391056D01*
X118343800Y-109142129D01*
X118343386Y-109140317D01*
X118288319Y-108890387D01*
X118287937Y-108888585D01*
X118256816Y-108736306D01*
X118236717Y-108637958D01*
X118236354Y-108636108D01*
X118206677Y-108478670D01*
X118188944Y-108384599D01*
X118188638Y-108382902D01*
X118145062Y-108130634D01*
X118144782Y-108128936D01*
X118105050Y-107875935D01*
X118104805Y-107874290D01*
X118068955Y-107620793D01*
X118068731Y-107619121D01*
X118036768Y-107365169D01*
X118036553Y-107363348D01*
X118008482Y-107108966D01*
X118008306Y-107107251D01*
X117984137Y-106852473D01*
X117983972Y-106850579D01*
X117963711Y-106595436D01*
X117963588Y-106593715D01*
X117947254Y-106338318D01*
X117947150Y-106336462D01*
X117934753Y-106080935D01*
X117934678Y-106079087D01*
X117928756Y-105899967D01*
X117926226Y-105823469D01*
X117926182Y-105821717D01*
X117921683Y-105566012D01*
X117921665Y-105563725D01*
X117921884Y-105344058D01*
X117921904Y-105342077D01*
X117926416Y-105099567D01*
X117926454Y-105098071D01*
X117929336Y-105010000D01*
X128000000Y-105010000D01*
X128109999Y-106229996D01*
X128110000Y-106230000D01*
X128429999Y-107369999D01*
X128430001Y-107370004D01*
X128939998Y-108429998D01*
X128940004Y-108430007D01*
X129342110Y-108994155D01*
X129610000Y-109370000D01*
X130450000Y-110190000D01*
X131410000Y-110860000D01*
X131827117Y-111056972D01*
X132489997Y-111369999D01*
X132490000Y-111370000D01*
X133650000Y-111680000D01*
X133649999Y-111680000D01*
X133759999Y-111689757D01*
X134890000Y-111790000D01*
X136124533Y-111680485D01*
X136135490Y-111680000D01*
X136140000Y-111680000D01*
X137300000Y-111370000D01*
X138370000Y-110870000D01*
X139330000Y-110200000D01*
X140160000Y-109390000D01*
X140840000Y-108440000D01*
X141234428Y-107620208D01*
X141349999Y-107380003D01*
X141349999Y-107380002D01*
X141352781Y-107370004D01*
X141670000Y-106230000D01*
X141780000Y-105010000D01*
X141670000Y-103790000D01*
X141350000Y-102650000D01*
X141292388Y-102530258D01*
X141010493Y-101944358D01*
X140840000Y-101590000D01*
X140160000Y-100640000D01*
X139330000Y-99830000D01*
X138736313Y-99415656D01*
X138369999Y-99159999D01*
X138152294Y-99058268D01*
X140361435Y-99058268D01*
X140383754Y-99134847D01*
X140383755Y-99134849D01*
X140421074Y-99181347D01*
X140421075Y-99181348D01*
X140421077Y-99181350D01*
X141618785Y-100186346D01*
X141671063Y-100215027D01*
X141730530Y-100221539D01*
X141750352Y-100223710D01*
X141750352Y-100223709D01*
X141750353Y-100223710D01*
X141826930Y-100201390D01*
X141873434Y-100164067D01*
X142897893Y-98943165D01*
X148537074Y-98943165D01*
X149063844Y-103955054D01*
X149081527Y-104012000D01*
X149132531Y-104073326D01*
X149132533Y-104073327D01*
X149203117Y-104110465D01*
X149203119Y-104110465D01*
X149203121Y-104110466D01*
X149262500Y-104115922D01*
X152882058Y-103735491D01*
X152939005Y-103717809D01*
X153000330Y-103666804D01*
X153037470Y-103596214D01*
X153042926Y-103536835D01*
X152889540Y-102077460D01*
X152902110Y-102008732D01*
X152949842Y-101957708D01*
X153012861Y-101940500D01*
X159283558Y-101940500D01*
X159291045Y-101940725D01*
X159351085Y-101944358D01*
X159410261Y-101933513D01*
X159417664Y-101932387D01*
X159421400Y-101931933D01*
X159477351Y-101925140D01*
X159486814Y-101921550D01*
X159508440Y-101915522D01*
X159509372Y-101915351D01*
X159518411Y-101913695D01*
X159573287Y-101888996D01*
X159580157Y-101886150D01*
X159636409Y-101864818D01*
X159644745Y-101859062D01*
X159664300Y-101848034D01*
X159673536Y-101843878D01*
X159720892Y-101806775D01*
X159726883Y-101802366D01*
X159776408Y-101768183D01*
X159816301Y-101723151D01*
X159821403Y-101717731D01*
X171526210Y-90012924D01*
X171531630Y-90007822D01*
X171576662Y-89967929D01*
X171610845Y-89918404D01*
X171615254Y-89912413D01*
X171652357Y-89865057D01*
X171656516Y-89855815D01*
X171667541Y-89836268D01*
X171673297Y-89827930D01*
X171673760Y-89826711D01*
X171694625Y-89771690D01*
X171697481Y-89764791D01*
X171722173Y-89709932D01*
X171723999Y-89699965D01*
X171730027Y-89678340D01*
X171733619Y-89668872D01*
X171740868Y-89609169D01*
X171741995Y-89601762D01*
X171752836Y-89542606D01*
X171749205Y-89482577D01*
X171748979Y-89475090D01*
X171748979Y-74103254D01*
X171768664Y-74036215D01*
X171821468Y-73990460D01*
X171879465Y-73979424D01*
X172540132Y-74014049D01*
X172540139Y-74014048D01*
X172540142Y-74014049D01*
X172599147Y-74011789D01*
X172610951Y-74011337D01*
X172775787Y-73969299D01*
X172925773Y-73889032D01*
X173052190Y-73775205D01*
X173147695Y-73634432D01*
X173206733Y-73474893D01*
X173216832Y-73404745D01*
X173275094Y-72293039D01*
X173274971Y-72289837D01*
X173272383Y-72222226D01*
X173272383Y-72222220D01*
X173230344Y-72057384D01*
X173150078Y-71907399D01*
X173036251Y-71780981D01*
X172895477Y-71685477D01*
X172895478Y-71685477D01*
X172895476Y-71685476D01*
X172735944Y-71626439D01*
X172735938Y-71626437D01*
X172665785Y-71616338D01*
X172665790Y-71616338D01*
X169719759Y-71461943D01*
X169556826Y-71453405D01*
X169556825Y-71453405D01*
X169556815Y-71453404D01*
X169486008Y-71456116D01*
X169321171Y-71498155D01*
X169321165Y-71498157D01*
X169171188Y-71578419D01*
X169171185Y-71578421D01*
X169044766Y-71692251D01*
X168949263Y-71833021D01*
X168890225Y-71992560D01*
X168890224Y-71992561D01*
X168880125Y-72062711D01*
X168821864Y-73174414D01*
X168821863Y-73174427D01*
X168824574Y-73245220D01*
X168824575Y-73245234D01*
X168866614Y-73410070D01*
X168946880Y-73560055D01*
X169060707Y-73686473D01*
X169187628Y-73772579D01*
X169201481Y-73781977D01*
X169361013Y-73841014D01*
X169361019Y-73841016D01*
X169431167Y-73851115D01*
X170230470Y-73893004D01*
X170296386Y-73916170D01*
X170339315Y-73971296D01*
X170347979Y-74016834D01*
X170347979Y-89158481D01*
X170328294Y-89225520D01*
X170311660Y-89246162D01*
X159054641Y-100503181D01*
X158993318Y-100536666D01*
X158966960Y-100539500D01*
X152839544Y-100539500D01*
X152772505Y-100519815D01*
X152726750Y-100467011D01*
X152716223Y-100428462D01*
X152516156Y-98524946D01*
X152498473Y-98468000D01*
X152447469Y-98406674D01*
X152447467Y-98406673D01*
X152447466Y-98406672D01*
X152376882Y-98369534D01*
X152317502Y-98364078D01*
X152317501Y-98364078D01*
X152317500Y-98364078D01*
X150565954Y-98548173D01*
X148697941Y-98744509D01*
X148640995Y-98762191D01*
X148640992Y-98762192D01*
X148579669Y-98813196D01*
X148542530Y-98883783D01*
X148542530Y-98883786D01*
X148537074Y-98943165D01*
X142897893Y-98943165D01*
X143472118Y-98258830D01*
X158330909Y-98258830D01*
X158889967Y-98288130D01*
X158889975Y-98288129D01*
X158949769Y-98284853D01*
X158949772Y-98284852D01*
X159086929Y-98241727D01*
X159086936Y-98241724D01*
X159206378Y-98161707D01*
X159206381Y-98161704D01*
X159298449Y-98051274D01*
X159298450Y-98051273D01*
X159355676Y-97919377D01*
X159355677Y-97919373D01*
X159365186Y-97860241D01*
X159485445Y-95565561D01*
X158474832Y-95512598D01*
X158330909Y-98258830D01*
X143472118Y-98258830D01*
X145112760Y-96303589D01*
X145141440Y-96251311D01*
X145141440Y-96251309D01*
X145145113Y-96239662D01*
X145148421Y-96240705D01*
X145167375Y-96195176D01*
X145176098Y-96185481D01*
X148990952Y-92370628D01*
X149052271Y-92337146D01*
X149121963Y-92342130D01*
X149166310Y-92370631D01*
X152390319Y-95594640D01*
X152395439Y-95600078D01*
X152430735Y-95639919D01*
X152434411Y-95644069D01*
X152435332Y-95645108D01*
X152484838Y-95679280D01*
X152490858Y-95683710D01*
X152538204Y-95720803D01*
X152545106Y-95723909D01*
X152547443Y-95724961D01*
X152566994Y-95735988D01*
X152572296Y-95739648D01*
X152575332Y-95741744D01*
X152631558Y-95763067D01*
X152638473Y-95765931D01*
X152693329Y-95790620D01*
X152703303Y-95792447D01*
X152724917Y-95798473D01*
X152728038Y-95799656D01*
X152734389Y-95802065D01*
X152791502Y-95808999D01*
X152794075Y-95809312D01*
X152801480Y-95810439D01*
X152818190Y-95813501D01*
X152860655Y-95821283D01*
X152920694Y-95817650D01*
X152928182Y-95817425D01*
X154570540Y-95817425D01*
X154637579Y-95837110D01*
X154683334Y-95889914D01*
X154694370Y-95947915D01*
X154608686Y-97582844D01*
X154617243Y-97641860D01*
X154642072Y-97683591D01*
X154658026Y-97710407D01*
X154658029Y-97710409D01*
X154721935Y-97758132D01*
X154721936Y-97758132D01*
X154721937Y-97758133D01*
X154779731Y-97772811D01*
X156114572Y-97842767D01*
X156341081Y-97854638D01*
X156341081Y-97854637D01*
X156341084Y-97854638D01*
X156400096Y-97846081D01*
X156468645Y-97805298D01*
X156516371Y-97741387D01*
X156519735Y-97728141D01*
X156844646Y-97728141D01*
X156844647Y-97728152D01*
X156847922Y-97787944D01*
X156891050Y-97925109D01*
X156891051Y-97925112D01*
X156971068Y-98044554D01*
X156971071Y-98044557D01*
X157081503Y-98136626D01*
X157213403Y-98193853D01*
X157272534Y-98203362D01*
X157831595Y-98232661D01*
X157975518Y-95486430D01*
X156964904Y-95433467D01*
X156844646Y-97728141D01*
X156519735Y-97728141D01*
X156531049Y-97683593D01*
X156670993Y-95013284D01*
X158501000Y-95013284D01*
X159511614Y-95066247D01*
X159631873Y-92771574D01*
X159631872Y-92771563D01*
X159628597Y-92711771D01*
X159585469Y-92574606D01*
X159585468Y-92574603D01*
X159505451Y-92455161D01*
X159505448Y-92455158D01*
X159395016Y-92363089D01*
X159263116Y-92305862D01*
X159203985Y-92296353D01*
X158644923Y-92267053D01*
X158501000Y-95013284D01*
X156670993Y-95013284D01*
X156675140Y-94934153D01*
X156991073Y-94934153D01*
X158001686Y-94987116D01*
X158145609Y-92240884D01*
X157586553Y-92211585D01*
X157586544Y-92211586D01*
X157526750Y-92214862D01*
X157526747Y-92214863D01*
X157389590Y-92257988D01*
X157389583Y-92257991D01*
X157270141Y-92338008D01*
X157270138Y-92338011D01*
X157178070Y-92448441D01*
X157178069Y-92448442D01*
X157120843Y-92580338D01*
X157120842Y-92580342D01*
X157111333Y-92639474D01*
X156991073Y-94934153D01*
X156675140Y-94934153D01*
X156794092Y-92664411D01*
X156794795Y-92651005D01*
X156792411Y-92634561D01*
X156786239Y-92591992D01*
X156786238Y-92591990D01*
X156786238Y-92591989D01*
X156761409Y-92550257D01*
X156745456Y-92523443D01*
X156745452Y-92523440D01*
X156681546Y-92475717D01*
X156652002Y-92468214D01*
X156623751Y-92461039D01*
X156488456Y-92453948D01*
X155062400Y-92379211D01*
X155003386Y-92387769D01*
X154934839Y-92428550D01*
X154934834Y-92428555D01*
X154887111Y-92492461D01*
X154879244Y-92523440D01*
X154872433Y-92550257D01*
X154866443Y-92664557D01*
X154780790Y-94298915D01*
X154757624Y-94364832D01*
X154702498Y-94407761D01*
X154656960Y-94416425D01*
X153244780Y-94416425D01*
X153177741Y-94396740D01*
X153157099Y-94380106D01*
X149282700Y-90505707D01*
X150479167Y-90505707D01*
X163555917Y-91198955D01*
X164249166Y-91235707D01*
X164249166Y-91235706D01*
X164249167Y-91235707D01*
X164959167Y-77655707D01*
X163821520Y-77595396D01*
X151189167Y-76925706D01*
X151189166Y-76925707D01*
X150486459Y-90366230D01*
X150479167Y-90505707D01*
X149282700Y-90505707D01*
X148906819Y-90129826D01*
X148873334Y-90068503D01*
X148870500Y-90042145D01*
X148870500Y-72904243D01*
X148890185Y-72837204D01*
X148942989Y-72791449D01*
X149000986Y-72780413D01*
X150570283Y-72862658D01*
X150570290Y-72862657D01*
X150570293Y-72862658D01*
X150629298Y-72860398D01*
X150641102Y-72859946D01*
X150805938Y-72817908D01*
X150955924Y-72737641D01*
X151082341Y-72623814D01*
X151177846Y-72483041D01*
X151236884Y-72323502D01*
X151246983Y-72253354D01*
X151305245Y-71141648D01*
X151302534Y-71070829D01*
X151260495Y-70905993D01*
X151180229Y-70756008D01*
X151066402Y-70629590D01*
X150925628Y-70534086D01*
X150925629Y-70534086D01*
X150925627Y-70534085D01*
X150766095Y-70475048D01*
X150766089Y-70475046D01*
X150695936Y-70464947D01*
X150695941Y-70464947D01*
X147749910Y-70310552D01*
X147586977Y-70302014D01*
X147586976Y-70302014D01*
X147586966Y-70302013D01*
X147516159Y-70304725D01*
X147351322Y-70346764D01*
X147351316Y-70346766D01*
X147201339Y-70427028D01*
X147201336Y-70427030D01*
X147074917Y-70540860D01*
X146979414Y-70681630D01*
X146920376Y-70841169D01*
X146920375Y-70841170D01*
X146910276Y-70911320D01*
X146852015Y-72023023D01*
X146852014Y-72023036D01*
X146854725Y-72093836D01*
X146854727Y-72093846D01*
X146896765Y-72258679D01*
X146977031Y-72408664D01*
X147050207Y-72489935D01*
X147090858Y-72535082D01*
X147231632Y-72630586D01*
X147388537Y-72688650D01*
X147444576Y-72730377D01*
X147469161Y-72795779D01*
X147469500Y-72804942D01*
X147469500Y-90358742D01*
X147469274Y-90366230D01*
X147465642Y-90426267D01*
X147465642Y-90426269D01*
X147476483Y-90485434D01*
X147477610Y-90492835D01*
X147484859Y-90552535D01*
X147484860Y-90552538D01*
X147488451Y-90562007D01*
X147494474Y-90583610D01*
X147496304Y-90593594D01*
X147520991Y-90648446D01*
X147523854Y-90655358D01*
X147545182Y-90711594D01*
X147545957Y-90712717D01*
X147550936Y-90719930D01*
X147561961Y-90739477D01*
X147566120Y-90748719D01*
X147566124Y-90748724D01*
X147603215Y-90796067D01*
X147607655Y-90802102D01*
X147641812Y-90851588D01*
X147641816Y-90851593D01*
X147686828Y-90891469D01*
X147692283Y-90896604D01*
X148000291Y-91204612D01*
X148033776Y-91265935D01*
X148028792Y-91335627D01*
X148000291Y-91379974D01*
X144214295Y-95165970D01*
X144152972Y-95199455D01*
X144083280Y-95194471D01*
X144046909Y-95173279D01*
X143938624Y-95082417D01*
X143892773Y-95043944D01*
X143892767Y-95043940D01*
X143892763Y-95043938D01*
X143840496Y-95015263D01*
X143840491Y-95015262D01*
X143761205Y-95006579D01*
X143684631Y-95028898D01*
X143684628Y-95028900D01*
X143638125Y-95066221D01*
X141248177Y-97914451D01*
X140434811Y-98883783D01*
X140398794Y-98926706D01*
X140370118Y-98978978D01*
X140370117Y-98978981D01*
X140361435Y-99058268D01*
X138152294Y-99058268D01*
X137870740Y-98926701D01*
X137300000Y-98660000D01*
X137299995Y-98659998D01*
X137299994Y-98659998D01*
X136500358Y-98441294D01*
X139073173Y-98441294D01*
X139502014Y-98801135D01*
X139502032Y-98801148D01*
X139551759Y-98834517D01*
X139687255Y-98882619D01*
X139687251Y-98882619D01*
X139830808Y-98890598D01*
X139970801Y-98857810D01*
X139970805Y-98857809D01*
X140095879Y-98786914D01*
X140095881Y-98786912D01*
X140139055Y-98745416D01*
X140139056Y-98745415D01*
X141616076Y-96985171D01*
X140840840Y-96334670D01*
X139073173Y-98441294D01*
X136500358Y-98441294D01*
X136130006Y-98340001D01*
X136129993Y-98339999D01*
X134890000Y-98230000D01*
X133650006Y-98339999D01*
X133649993Y-98340001D01*
X132480005Y-98659998D01*
X132480001Y-98659999D01*
X132480000Y-98660000D01*
X132299151Y-98744509D01*
X131410004Y-99159997D01*
X131410002Y-99159998D01*
X130460000Y-99819998D01*
X129619998Y-100650001D01*
X128939998Y-101590001D01*
X128939997Y-101590003D01*
X128430001Y-102649995D01*
X128429999Y-102650000D01*
X128110000Y-103789999D01*
X128109999Y-103790003D01*
X128000000Y-105009999D01*
X128000000Y-105010000D01*
X117929336Y-105010000D01*
X117934919Y-104839410D01*
X117934967Y-104838194D01*
X117947045Y-104569879D01*
X117947112Y-104568580D01*
X117962439Y-104297349D01*
X117962527Y-104295923D01*
X117975153Y-104110465D01*
X117980764Y-104028047D01*
X117980877Y-104026541D01*
X117999936Y-103790003D01*
X118001628Y-103768996D01*
X118001781Y-103767259D01*
X118024719Y-103526086D01*
X118024947Y-103523906D01*
X118049691Y-103305713D01*
X118049961Y-103303522D01*
X118084097Y-103046768D01*
X118084354Y-103044940D01*
X118122615Y-102788717D01*
X118122900Y-102786902D01*
X118165267Y-102531241D01*
X118165598Y-102529342D01*
X118212012Y-102274494D01*
X118212371Y-102272613D01*
X118252716Y-102069445D01*
X118262821Y-102018554D01*
X118263209Y-102016680D01*
X118264919Y-102008732D01*
X118317663Y-101763482D01*
X118318087Y-101761587D01*
X118328249Y-101717714D01*
X118376533Y-101509248D01*
X118376980Y-101507388D01*
X118439399Y-101255942D01*
X118439825Y-101254281D01*
X118506221Y-101003680D01*
X118506720Y-101001858D01*
X118576945Y-100752607D01*
X118577484Y-100750750D01*
X118607573Y-100650001D01*
X118651635Y-100502465D01*
X118652184Y-100500679D01*
X118662813Y-100467011D01*
X118730179Y-100253605D01*
X118730766Y-100251798D01*
X118743005Y-100215027D01*
X118812619Y-100005876D01*
X118813151Y-100004317D01*
X118898840Y-99759596D01*
X118899433Y-99757942D01*
X118988891Y-99514600D01*
X118989495Y-99512998D01*
X119082684Y-99271122D01*
X119083337Y-99269467D01*
X119180267Y-99029012D01*
X119180980Y-99027284D01*
X119281562Y-98788472D01*
X119282269Y-98786830D01*
X119386572Y-98549488D01*
X119387338Y-98547781D01*
X119397797Y-98524944D01*
X119495254Y-98312148D01*
X119495980Y-98310595D01*
X119607596Y-98076493D01*
X119608418Y-98074806D01*
X119723510Y-97842699D01*
X119724306Y-97841124D01*
X119843090Y-97610582D01*
X119843872Y-97609093D01*
X119928017Y-97451797D01*
X138116112Y-97451797D01*
X138148897Y-97591785D01*
X138148898Y-97591788D01*
X138219797Y-97716868D01*
X138261298Y-97760048D01*
X138690151Y-98119899D01*
X140457817Y-96013277D01*
X140384372Y-95951649D01*
X141162233Y-95951649D01*
X141937469Y-96602150D01*
X143414483Y-94841915D01*
X143414484Y-94841914D01*
X143447859Y-94792180D01*
X143495961Y-94656688D01*
X143503939Y-94513130D01*
X143471154Y-94373142D01*
X143471153Y-94373139D01*
X143400254Y-94248059D01*
X143358753Y-94204879D01*
X142929899Y-93845027D01*
X141162233Y-95951649D01*
X140384372Y-95951649D01*
X139682581Y-95362776D01*
X138205564Y-97123018D01*
X138172192Y-97172747D01*
X138124090Y-97308239D01*
X138116112Y-97451797D01*
X119928017Y-97451797D01*
X119966181Y-97380456D01*
X119967016Y-97378925D01*
X120092818Y-97152256D01*
X120093739Y-97150628D01*
X120107228Y-97127187D01*
X120222962Y-96926061D01*
X120223868Y-96924514D01*
X120356542Y-96702009D01*
X120357671Y-96700153D01*
X120473717Y-96513519D01*
X120474750Y-96511889D01*
X120606476Y-96308108D01*
X120607263Y-96306912D01*
X120750881Y-96091441D01*
X120751534Y-96090475D01*
X120903365Y-95868589D01*
X120903922Y-95867785D01*
X121060193Y-95644889D01*
X121060708Y-95644164D01*
X121217532Y-95425818D01*
X121218210Y-95424886D01*
X121371789Y-95216497D01*
X121372817Y-95215123D01*
X121384711Y-95199455D01*
X121519351Y-95022093D01*
X121520612Y-95020463D01*
X121552672Y-94979754D01*
X140003973Y-94979754D01*
X140779210Y-95630256D01*
X142546877Y-93523632D01*
X142118037Y-93163792D01*
X142118019Y-93163779D01*
X142068292Y-93130410D01*
X141932796Y-93082308D01*
X141932800Y-93082308D01*
X141789243Y-93074329D01*
X141649250Y-93107117D01*
X141649246Y-93107118D01*
X141524172Y-93178013D01*
X141524170Y-93178015D01*
X141480996Y-93219511D01*
X141480985Y-93219522D01*
X140003973Y-94979754D01*
X121552672Y-94979754D01*
X121656586Y-94847808D01*
X121657977Y-94846078D01*
X121819610Y-94648574D01*
X121820756Y-94647195D01*
X121985608Y-94451986D01*
X121986711Y-94450702D01*
X121986742Y-94450667D01*
X122154465Y-94258147D01*
X122155685Y-94256767D01*
X122326420Y-94066749D01*
X122327571Y-94065487D01*
X122501179Y-93878113D01*
X122502375Y-93876842D01*
X122678794Y-93692155D01*
X122680032Y-93690880D01*
X122859228Y-93508899D01*
X122860482Y-93507645D01*
X123042499Y-93328315D01*
X123043666Y-93327183D01*
X123228415Y-93150580D01*
X123229580Y-93149482D01*
X123417034Y-92975625D01*
X123418224Y-92974540D01*
X123608119Y-92803653D01*
X123609389Y-92802528D01*
X123801796Y-92634538D01*
X123803178Y-92633351D01*
X123906110Y-92546162D01*
X123998182Y-92468174D01*
X123999436Y-92467128D01*
X124196934Y-92304851D01*
X124198176Y-92303846D01*
X124398182Y-92144455D01*
X124399417Y-92143486D01*
X124601560Y-91987268D01*
X124602937Y-91986221D01*
X124807391Y-91833028D01*
X124808783Y-91832000D01*
X125015723Y-91681709D01*
X125016930Y-91680846D01*
X125226016Y-91533703D01*
X125227336Y-91532789D01*
X125438534Y-91388816D01*
X125439906Y-91387897D01*
X125653153Y-91247133D01*
X125654670Y-91246147D01*
X125869930Y-91108616D01*
X125871458Y-91107657D01*
X126088716Y-90973369D01*
X126090199Y-90972466D01*
X126309691Y-90841283D01*
X126311160Y-90840421D01*
X126532362Y-90712663D01*
X126533790Y-90711852D01*
X126756954Y-90587375D01*
X126758525Y-90586514D01*
X126983534Y-90465391D01*
X126985064Y-90464583D01*
X127211910Y-90346828D01*
X127213387Y-90346076D01*
X127441870Y-90231799D01*
X127443414Y-90231041D01*
X127673715Y-90120163D01*
X127675247Y-90119441D01*
X127906830Y-90012222D01*
X127908884Y-90011294D01*
X127909993Y-90010805D01*
X128109843Y-89922673D01*
X128111689Y-89921878D01*
X128335152Y-89827924D01*
X128336667Y-89827299D01*
X128576517Y-89730344D01*
X128577818Y-89729829D01*
X128827918Y-89632209D01*
X128829078Y-89631763D01*
X129083473Y-89535736D01*
X129084423Y-89535383D01*
X129336808Y-89443335D01*
X129338045Y-89442892D01*
X129582227Y-89357157D01*
X129583624Y-89356677D01*
X129813508Y-89279548D01*
X129815523Y-89278892D01*
X130024955Y-89212672D01*
X130027048Y-89212032D01*
X130270956Y-89139827D01*
X130272578Y-89139360D01*
X130517816Y-89070802D01*
X130519346Y-89070387D01*
X130765608Y-89005549D01*
X130767132Y-89005160D01*
X131014494Y-88944012D01*
X131016060Y-88943638D01*
X131264029Y-88886285D01*
X131265687Y-88885915D01*
X131514526Y-88832277D01*
X131516176Y-88831935D01*
X131765725Y-88782035D01*
X131767474Y-88781699D01*
X132017824Y-88735507D01*
X132019420Y-88735225D01*
X132270432Y-88692757D01*
X132272177Y-88692475D01*
X132523791Y-88653732D01*
X132525410Y-88653495D01*
X132777722Y-88618454D01*
X132779257Y-88618252D01*
X133031919Y-88586953D01*
X133033569Y-88586761D01*
X133286728Y-88559175D01*
X133288317Y-88559014D01*
X133541893Y-88535146D01*
X133543531Y-88535004D01*
X133797501Y-88514853D01*
X133799067Y-88514741D01*
X134053208Y-88498316D01*
X134054842Y-88498222D01*
X134309177Y-88485518D01*
X134310785Y-88485450D01*
X134565314Y-88476461D01*
X134567047Y-88476413D01*
X134821568Y-88471143D01*
X134823160Y-88471121D01*
X135077904Y-88469564D01*
X135079551Y-88469565D01*
X135334269Y-88471726D01*
X135335913Y-88471752D01*
X135590473Y-88477625D01*
X135592204Y-88477677D01*
X135846597Y-88487260D01*
X135848341Y-88487338D01*
X136102604Y-88500634D01*
X136104359Y-88500739D01*
X136358477Y-88517753D01*
X136360092Y-88517873D01*
X136613830Y-88538590D01*
X136615623Y-88538749D01*
X136869076Y-88563180D01*
X136870680Y-88563347D01*
X137123783Y-88591491D01*
X137125402Y-88591683D01*
X137378063Y-88623535D01*
X137379731Y-88623757D01*
X137631853Y-88659313D01*
X137633557Y-88659566D01*
X137885150Y-88698833D01*
X137886801Y-88699104D01*
X138137722Y-88742067D01*
X138139434Y-88742373D01*
X138389638Y-88789033D01*
X138391403Y-88789375D01*
X138640949Y-88839750D01*
X138642503Y-88840075D01*
X138887627Y-88893363D01*
X138891353Y-88894173D01*
X138893155Y-88894579D01*
X138944526Y-88906551D01*
X139141025Y-88952345D01*
X139142618Y-88952729D01*
X139382785Y-89012501D01*
X139387513Y-89014002D01*
X139393989Y-89015366D01*
X139398893Y-89015878D01*
X139641115Y-89057781D01*
X139642821Y-89058092D01*
X139644457Y-89058070D01*
X139863208Y-89057134D01*
X139863779Y-89057190D01*
X139875793Y-89057090D01*
X139875796Y-89057091D01*
X139875798Y-89057090D01*
X139875844Y-89057090D01*
X139875888Y-89057081D01*
X139875891Y-89057081D01*
X139875894Y-89057079D01*
X139875902Y-89057078D01*
X139887175Y-89054779D01*
X139887851Y-89054566D01*
X140073297Y-89015734D01*
X140077125Y-89015247D01*
X140079097Y-89014733D01*
X140083021Y-89013850D01*
X140086524Y-89012233D01*
X140089552Y-89010946D01*
X140092746Y-89009071D01*
X140251552Y-88933230D01*
X140257379Y-88930847D01*
X140258906Y-88929831D01*
X140263326Y-88925418D01*
X140390427Y-88812018D01*
X140394065Y-88809023D01*
X140394450Y-88808552D01*
X140396578Y-88804524D01*
X140482574Y-88655703D01*
X140484720Y-88652294D01*
X140485248Y-88650913D01*
X140485880Y-88647148D01*
X140490657Y-88623767D01*
X140521778Y-88471446D01*
X140522783Y-88468032D01*
X140523320Y-88464703D01*
X140524018Y-88461082D01*
X140523942Y-88457456D01*
X140523971Y-88454212D01*
X140523527Y-88450516D01*
X140522449Y-88420158D01*
X140515534Y-88225480D01*
X140515499Y-88222368D01*
X140514902Y-88219595D01*
X140469040Y-87983497D01*
X140468361Y-87979168D01*
X140466945Y-87975349D01*
X140387847Y-87742018D01*
X140386442Y-87737246D01*
X140384182Y-87732945D01*
X140358113Y-87678741D01*
X140275667Y-87507313D01*
X140273667Y-87502728D01*
X140270758Y-87498523D01*
X140137074Y-87286913D01*
X140134711Y-87282843D01*
X140131626Y-87279289D01*
X140030425Y-87153919D01*
X139975971Y-87086460D01*
X139973234Y-87082807D01*
X139969926Y-87079817D01*
X139799734Y-86915320D01*
X139795965Y-86911676D01*
X139793452Y-86909103D01*
X139790799Y-86907259D01*
X139619092Y-86782173D01*
X139606468Y-86772976D01*
X139603115Y-86770146D01*
X139602623Y-86769836D01*
X139597330Y-86766253D01*
X139593684Y-86764222D01*
X139382765Y-86632072D01*
X139381185Y-86631065D01*
X139167735Y-86492796D01*
X139166174Y-86491768D01*
X138954708Y-86350214D01*
X138953168Y-86349167D01*
X138743866Y-86204463D01*
X138742432Y-86203456D01*
X138535242Y-86055573D01*
X138533900Y-86054600D01*
X138328961Y-85903648D01*
X138327480Y-85902540D01*
X138124869Y-85748588D01*
X138123407Y-85747459D01*
X137923172Y-85590554D01*
X137921786Y-85589452D01*
X137723839Y-85429536D01*
X137722421Y-85428373D01*
X137611501Y-85336009D01*
X137526721Y-85265411D01*
X137525476Y-85264359D01*
X137332312Y-85098598D01*
X137330940Y-85097402D01*
X137140330Y-84928867D01*
X137138964Y-84927641D01*
X136950722Y-84756169D01*
X136949376Y-84754925D01*
X136763873Y-84580859D01*
X136762601Y-84579647D01*
X136588566Y-84411434D01*
X136579572Y-84402741D01*
X136578300Y-84401493D01*
X136397910Y-84221905D01*
X136396620Y-84220602D01*
X136218943Y-84038403D01*
X136217672Y-84037080D01*
X136042695Y-83852257D01*
X136041443Y-83850915D01*
X136022103Y-83829872D01*
X135869291Y-83663599D01*
X135868064Y-83662244D01*
X135698672Y-83472360D01*
X135697458Y-83470979D01*
X135530871Y-83278570D01*
X135529677Y-83277169D01*
X135369684Y-83086736D01*
X135366175Y-83082089D01*
X135366076Y-83081982D01*
X135361795Y-83078123D01*
X135271406Y-82989918D01*
X135190794Y-82911254D01*
X135188690Y-82908865D01*
X135185241Y-82905740D01*
X135184068Y-82904645D01*
X135182962Y-82903950D01*
X135178421Y-82901017D01*
X135175564Y-82899605D01*
X134992876Y-82790777D01*
X134989081Y-82788182D01*
X134986288Y-82786631D01*
X134982848Y-82785526D01*
X134978411Y-82784572D01*
X134785005Y-82729872D01*
X134779967Y-82728142D01*
X134778407Y-82727767D01*
X134776750Y-82727698D01*
X134771458Y-82727995D01*
X134573808Y-82728292D01*
X134570019Y-82728100D01*
X134569394Y-82728145D01*
X134567272Y-82728256D01*
X134565294Y-82728715D01*
X134564366Y-82728912D01*
X134560737Y-82730164D01*
X134366650Y-82785610D01*
X134362898Y-82786445D01*
X134362016Y-82786757D01*
X134359575Y-82787557D01*
X134357633Y-82788620D01*
X134355624Y-82789671D01*
X134352417Y-82791887D01*
X134169539Y-82901259D01*
X134166502Y-82902785D01*
X134163285Y-82904895D01*
X134161597Y-82905959D01*
X134160123Y-82907335D01*
X134157295Y-82909879D01*
X134155057Y-82912412D01*
X133984546Y-83079049D01*
X133980897Y-83082294D01*
X133979810Y-83083466D01*
X133976870Y-83087277D01*
X133814799Y-83280180D01*
X133813555Y-83281637D01*
X133645809Y-83475146D01*
X133644548Y-83476579D01*
X133473804Y-83667526D01*
X133472526Y-83668933D01*
X133298829Y-83857290D01*
X133297533Y-83858674D01*
X133121032Y-84044295D01*
X133119722Y-84045652D01*
X132940395Y-84228591D01*
X132939067Y-84229925D01*
X132756966Y-84410139D01*
X132755624Y-84411447D01*
X132570802Y-84588904D01*
X132569443Y-84590189D01*
X132382042Y-84764768D01*
X132380669Y-84766028D01*
X132190570Y-84937857D01*
X132189181Y-84939094D01*
X131996554Y-85108027D01*
X131995151Y-85109239D01*
X131799999Y-85275290D01*
X131798580Y-85276479D01*
X131600940Y-85439625D01*
X131599507Y-85440790D01*
X131399538Y-85600911D01*
X131398090Y-85602054D01*
X131195593Y-85759313D01*
X131194131Y-85760430D01*
X130989454Y-85914568D01*
X130987977Y-85915664D01*
X130780982Y-86066789D01*
X130779491Y-86067861D01*
X130706090Y-86119801D01*
X130585949Y-86204817D01*
X130570213Y-86215952D01*
X130568706Y-86217001D01*
X130357417Y-86361868D01*
X130355897Y-86362894D01*
X130142280Y-86504761D01*
X130140745Y-86505764D01*
X129925177Y-86644376D01*
X129923628Y-86645356D01*
X129706062Y-86780749D01*
X129704499Y-86781706D01*
X129484819Y-86913951D01*
X129483240Y-86914885D01*
X129261753Y-87043793D01*
X129260161Y-87044704D01*
X129036812Y-87170309D01*
X129035204Y-87171198D01*
X128809904Y-87293543D01*
X128808282Y-87294408D01*
X128581231Y-87413380D01*
X128579594Y-87414222D01*
X128350870Y-87529775D01*
X128349219Y-87530594D01*
X128118797Y-87642737D01*
X128117130Y-87643533D01*
X127885053Y-87752237D01*
X127883372Y-87753009D01*
X127649724Y-87858227D01*
X127648027Y-87858976D01*
X127412872Y-87960670D01*
X127411161Y-87961395D01*
X127174437Y-88059583D01*
X127172709Y-88060285D01*
X126934643Y-88154860D01*
X126932902Y-88155536D01*
X126693371Y-88246540D01*
X126691665Y-88247173D01*
X126455128Y-88332971D01*
X126450816Y-88334536D01*
X126449044Y-88335163D01*
X126206897Y-88418863D01*
X126205109Y-88419466D01*
X125961742Y-88499464D01*
X125959939Y-88500042D01*
X125715376Y-88576315D01*
X125713556Y-88576867D01*
X125467773Y-88649405D01*
X125465940Y-88649931D01*
X125219366Y-88718597D01*
X125217126Y-88719198D01*
X125004560Y-88774132D01*
X125002404Y-88774668D01*
X124766857Y-88831059D01*
X124765110Y-88831464D01*
X124512899Y-88888001D01*
X124511364Y-88888335D01*
X124248814Y-88943706D01*
X124247478Y-88943979D01*
X123981067Y-88996845D01*
X123979680Y-88997111D01*
X123716004Y-89046118D01*
X123714392Y-89046407D01*
X123459629Y-89090285D01*
X123457739Y-89090595D01*
X123218701Y-89127974D01*
X123216310Y-89128324D01*
X122998996Y-89157979D01*
X122996612Y-89158280D01*
X122743273Y-89187750D01*
X122741485Y-89187944D01*
X122487544Y-89213676D01*
X122485826Y-89213838D01*
X122231401Y-89236046D01*
X122229789Y-89236176D01*
X121974926Y-89255078D01*
X121973426Y-89255180D01*
X121718254Y-89270997D01*
X121716863Y-89271076D01*
X121461348Y-89284034D01*
X121460070Y-89284092D01*
X121204165Y-89294424D01*
X121202997Y-89294466D01*
X120946756Y-89302393D01*
X120945699Y-89302421D01*
X120689173Y-89308167D01*
X120688226Y-89308184D01*
X120431919Y-89311968D01*
X120431084Y-89311978D01*
X120174105Y-89314041D01*
X120173380Y-89314045D01*
X119916355Y-89314605D01*
X119915741Y-89314605D01*
X119658367Y-89313891D01*
X119657863Y-89313888D01*
X119400733Y-89312129D01*
X119400338Y-89312126D01*
X119143137Y-89309547D01*
X119142853Y-89309544D01*
X118885122Y-89306369D01*
X118884946Y-89306366D01*
X118633843Y-89302918D01*
X118621417Y-89302122D01*
X118411805Y-89278082D01*
X118387701Y-89272849D01*
X118198765Y-89211610D01*
X118176664Y-89201983D01*
X118005759Y-89106800D01*
X117986303Y-89093387D01*
X117930415Y-89046407D01*
X117837466Y-88968273D01*
X117821021Y-88951551D01*
X117698455Y-88800687D01*
X117685350Y-88780973D01*
X117660876Y-88735208D01*
X117593174Y-88608605D01*
X117583907Y-88586277D01*
X117526078Y-88396496D01*
X117521262Y-88372215D01*
X117517764Y-88335809D01*
X117501095Y-88162312D01*
X117500530Y-88149819D01*
X117500995Y-88059937D01*
X117501277Y-88005384D01*
X117501276Y-88005382D01*
X117501329Y-87995240D01*
X117501328Y-87995219D01*
X117502051Y-87854748D01*
X117502050Y-87854746D01*
X117502122Y-87840740D01*
X117502078Y-87840347D01*
X117502250Y-87752626D01*
X117502485Y-87632825D01*
X117502484Y-87632824D01*
X117502483Y-87632776D01*
X117502531Y-87608711D01*
X117502451Y-87608307D01*
X117502348Y-87531131D01*
X117502159Y-87388472D01*
X117502158Y-87388471D01*
X117502140Y-87374306D01*
X117502121Y-87374153D01*
X117501499Y-87128104D01*
X117501498Y-87128102D01*
X117500933Y-86858133D01*
X117500932Y-86858132D01*
X117500887Y-86585165D01*
X117501788Y-86315182D01*
X117504064Y-86055110D01*
X117504074Y-86054325D01*
X117506390Y-85915664D01*
X117508133Y-85811272D01*
X117508166Y-85809839D01*
X117514429Y-85589634D01*
X117514486Y-85588015D01*
X117525255Y-85337585D01*
X117525329Y-85336101D01*
X117539469Y-85085761D01*
X117539571Y-85084151D01*
X117557095Y-84834105D01*
X117557220Y-84832487D01*
X117560459Y-84793843D01*
X117578150Y-84582762D01*
X117578285Y-84581282D01*
X117602658Y-84331782D01*
X117602833Y-84330113D01*
X117609658Y-84269021D01*
X117630646Y-84081128D01*
X117630847Y-84079445D01*
X117635090Y-84045743D01*
X117662145Y-83830831D01*
X117662357Y-83829240D01*
X117697152Y-83581124D01*
X117697371Y-83579635D01*
X117735707Y-83331943D01*
X117735982Y-83330245D01*
X117744221Y-83281637D01*
X117777812Y-83083431D01*
X117778120Y-83081697D01*
X117823540Y-82835395D01*
X117823851Y-82833773D01*
X117872854Y-82588183D01*
X117873218Y-82586427D01*
X117925816Y-82341657D01*
X117926217Y-82339859D01*
X117982378Y-82096190D01*
X117982910Y-82093974D01*
X118036169Y-81880868D01*
X118036681Y-81878895D01*
X118099591Y-81644855D01*
X118100046Y-81643210D01*
X118100067Y-81643138D01*
X118170725Y-81394369D01*
X118171143Y-81392936D01*
X118174247Y-81382498D01*
X118247644Y-81135646D01*
X118248012Y-81134433D01*
X118328445Y-80874835D01*
X118328847Y-80873565D01*
X118333971Y-80857675D01*
X118411267Y-80617954D01*
X118411662Y-80616758D01*
X118494086Y-80371529D01*
X118494648Y-80369898D01*
X118575111Y-80141360D01*
X118575797Y-80139466D01*
X118652476Y-79933510D01*
X118653237Y-79931523D01*
X118747586Y-79692075D01*
X118748297Y-79690315D01*
X118807946Y-79545643D01*
X118846435Y-79452288D01*
X118847113Y-79450676D01*
X118949055Y-79214008D01*
X118949735Y-79212464D01*
X119055303Y-78977530D01*
X119056085Y-78975826D01*
X119165234Y-78742665D01*
X119165991Y-78741079D01*
X119278785Y-78509526D01*
X119279554Y-78507978D01*
X119395904Y-78278183D01*
X119396728Y-78276589D01*
X119516509Y-78048760D01*
X119517371Y-78047149D01*
X119640683Y-77821070D01*
X119641561Y-77819491D01*
X119704166Y-77708761D01*
X119768280Y-77595360D01*
X119769151Y-77593846D01*
X119899333Y-77371547D01*
X119900271Y-77369975D01*
X120033756Y-77149759D01*
X120034662Y-77148290D01*
X120171443Y-76930146D01*
X120172399Y-76928647D01*
X120174305Y-76925707D01*
X120312546Y-76712448D01*
X120313472Y-76711042D01*
X120456901Y-76496914D01*
X120457832Y-76495546D01*
X120604486Y-76283559D01*
X120605501Y-76282117D01*
X120712366Y-76132492D01*
X120755196Y-76072524D01*
X120756256Y-76071064D01*
X120909072Y-75863734D01*
X120910100Y-75862362D01*
X121066113Y-75657190D01*
X121067142Y-75655857D01*
X121226176Y-75453073D01*
X121227249Y-75451728D01*
X121389259Y-75251383D01*
X121390351Y-75250053D01*
X121555395Y-75052072D01*
X121556406Y-75050878D01*
X121724441Y-74855315D01*
X121725542Y-74854054D01*
X121896388Y-74661116D01*
X121897521Y-74659856D01*
X122071233Y-74469482D01*
X122072469Y-74468149D01*
X122072533Y-74468081D01*
X122248989Y-74280403D01*
X122250126Y-74279212D01*
X122429421Y-74094135D01*
X122430606Y-74092929D01*
X122612735Y-73910466D01*
X122613950Y-73909269D01*
X122798640Y-73729695D01*
X122799853Y-73728533D01*
X122987323Y-73551645D01*
X122988506Y-73550545D01*
X123178692Y-73376419D01*
X123179914Y-73375318D01*
X123372559Y-73204193D01*
X123373782Y-73203122D01*
X123569143Y-73034784D01*
X123570171Y-73033911D01*
X123763497Y-72872351D01*
X123768816Y-72868370D01*
X123773232Y-72863385D01*
X123938844Y-72694682D01*
X123941734Y-72692192D01*
X123943175Y-72690582D01*
X123946273Y-72687366D01*
X123948585Y-72683613D01*
X123949947Y-72681568D01*
X123951650Y-72678093D01*
X123980149Y-72630586D01*
X124059932Y-72497591D01*
X124062635Y-72493735D01*
X124064712Y-72490053D01*
X124066062Y-72485728D01*
X124066998Y-72481241D01*
X124121658Y-72289832D01*
X124123775Y-72283769D01*
X124124080Y-72281534D01*
X124123650Y-72274829D01*
X124123621Y-72079498D01*
X124123913Y-72074283D01*
X124123841Y-72072535D01*
X124123129Y-72069622D01*
X124121495Y-72064997D01*
X124120842Y-72062711D01*
X124066739Y-71873362D01*
X124065795Y-71868958D01*
X124064625Y-71865250D01*
X124062780Y-71861931D01*
X124060150Y-71858139D01*
X123951350Y-71676692D01*
X123949804Y-71673561D01*
X123947846Y-71670581D01*
X123946147Y-71667839D01*
X123943892Y-71665454D01*
X123942089Y-71663436D01*
X123939291Y-71660993D01*
X123773049Y-71491443D01*
X123769166Y-71487073D01*
X123764539Y-71483522D01*
X123571302Y-71321722D01*
X123569843Y-71320481D01*
X123376037Y-71153043D01*
X123375823Y-71152858D01*
X123374411Y-71151619D01*
X123182975Y-70981011D01*
X123181566Y-70979736D01*
X122992843Y-70806282D01*
X122991457Y-70804989D01*
X122861289Y-70681630D01*
X122805287Y-70628558D01*
X122803938Y-70627259D01*
X122798522Y-70621968D01*
X122637806Y-70464947D01*
X122620499Y-70448038D01*
X122619163Y-70446712D01*
X122475488Y-70302013D01*
X122438485Y-70264746D01*
X122437232Y-70263465D01*
X122259303Y-70078764D01*
X122258015Y-70077406D01*
X122082850Y-69889994D01*
X122081639Y-69888680D01*
X121909280Y-69698619D01*
X121908168Y-69697374D01*
X121738662Y-69504728D01*
X121737447Y-69503325D01*
X121590323Y-69330983D01*
X121570976Y-69308320D01*
X121569791Y-69306911D01*
X121551168Y-69284424D01*
X121406167Y-69109337D01*
X121405011Y-69107920D01*
X121368103Y-69061977D01*
X121244339Y-68907914D01*
X121243212Y-68906489D01*
X121085529Y-68704103D01*
X121084408Y-68702642D01*
X120929785Y-68497986D01*
X120928729Y-68496567D01*
X120777049Y-68289480D01*
X120776043Y-68288085D01*
X120764688Y-68272090D01*
X120627508Y-68078852D01*
X120626466Y-68077360D01*
X120625996Y-68076676D01*
X120481047Y-67865945D01*
X120480038Y-67864455D01*
X120474634Y-67856344D01*
X120446119Y-67813544D01*
X145732713Y-67813544D01*
X145732714Y-67815279D01*
X145733224Y-67820454D01*
X145739872Y-67956069D01*
X145739915Y-67961395D01*
X145740920Y-67966638D01*
X145760906Y-68101456D01*
X145761450Y-68106714D01*
X145761699Y-68107964D01*
X145763251Y-68113076D01*
X145795997Y-68243848D01*
X145797006Y-68248909D01*
X145797748Y-68251353D01*
X145799753Y-68256146D01*
X145845184Y-68383141D01*
X145846720Y-68388127D01*
X145847291Y-68389504D01*
X145849762Y-68394130D01*
X145907583Y-68516399D01*
X145909784Y-68521658D01*
X145912915Y-68526402D01*
X145982803Y-68643013D01*
X145985578Y-68648159D01*
X145986289Y-68649222D01*
X145990045Y-68653730D01*
X146070302Y-68761949D01*
X146073610Y-68766825D01*
X146073686Y-68766918D01*
X146077881Y-68771094D01*
X146168479Y-68871054D01*
X146172420Y-68875824D01*
X146177206Y-68879737D01*
X146277050Y-68970230D01*
X146281365Y-68974530D01*
X146286412Y-68977911D01*
X146395227Y-69058609D01*
X146399853Y-69062372D01*
X146405106Y-69065184D01*
X146520841Y-69134548D01*
X146526228Y-69138143D01*
X146532203Y-69140590D01*
X146653876Y-69198130D01*
X146659335Y-69201033D01*
X146665243Y-69202819D01*
X146791698Y-69248056D01*
X146797397Y-69250437D01*
X146798879Y-69250886D01*
X146804933Y-69252040D01*
X146935168Y-69284652D01*
X146941037Y-69286411D01*
X146947132Y-69287002D01*
X147080485Y-69306770D01*
X147086664Y-69307990D01*
X147092950Y-69307978D01*
X147227031Y-69314550D01*
X147233744Y-69315228D01*
X147233890Y-69315228D01*
X147240572Y-69314527D01*
X147374594Y-69307912D01*
X147380910Y-69307903D01*
X147387107Y-69306653D01*
X147520233Y-69286876D01*
X147526470Y-69286255D01*
X147532467Y-69284427D01*
X147662288Y-69251879D01*
X147668860Y-69250615D01*
X147669045Y-69250558D01*
X147675240Y-69247974D01*
X147801944Y-69202609D01*
X147808137Y-69200726D01*
X147813834Y-69197648D01*
X147934413Y-69140589D01*
X147940594Y-69138078D01*
X147946160Y-69134357D01*
X148061916Y-69064945D01*
X148067831Y-69061772D01*
X148072951Y-69057494D01*
X148180403Y-68977772D01*
X148185652Y-68974259D01*
X148190110Y-68969787D01*
X148258353Y-68907914D01*
X148289270Y-68879881D01*
X148294706Y-68875471D01*
X148299106Y-68870042D01*
X148388790Y-68771057D01*
X148393377Y-68766505D01*
X148396966Y-68761134D01*
X148476892Y-68653329D01*
X148481289Y-68648025D01*
X148484500Y-68641942D01*
X148553576Y-68526657D01*
X148557094Y-68521370D01*
X148559495Y-68515514D01*
X148616765Y-68394381D01*
X148619827Y-68388694D01*
X148621708Y-68382489D01*
X148631447Y-68355258D01*
X148666735Y-68256591D01*
X148669322Y-68250487D01*
X148669616Y-68249521D01*
X148670871Y-68243001D01*
X148703389Y-68113116D01*
X148705215Y-68107122D01*
X148705838Y-68100864D01*
X148707369Y-68090534D01*
X148725562Y-67967774D01*
X148726821Y-67961530D01*
X148726827Y-67955150D01*
X148726916Y-67953339D01*
X148733391Y-67821211D01*
X148734096Y-67814481D01*
X148734096Y-67814436D01*
X148733414Y-67807666D01*
X148733083Y-67800920D01*
X148726848Y-67673665D01*
X148726863Y-67667341D01*
X148725635Y-67661118D01*
X148724111Y-67650834D01*
X148705877Y-67527815D01*
X148705286Y-67521717D01*
X148703528Y-67515848D01*
X148670930Y-67385640D01*
X148669775Y-67379587D01*
X148669327Y-67378106D01*
X148666948Y-67372413D01*
X148621746Y-67246025D01*
X148619955Y-67240092D01*
X148617037Y-67234603D01*
X148616203Y-67232840D01*
X148559530Y-67112966D01*
X148557245Y-67107386D01*
X148553936Y-67102350D01*
X148525528Y-67054939D01*
X148484338Y-66986194D01*
X148481387Y-66980639D01*
X148477399Y-66975761D01*
X148396896Y-66867177D01*
X148393544Y-66862176D01*
X148389290Y-66857901D01*
X148298976Y-66758222D01*
X148295196Y-66753574D01*
X148294515Y-66752892D01*
X148289884Y-66749083D01*
X148189882Y-66658414D01*
X148185788Y-66654326D01*
X148181009Y-66651085D01*
X148072681Y-66570712D01*
X148067978Y-66566806D01*
X148062609Y-66563878D01*
X147945884Y-66493885D01*
X147941658Y-66491077D01*
X147939967Y-66490172D01*
X147935249Y-66488213D01*
X147813391Y-66430550D01*
X147808491Y-66427927D01*
X147808053Y-66427746D01*
X147802800Y-66426105D01*
X147674703Y-66380242D01*
X147669901Y-66378265D01*
X147668182Y-66377743D01*
X147663065Y-66376724D01*
X147531832Y-66343822D01*
X147526497Y-66342227D01*
X147520980Y-66341643D01*
X147386451Y-66321657D01*
X147380958Y-66320580D01*
X147375395Y-66320535D01*
X147239813Y-66313844D01*
X147234663Y-66313336D01*
X147232874Y-66313335D01*
X147227757Y-66313822D01*
X147092072Y-66320473D01*
X147086542Y-66320501D01*
X147081109Y-66321544D01*
X146946334Y-66341524D01*
X146940999Y-66342078D01*
X146940884Y-66342101D01*
X146935769Y-66343605D01*
X146804118Y-66376571D01*
X146799422Y-66377500D01*
X146796626Y-66378347D01*
X146792217Y-66380166D01*
X146664397Y-66425892D01*
X146659432Y-66427433D01*
X146658927Y-66427641D01*
X146654308Y-66430074D01*
X146531393Y-66488201D01*
X146526153Y-66490392D01*
X146525963Y-66490494D01*
X146521233Y-66493626D01*
X146404710Y-66563462D01*
X146400311Y-66565838D01*
X146399184Y-66566591D01*
X146395313Y-66569735D01*
X146285686Y-66651035D01*
X146281660Y-66653774D01*
X146280785Y-66654491D01*
X146277274Y-66657975D01*
X146176558Y-66749258D01*
X146172225Y-66752851D01*
X146168639Y-66757176D01*
X146077355Y-66857895D01*
X146073872Y-66861406D01*
X146073152Y-66862283D01*
X146070415Y-66866306D01*
X145989115Y-66975932D01*
X145985974Y-66979798D01*
X145985219Y-66980928D01*
X145982842Y-66985331D01*
X145912552Y-67102610D01*
X145909656Y-67107051D01*
X145907581Y-67112014D01*
X145849454Y-67234929D01*
X145847021Y-67239548D01*
X145846812Y-67240054D01*
X145845271Y-67245021D01*
X145799549Y-67372833D01*
X145797727Y-67377249D01*
X145796881Y-67380041D01*
X145795952Y-67384739D01*
X145763120Y-67515853D01*
X145761677Y-67520679D01*
X145761375Y-67522203D01*
X145760867Y-67527206D01*
X145740857Y-67662190D01*
X145739881Y-67667372D01*
X145739854Y-67672691D01*
X145733203Y-67808389D01*
X145732713Y-67813544D01*
X120446119Y-67813544D01*
X120337813Y-67650978D01*
X120336807Y-67649443D01*
X120197749Y-67433868D01*
X120196766Y-67432318D01*
X120060856Y-67214614D01*
X120059943Y-67213128D01*
X119927313Y-66993499D01*
X119926376Y-66991920D01*
X119920327Y-66981559D01*
X119796985Y-66770296D01*
X119796127Y-66768802D01*
X119670045Y-66545299D01*
X119669157Y-66543696D01*
X119643507Y-66496607D01*
X119546460Y-66318444D01*
X119545602Y-66316841D01*
X119543868Y-66313542D01*
X119426215Y-66089694D01*
X119425384Y-66088082D01*
X119409661Y-66057055D01*
X119309481Y-65859360D01*
X119308658Y-65857706D01*
X119265648Y-65769600D01*
X119196091Y-65627109D01*
X119195348Y-65625556D01*
X119086218Y-65393262D01*
X119085461Y-65391619D01*
X119069036Y-65355252D01*
X118979901Y-65157892D01*
X118979158Y-65156213D01*
X118962770Y-65118426D01*
X118877072Y-64920830D01*
X118876429Y-64919316D01*
X118777842Y-64682303D01*
X118777173Y-64680657D01*
X118682273Y-64442442D01*
X118681592Y-64440695D01*
X118590292Y-64201036D01*
X118589657Y-64199330D01*
X118502000Y-63958307D01*
X118501425Y-63956691D01*
X118417380Y-63714173D01*
X118416847Y-63712594D01*
X118336559Y-63468953D01*
X118335978Y-63467144D01*
X118320813Y-63418635D01*
X118259444Y-63222332D01*
X118258950Y-63220706D01*
X118186193Y-62974762D01*
X118185665Y-62972926D01*
X118171473Y-62922075D01*
X118116968Y-62726781D01*
X118116004Y-62723103D01*
X118064223Y-62512143D01*
X118063216Y-62507679D01*
X118014896Y-62273240D01*
X118014235Y-62269789D01*
X117996373Y-62168716D01*
X117969655Y-62017529D01*
X117969219Y-62014889D01*
X117928886Y-61751704D01*
X117928543Y-61749308D01*
X117910860Y-61616677D01*
X117892879Y-61481817D01*
X117892611Y-61479664D01*
X117888653Y-61445355D01*
X117862012Y-61214440D01*
X117861803Y-61212473D01*
X117836659Y-60956049D01*
X117836477Y-60954008D01*
X117817187Y-60713221D01*
X117817012Y-60710725D01*
X117815064Y-60678169D01*
X117803876Y-60491198D01*
X117803802Y-60489810D01*
X117803743Y-60488590D01*
X117593818Y-56123501D01*
X117593849Y-56110979D01*
X117595241Y-56084741D01*
X117604922Y-55902282D01*
X117608854Y-55877214D01*
X117658182Y-55690394D01*
X117667126Y-55666673D01*
X117751031Y-55498599D01*
X117764513Y-55477324D01*
X117879197Y-55331555D01*
X117896642Y-55313495D01*
X118038374Y-55193813D01*
X118059153Y-55179612D01*
X118224264Y-55089887D01*
X118247634Y-55080131D01*
X118432689Y-55024277D01*
X118457587Y-55019472D01*
X118665772Y-55001052D01*
X118678315Y-55000581D01*
X119014180Y-55004968D01*
G37*
%TD.AperFunction*%
%TD*%
M02*
